<?xml version="1.0" encoding="UTF-8" standalone="no"?>
<!-- Created with Inkscape (http://www.inkscape.org/) -->

<svg
   width="15.24mm"
   height="128.5mm"
   viewBox="0 0 15.240001 128.50002"
   version="1.1"
   id="svg8"
   inkscape:version="1.1.2 (b8e25be8, 2022-02-05)"
   sodipodi:docname="Between.svg"
   xmlns:inkscape="http://www.inkscape.org/namespaces/inkscape"
   xmlns:sodipodi="http://sodipodi.sourceforge.net/DTD/sodipodi-0.dtd"
   xmlns="http://www.w3.org/2000/svg"
   xmlns:svg="http://www.w3.org/2000/svg"
   xmlns:rdf="http://www.w3.org/1999/02/22-rdf-syntax-ns#"
   xmlns:cc="http://creativecommons.org/ns#"
   xmlns:dc="http://purl.org/dc/elements/1.1/">
  <defs
     id="defs2" />
  <sodipodi:namedview
     id="base"
     pagecolor="#ffffff"
     bordercolor="#666666"
     borderopacity="1.0"
     inkscape:pageopacity="0.0"
     inkscape:pageshadow="2"
     inkscape:zoom="4.6036729"
     inkscape:cx="27.152233"
     inkscape:cy="433.24103"
     inkscape:document-units="mm"
     inkscape:current-layer="layer1"
     showgrid="false"
     units="mm"
     inkscape:snap-bbox="false"
     inkscape:snap-page="true"
     inkscape:bbox-nodes="false"
     inkscape:snap-bbox-edge-midpoints="false"
     inkscape:window-width="1280"
     inkscape:window-height="674"
     inkscape:window-x="0"
     inkscape:window-y="25"
     inkscape:window-maximized="0"
     inkscape:snap-bbox-midpoints="true"
     inkscape:snap-nodes="false"
     inkscape:pagecheckerboard="1"
     showguides="true"
     inkscape:guide-bbox="true"
     inkscape:bbox-paths="true"
     inkscape:snap-global="true"
     inkscape:snap-others="true"
     inkscape:snap-object-midpoints="true">
    <sodipodi:guide
       position="-1.8965837,16.946411"
       orientation="0,-1"
       id="guide51348" />
    <sodipodi:guide
       position="-2.9310839,15.279716"
       orientation="0,-1"
       id="guide51376" />
    <sodipodi:guide
       position="17.471559,134.70702"
       orientation="0,-1"
       id="guide62724" />
  </sodipodi:namedview>
  <metadata
     id="metadata5">
    <rdf:RDF>
      <cc:Work
         rdf:about="">
        <dc:format>image/svg+xml</dc:format>
        <dc:type
           rdf:resource="http://purl.org/dc/dcmitype/StillImage" />
      </cc:Work>
    </rdf:RDF>
  </metadata>
  <g
     inkscape:label="Layer 1"
     inkscape:groupmode="layer"
     id="layer1"
     transform="translate(0,-168.49998)"
     style="display:inline">
    <rect
       style="display:inline;opacity:1;vector-effect:none;fill:#fdf2dd;fill-opacity:1;fill-rule:evenodd;stroke:none;stroke-width:0.459165;stroke-linecap:butt;stroke-linejoin:miter;stroke-miterlimit:4;stroke-dasharray:none;stroke-dashoffset:0;stroke-opacity:1;paint-order:normal"
       id="rect420"
       width="15.24"
       height="128.5"
       x="0"
       y="168.49997" />
    <rect
       style="font-variation-settings:normal;fill:#603601;fill-opacity:1;stroke:none;stroke-width:0.737561;stroke-linecap:butt;stroke-linejoin:miter;stroke-miterlimit:4;stroke-dasharray:none;stroke-dashoffset:0;stroke-opacity:1;stop-color:#000000"
       id="rect643-9-3"
       width="15.24"
       height="14"
       x="4.4408921e-16"
       y="274.49997" />
    <rect
       style="font-variation-settings:normal;display:inline;fill:#d2b48c;fill-opacity:1;stroke:none;stroke-width:2.10511;stroke-linecap:butt;stroke-linejoin:miter;stroke-miterlimit:4;stroke-dasharray:none;stroke-dashoffset:0;stroke-opacity:1;stop-color:#000000"
       id="rect643-9-3-8"
       width="15.24"
       height="114.04552"
       x="0"
       y="174.49998" />
    <g
       id="g4831"
       transform="matrix(0.01816436,7.0347027e-4,-6.8602665e-4,0.01862623,4.7121736,289.59875)"
       style="display:inline;fill:#1c0a00;fill-opacity:1">
      <path
         d="M 14.257,275.602 C -17.052,220.391 4.253,133.798 69.023,69.01 142.576,-4.533 244.279,-22.066 296.205,29.85 c 0.061,0.068 0.112,0.145 0.195,0.214 C 286.008,60.299 252.914,124.631 153.714,159.412 62.842,191.29 27.788,241.972 14.257,275.602 Z M 310.81,48.75 c -7.871,18.361 -21.57,42.356 -45.173,65.957 -23.725,23.735 -57.445,47.046 -105.208,63.8 C 63.49,212.5 36.405,268.149 28.848,295.116 c 0.357,0.36 0.664,0.733 1.011,1.083 51.921,51.918 153.628,34.386 227.176,-39.169 65.444,-65.445 86.491,-153.161 53.775,-208.28 z"
         id="path4829"
         style="fill:#1c0a00;fill-opacity:1" />
    </g>
    <g
       aria-label="Between"
       id="text105688"
       style="font-weight:500;font-size:2.82223px;line-height:1.25;font-family:Futura;-inkscape-font-specification:'Futura Medium';fill:#1c0a00;stroke-width:0.264583">
      <path
         d="M 1.7701571,172.19897 H 1.891513 q 0.208845,0 0.2991564,-0.0536 0.090311,-0.0536 0.090311,-0.17215 0,-0.11854 -0.090311,-0.17216 -0.090311,-0.0536 -0.2991564,-0.0536 H 1.7701571 Z m 0,-0.86361 h 0.1016003 q 0.2596452,0 0.2596452,-0.20602 0,-0.20602 -0.2596452,-0.20602 H 1.7701571 Z M 1.217,170.49998 h 0.8240912 q 0.2935119,0 0.4459124,0.14111 0.1524004,0.14112 0.1524004,0.40641 0,0.16086 -0.059267,0.26811 -0.056445,0.10442 -0.1749782,0.1778 0.1185336,0.0226 0.2003783,0.0705 0.084667,0.0452 0.1354671,0.11289 0.053622,0.0677 0.0762,0.1524 0.022578,0.0847 0.022578,0.18063 0,0.14957 -0.053622,0.26529 -0.0508,0.11571 -0.1467559,0.19473 -0.093134,0.079 -0.2286007,0.11853 -0.135467,0.0395 -0.3048008,0.0395 H 1.217 Z"
         style="font-weight:bold;-inkscape-font-specification:'Futura Bold'"
         id="path130218" />
      <path
         d="m 4.1786659,171.69379 q -0.0254,-0.10725 -0.1044225,-0.17216 -0.079022,-0.0649 -0.1919116,-0.0649 -0.1185337,0 -0.1947339,0.0621 -0.073378,0.0621 -0.093134,0.17498 z m -0.5983128,0.29633 q 0,0.3302 0.3104453,0.3302 0.1665116,0 0.2511785,-0.13547 h 0.4938903 q -0.1495782,0.49672 -0.747891,0.49672 -0.1834449,0 -0.3358454,-0.0536 -0.1524004,-0.0564 -0.2624674,-0.15804 -0.1072447,-0.1016 -0.1665115,-0.24271 -0.059267,-0.14111 -0.059267,-0.31609 0,-0.18062 0.056445,-0.32456 0.056445,-0.14675 0.1608671,-0.24835 0.1044226,-0.1016 0.2511785,-0.15523 0.1495782,-0.0564 0.3358454,-0.0564 0.183445,0 0.3302009,0.0564 0.146756,0.0536 0.2483563,0.15805 0.1016003,0.10442 0.1552226,0.25682 0.053622,0.14958 0.053622,0.33867 v 0.0536 z"
         style="font-weight:bold;-inkscape-font-specification:'Futura Bold'"
         id="path130220" />
      <path
         d="m 5.5358498,171.6063 v 1.02164 H 5.0250261 V 171.6063 H 4.8556923 v -0.42616 h 0.1693338 v -0.43462 h 0.5108237 v 0.43462 h 0.2906897 v 0.42616 z"
         style="font-weight:bold;-inkscape-font-specification:'Futura Bold'"
         id="path130222" />
      <path
         d="m 6.4148423,171.18014 0.3471343,0.762 0.3612455,-0.762 h 0.3217342 l 0.3612455,0.78458 0.3640676,-0.78458 H 8.7375377 L 7.98118,172.62794 H 7.6396902 l -0.3612455,-0.79304 -0.344312,0.79304 H 6.5869984 l -0.7422466,-1.4478 z"
         style="font-weight:bold;-inkscape-font-specification:'Futura Bold'"
         id="path130224" />
      <path
         d="m 9.9050169,171.69379 q -0.0254,-0.10725 -0.1044225,-0.17216 -0.079022,-0.0649 -0.1919116,-0.0649 -0.1185337,0 -0.1947339,0.0621 -0.073378,0.0621 -0.093134,0.17498 z m -0.5983127,0.29633 q 0,0.3302 0.3104453,0.3302 0.1665115,0 0.2511784,-0.13547 h 0.4938901 q -0.149578,0.49672 -0.7478908,0.49672 -0.1834449,0 -0.3358453,-0.0536 -0.1524005,-0.0564 -0.2624674,-0.15804 -0.1072448,-0.1016 -0.1665116,-0.24271 -0.059267,-0.14111 -0.059267,-0.31609 0,-0.18062 0.056445,-0.32456 0.056445,-0.14675 0.1608671,-0.24835 0.1044225,-0.1016 0.2511784,-0.15523 0.1495782,-0.0564 0.3358454,-0.0564 0.183445,0 0.3302009,0.0564 0.1467563,0.0536 0.2483563,0.15805 0.1016,0.10442 0.155222,0.25682 0.05362,0.14958 0.05362,0.33867 v 0.0536 z"
         style="font-weight:bold;-inkscape-font-specification:'Futura Bold'"
         id="path130226" />
      <path
         d="m 11.730337,171.69379 q -0.0254,-0.10725 -0.104423,-0.17216 -0.07902,-0.0649 -0.191911,-0.0649 -0.118534,0 -0.194734,0.0621 -0.07338,0.0621 -0.09313,0.17498 z m -0.598313,0.29633 q 0,0.3302 0.310445,0.3302 0.166512,0 0.251179,-0.13547 h 0.49389 q -0.149578,0.49672 -0.747891,0.49672 -0.183445,0 -0.335845,-0.0536 -0.152401,-0.0564 -0.262468,-0.15804 -0.107245,-0.1016 -0.166511,-0.24271 -0.05927,-0.14111 -0.05927,-0.31609 0,-0.18062 0.05644,-0.32456 0.05645,-0.14675 0.160868,-0.24835 0.104422,-0.1016 0.251178,-0.15523 0.149578,-0.0564 0.335845,-0.0564 0.183445,0 0.330201,0.0564 0.146756,0.0536 0.248357,0.15805 0.1016,0.10442 0.155222,0.25682 0.05362,0.14958 0.05362,0.33867 v 0.0536 z"
         style="font-weight:bold;-inkscape-font-specification:'Futura Bold'"
         id="path130228" />
      <path
         d="m 12.496527,171.18014 h 0.510824 v 0.18345 q 0.104422,-0.127 0.211667,-0.16934 0.107245,-0.0452 0.251179,-0.0452 0.1524,0 0.259645,0.0508 0.110067,0.048 0.186267,0.13829 0.06209,0.0734 0.08467,0.16369 0.02258,0.0903 0.02258,0.20602 v 0.92004 H 13.51253 v -0.73095 q 0,-0.10725 -0.01693,-0.17216 -0.01411,-0.0677 -0.05362,-0.10724 -0.03387,-0.0339 -0.0762,-0.048 -0.04233,-0.0141 -0.09031,-0.0141 -0.129823,0 -0.200379,0.079 -0.06773,0.0762 -0.06773,0.22013 v 0.77329 h -0.510824 z"
         style="font-weight:bold;-inkscape-font-specification:'Futura Bold'"
         id="path130230" />
    </g>
  </g>
  <g
     inkscape:groupmode="layer"
     id="layer3"
     inkscape:label="Grid"
     style="display:none">
    <g
       inkscape:label="GridCartesian:X1:Y13"
       transform="translate(0.1322915,0.1322915)"
       id="g23277">
      <g
         inkscape:label="MajorXGridlines"
         id="g23141" />
      <g
         inkscape:label="MajorYGridlines"
         id="g23167">
        <path
           style="fill:none;stroke:#000000;stroke-width:0.264583"
           d="M 0,10 H 15.24"
           inkscape:label="MajorYDiv1"
           id="path23143" />
        <path
           style="fill:none;stroke:#000000;stroke-width:0.264583"
           d="M 0,20 H 15.24"
           inkscape:label="MajorYDiv2"
           id="path23145" />
        <path
           style="fill:none;stroke:#000000;stroke-width:0.264583"
           d="M 0,30 H 15.24"
           inkscape:label="MajorYDiv3"
           id="path23147" />
        <path
           style="fill:none;stroke:#000000;stroke-width:0.264583"
           d="M 0,40 H 15.24"
           inkscape:label="MajorYDiv4"
           id="path23149" />
        <path
           style="fill:none;stroke:#000000;stroke-width:0.264583"
           d="M 0,50 H 15.24"
           inkscape:label="MajorYDiv5"
           id="path23151" />
        <path
           style="fill:none;stroke:#000000;stroke-width:0.264583"
           d="M 0,60 H 15.24"
           inkscape:label="MajorYDiv6"
           id="path23153" />
        <path
           style="fill:none;stroke:#000000;stroke-width:0.264583"
           d="M 0,70 H 15.24"
           inkscape:label="MajorYDiv7"
           id="path23155" />
        <path
           style="fill:none;stroke:#000000;stroke-width:0.264583"
           d="M 0,80 H 15.24"
           inkscape:label="MajorYDiv8"
           id="path23157" />
        <path
           style="fill:none;stroke:#000000;stroke-width:0.264583"
           d="M 0,90 H 15.24"
           inkscape:label="MajorYDiv9"
           id="path23159" />
        <path
           style="fill:none;stroke:#000000;stroke-width:0.264583"
           d="M 0,100 H 15.24"
           inkscape:label="MajorYDiv10"
           id="path23161" />
        <path
           style="fill:none;stroke:#000000;stroke-width:0.264583"
           d="M 0,110 H 15.24"
           inkscape:label="MajorYDiv11"
           id="path23163" />
        <path
           style="fill:none;stroke:#000000;stroke-width:0.264583"
           d="M 0,120 H 15.24"
           inkscape:label="MajorYDiv12"
           id="path23165" />
      </g>
      <g
         inkscape:label="SubMinorYGridlines"
         id="g23273">
        <path
           style="fill:none;stroke:#000000;stroke-width:0.079375"
           d="M 0,2 H 15.24"
           inkscape:label="SubminorXDiv0:0:1"
           id="path23169" />
        <path
           style="fill:none;stroke:#000000;stroke-width:0.079375"
           d="M 0,4 H 15.24"
           inkscape:label="SubminorXDiv0:0:2"
           id="path23171" />
        <path
           style="fill:none;stroke:#000000;stroke-width:0.079375"
           d="M 0,6 H 15.24"
           inkscape:label="SubminorXDiv0:0:3"
           id="path23173" />
        <path
           style="fill:none;stroke:#000000;stroke-width:0.079375"
           d="M 0,8 H 15.24"
           inkscape:label="SubminorXDiv0:0:4"
           id="path23175" />
        <path
           style="fill:none;stroke:#000000;stroke-width:0.079375"
           d="M 0,12 H 15.24"
           inkscape:label="SubminorXDiv1:0:1"
           id="path23177" />
        <path
           style="fill:none;stroke:#000000;stroke-width:0.079375"
           d="M 0,14 H 15.24"
           inkscape:label="SubminorXDiv1:0:2"
           id="path23179" />
        <path
           style="fill:none;stroke:#000000;stroke-width:0.079375"
           d="M 0,16 H 15.24"
           inkscape:label="SubminorXDiv1:0:3"
           id="path23181" />
        <path
           style="fill:none;stroke:#000000;stroke-width:0.079375"
           d="M 0,18 H 15.24"
           inkscape:label="SubminorXDiv1:0:4"
           id="path23183" />
        <path
           style="fill:none;stroke:#000000;stroke-width:0.079375"
           d="M 0,22 H 15.24"
           inkscape:label="SubminorXDiv2:0:1"
           id="path23185" />
        <path
           style="fill:none;stroke:#000000;stroke-width:0.079375"
           d="M 0,24 H 15.24"
           inkscape:label="SubminorXDiv2:0:2"
           id="path23187" />
        <path
           style="fill:none;stroke:#000000;stroke-width:0.079375"
           d="M 0,26 H 15.24"
           inkscape:label="SubminorXDiv2:0:3"
           id="path23189" />
        <path
           style="fill:none;stroke:#000000;stroke-width:0.079375"
           d="M 0,28 H 15.24"
           inkscape:label="SubminorXDiv2:0:4"
           id="path23191" />
        <path
           style="fill:none;stroke:#000000;stroke-width:0.079375"
           d="M 0,32 H 15.24"
           inkscape:label="SubminorXDiv3:0:1"
           id="path23193" />
        <path
           style="fill:none;stroke:#000000;stroke-width:0.079375"
           d="M 0,34 H 15.24"
           inkscape:label="SubminorXDiv3:0:2"
           id="path23195" />
        <path
           style="fill:none;stroke:#000000;stroke-width:0.079375"
           d="M 0,36 H 15.24"
           inkscape:label="SubminorXDiv3:0:3"
           id="path23197" />
        <path
           style="fill:none;stroke:#000000;stroke-width:0.079375"
           d="M 0,38 H 15.24"
           inkscape:label="SubminorXDiv3:0:4"
           id="path23199" />
        <path
           style="fill:none;stroke:#000000;stroke-width:0.079375"
           d="M 0,42 H 15.24"
           inkscape:label="SubminorXDiv4:0:1"
           id="path23201" />
        <path
           style="fill:none;stroke:#000000;stroke-width:0.079375"
           d="M 0,44 H 15.24"
           inkscape:label="SubminorXDiv4:0:2"
           id="path23203" />
        <path
           style="fill:none;stroke:#000000;stroke-width:0.079375"
           d="M 0,46 H 15.24"
           inkscape:label="SubminorXDiv4:0:3"
           id="path23205" />
        <path
           style="fill:none;stroke:#000000;stroke-width:0.079375"
           d="M 0,48 H 15.24"
           inkscape:label="SubminorXDiv4:0:4"
           id="path23207" />
        <path
           style="fill:none;stroke:#000000;stroke-width:0.079375"
           d="M 0,52 H 15.24"
           inkscape:label="SubminorXDiv5:0:1"
           id="path23209" />
        <path
           style="fill:none;stroke:#000000;stroke-width:0.079375"
           d="M 0,54 H 15.24"
           inkscape:label="SubminorXDiv5:0:2"
           id="path23211" />
        <path
           style="fill:none;stroke:#000000;stroke-width:0.079375"
           d="M 0,56 H 15.24"
           inkscape:label="SubminorXDiv5:0:3"
           id="path23213" />
        <path
           style="fill:none;stroke:#000000;stroke-width:0.079375"
           d="M 0,58 H 15.24"
           inkscape:label="SubminorXDiv5:0:4"
           id="path23215" />
        <path
           style="fill:none;stroke:#000000;stroke-width:0.079375"
           d="M 0,62 H 15.24"
           inkscape:label="SubminorXDiv6:0:1"
           id="path23217" />
        <path
           style="fill:none;stroke:#000000;stroke-width:0.079375"
           d="M 0,64 H 15.24"
           inkscape:label="SubminorXDiv6:0:2"
           id="path23219" />
        <path
           style="fill:none;stroke:#000000;stroke-width:0.079375"
           d="M 0,66 H 15.24"
           inkscape:label="SubminorXDiv6:0:3"
           id="path23221" />
        <path
           style="fill:none;stroke:#000000;stroke-width:0.079375"
           d="M 0,68 H 15.24"
           inkscape:label="SubminorXDiv6:0:4"
           id="path23223" />
        <path
           style="fill:none;stroke:#000000;stroke-width:0.079375"
           d="M 0,72 H 15.24"
           inkscape:label="SubminorXDiv7:0:1"
           id="path23225" />
        <path
           style="fill:none;stroke:#000000;stroke-width:0.079375"
           d="M 0,74 H 15.24"
           inkscape:label="SubminorXDiv7:0:2"
           id="path23227" />
        <path
           style="fill:none;stroke:#000000;stroke-width:0.079375"
           d="M 0,76 H 15.24"
           inkscape:label="SubminorXDiv7:0:3"
           id="path23229" />
        <path
           style="fill:none;stroke:#000000;stroke-width:0.079375"
           d="M 0,78 H 15.24"
           inkscape:label="SubminorXDiv7:0:4"
           id="path23231" />
        <path
           style="fill:none;stroke:#000000;stroke-width:0.079375"
           d="M 0,82 H 15.24"
           inkscape:label="SubminorXDiv8:0:1"
           id="path23233" />
        <path
           style="fill:none;stroke:#000000;stroke-width:0.079375"
           d="M 0,84 H 15.24"
           inkscape:label="SubminorXDiv8:0:2"
           id="path23235" />
        <path
           style="fill:none;stroke:#000000;stroke-width:0.079375"
           d="M 0,86 H 15.24"
           inkscape:label="SubminorXDiv8:0:3"
           id="path23237" />
        <path
           style="fill:none;stroke:#000000;stroke-width:0.079375"
           d="M 0,88 H 15.24"
           inkscape:label="SubminorXDiv8:0:4"
           id="path23239" />
        <path
           style="fill:none;stroke:#000000;stroke-width:0.079375"
           d="M 0,92 H 15.24"
           inkscape:label="SubminorXDiv9:0:1"
           id="path23241" />
        <path
           style="fill:none;stroke:#000000;stroke-width:0.079375"
           d="M 0,94 H 15.24"
           inkscape:label="SubminorXDiv9:0:2"
           id="path23243" />
        <path
           style="fill:none;stroke:#000000;stroke-width:0.079375"
           d="M 0,96 H 15.24"
           inkscape:label="SubminorXDiv9:0:3"
           id="path23245" />
        <path
           style="fill:none;stroke:#000000;stroke-width:0.079375"
           d="M 0,98 H 15.24"
           inkscape:label="SubminorXDiv9:0:4"
           id="path23247" />
        <path
           style="fill:none;stroke:#000000;stroke-width:0.079375"
           d="M 0,102 H 15.24"
           inkscape:label="SubminorXDiv10:0:1"
           id="path23249" />
        <path
           style="fill:none;stroke:#000000;stroke-width:0.079375"
           d="M 0,104 H 15.24"
           inkscape:label="SubminorXDiv10:0:2"
           id="path23251" />
        <path
           style="fill:none;stroke:#000000;stroke-width:0.079375"
           d="M 0,106 H 15.24"
           inkscape:label="SubminorXDiv10:0:3"
           id="path23253" />
        <path
           style="fill:none;stroke:#000000;stroke-width:0.079375"
           d="M 0,108 H 15.24"
           inkscape:label="SubminorXDiv10:0:4"
           id="path23255" />
        <path
           style="fill:none;stroke:#000000;stroke-width:0.079375"
           d="M 0,112 H 15.24"
           inkscape:label="SubminorXDiv11:0:1"
           id="path23257" />
        <path
           style="fill:none;stroke:#000000;stroke-width:0.079375"
           d="M 0,114 H 15.24"
           inkscape:label="SubminorXDiv11:0:2"
           id="path23259" />
        <path
           style="fill:none;stroke:#000000;stroke-width:0.079375"
           d="M 0,116 H 15.24"
           inkscape:label="SubminorXDiv11:0:3"
           id="path23261" />
        <path
           style="fill:none;stroke:#000000;stroke-width:0.079375"
           d="M 0,118 H 15.24"
           inkscape:label="SubminorXDiv11:0:4"
           id="path23263" />
        <path
           style="fill:none;stroke:#000000;stroke-width:0.079375"
           d="M 0,122 H 15.24"
           inkscape:label="SubminorXDiv12:0:1"
           id="path23265" />
        <path
           style="fill:none;stroke:#000000;stroke-width:0.079375"
           d="M 0,124 H 15.24"
           inkscape:label="SubminorXDiv12:0:2"
           id="path23267" />
        <path
           style="fill:none;stroke:#000000;stroke-width:0.079375"
           d="M 0,126 H 15.24"
           inkscape:label="SubminorXDiv12:0:3"
           id="path23269" />
        <path
           style="fill:none;stroke:#000000;stroke-width:0.079375"
           d="M 0,128 H 15.24"
           inkscape:label="SubminorXDiv12:0:4"
           id="path23271" />
      </g>
      <rect
         x="0"
         y="0"
         width="15.24"
         height="130"
         style="fill:none;stroke:#000000;stroke-width:0.264583"
         inkscape:label="Border"
         id="rect23275" />
    </g>
  </g>
  <g
     id="layer2"
     inkscape:label="components"
     inkscape:groupmode="layer"
     style="display:none">
    <circle
       style="display:inline;opacity:1;vector-effect:none;fill:#ff0000;fill-opacity:1;fill-rule:evenodd;stroke:none;stroke-width:1;stroke-linecap:butt;stroke-linejoin:miter;stroke-miterlimit:4;stroke-dasharray:none;stroke-dashoffset:0;stroke-opacity:1;paint-order:normal"
       id="path4954"
       cx="7.6199989"
       cy="56.634701"
       r="4"
       inkscape:label="p_Button1" />
    <circle
       style="display:inline;vector-effect:none;fill:#ff0000;fill-opacity:1;fill-rule:evenodd;stroke:none;stroke-width:1;stroke-linecap:butt;stroke-linejoin:miter;stroke-miterlimit:4;stroke-dasharray:none;stroke-dashoffset:0;stroke-opacity:1;paint-order:normal"
       id="path4954-9"
       cx="7.6199989"
       cy="73.994003"
       r="4"
       inkscape:label="p_MaxCV" />
    <circle
       style="display:inline;vector-effect:none;fill:#ff0000;fill-opacity:1;fill-rule:evenodd;stroke:none;stroke-width:1;stroke-linecap:butt;stroke-linejoin:miter;stroke-miterlimit:4;stroke-dasharray:none;stroke-dashoffset:0;stroke-opacity:1;paint-order:normal"
       id="path4954-0"
       cx="7.6199989"
       cy="91.353294"
       r="4"
       inkscape:label="p_MinCV" />
    <circle
       style="display:inline;vector-effect:none;fill:#ff00ff;fill-opacity:1;fill-rule:evenodd;stroke:none;stroke-width:1;stroke-linecap:butt;stroke-linejoin:miter;stroke-miterlimit:4;stroke-dasharray:none;stroke-dashoffset:0;stroke-opacity:1;paint-order:normal"
       id="path4954-8"
       cx="7.6199989"
       cy="21.916101"
       inkscape:label="l_Trig1"
       r="4" />
    <circle
       r="4"
       cy="39.275398"
       cx="7.6199989"
       id="circle4956"
       style="display:inline;opacity:1;vector-effect:none;fill:#00ff00;fill-opacity:1;fill-rule:evenodd;stroke:none;stroke-width:1;stroke-linecap:butt;stroke-linejoin:miter;stroke-miterlimit:4;stroke-dasharray:none;stroke-dashoffset:0;stroke-opacity:1;paint-order:normal"
       inkscape:label="i_Trig1" />
    <circle
       style="display:inline;opacity:1;vector-effect:none;fill:#0000ff;fill-opacity:1;fill-rule:evenodd;stroke:none;stroke-width:1;stroke-linecap:butt;stroke-linejoin:miter;stroke-miterlimit:4;stroke-dasharray:none;stroke-dashoffset:0;stroke-opacity:1;paint-order:normal"
       id="circle4958"
       cx="7.6199989"
       cy="108.71259"
       r="4"
       inkscape:label="o_CV1" />
  </g>
</svg>
