<?xml version="1.0" encoding="UTF-8" standalone="no"?>
<!-- Created with Inkscape (http://www.inkscape.org/) -->

<svg
   width="20.32mm"
   height="128.5mm"
   viewBox="0 0 20.320002 128.50002"
   version="1.1"
   id="svg8"
   inkscape:version="1.1.2 (b8e25be8, 2022-02-05)"
   sodipodi:docname="Empower.svg"
   xmlns:inkscape="http://www.inkscape.org/namespaces/inkscape"
   xmlns:sodipodi="http://sodipodi.sourceforge.net/DTD/sodipodi-0.dtd"
   xmlns="http://www.w3.org/2000/svg"
   xmlns:svg="http://www.w3.org/2000/svg"
   xmlns:rdf="http://www.w3.org/1999/02/22-rdf-syntax-ns#"
   xmlns:cc="http://creativecommons.org/ns#"
   xmlns:dc="http://purl.org/dc/elements/1.1/">
  <defs
     id="defs2">
    <rect
       x="-20.954651"
       y="233.72495"
       width="84.62455"
       height="149.1004"
       id="rect38922" />
  </defs>
  <sodipodi:namedview
     id="base"
     pagecolor="#ffffff"
     bordercolor="#666666"
     borderopacity="1.0"
     inkscape:pageopacity="0.0"
     inkscape:pageshadow="2"
     inkscape:zoom="1.351586"
     inkscape:cx="12.20788"
     inkscape:cy="123.92848"
     inkscape:document-units="mm"
     inkscape:current-layer="layer1"
     showgrid="false"
     units="mm"
     inkscape:snap-bbox="true"
     inkscape:snap-page="true"
     inkscape:bbox-nodes="false"
     inkscape:snap-bbox-edge-midpoints="false"
     inkscape:window-width="1280"
     inkscape:window-height="674"
     inkscape:window-x="0"
     inkscape:window-y="25"
     inkscape:window-maximized="0"
     inkscape:snap-bbox-midpoints="true"
     inkscape:snap-nodes="true"
     inkscape:pagecheckerboard="1"
     showguides="true"
     inkscape:guide-bbox="true"
     width="30.48mm"
     fit-margin-top="0"
     fit-margin-left="0"
     fit-margin-right="0"
     fit-margin-bottom="0">
    <sodipodi:guide
       position="-35.500586,1.4680056"
       orientation="0,-1"
       id="guide4988" />
    <sodipodi:guide
       position="-41.002175,2.8751256"
       orientation="0,-1"
       id="guide4990" />
    <sodipodi:guide
       position="-34.017011,8.8712357"
       orientation="0,-1"
       id="guide4992" />
    <sodipodi:guide
       position="-33.584302,10.416626"
       orientation="0,-1"
       id="guide4994" />
  </sodipodi:namedview>
  <metadata
     id="metadata5">
    <rdf:RDF>
      <cc:Work
         rdf:about="">
        <dc:format>image/svg+xml</dc:format>
        <dc:type
           rdf:resource="http://purl.org/dc/dcmitype/StillImage" />
      </cc:Work>
    </rdf:RDF>
  </metadata>
  <g
     inkscape:label="Layer 1"
     inkscape:groupmode="layer"
     id="layer1"
     transform="translate(-52.190792,-169.96799)"
     style="display:inline">
    <rect
       style="display:inline;opacity:1;vector-effect:none;fill:#fdf2dd;fill-opacity:1;fill-rule:evenodd;stroke:none;stroke-width:0.530196;stroke-linecap:butt;stroke-linejoin:miter;stroke-miterlimit:4;stroke-dasharray:none;stroke-dashoffset:0;stroke-opacity:1;paint-order:normal"
       id="rect420"
       width="20.32"
       height="128.5"
       x="52.190792"
       y="169.96799" />
    <rect
       style="font-variation-settings:normal;display:inline;fill:#d2b48c;fill-opacity:1;stroke:none;stroke-width:2.43027;stroke-linecap:butt;stroke-linejoin:miter;stroke-miterlimit:4;stroke-dasharray:none;stroke-dashoffset:0;stroke-opacity:1;stop-color:#000000"
       id="rect643-9-3-8-9"
       width="20.32"
       height="114"
       x="52.190792"
       y="175.968" />
    <g
       id="g4831"
       transform="matrix(0.01816436,7.0347027e-4,-6.8602665e-4,0.01862623,59.501398,291.06676)"
       style="fill:#1c0a00;fill-opacity:1">
      <path
         d="M 14.257,275.602 C -17.052,220.391 4.253,133.798 69.023,69.01 142.576,-4.533 244.279,-22.066 296.205,29.85 c 0.061,0.068 0.112,0.145 0.195,0.214 C 286.008,60.299 252.914,124.631 153.714,159.412 62.842,191.29 27.788,241.972 14.257,275.602 Z M 310.81,48.75 c -7.871,18.361 -21.57,42.356 -45.173,65.957 -23.725,23.735 -57.445,47.046 -105.208,63.8 C 63.49,212.5 36.405,268.149 28.848,295.116 c 0.357,0.36 0.664,0.733 1.011,1.083 51.921,51.918 153.628,34.386 227.176,-39.169 65.444,-65.445 86.491,-153.161 53.775,-208.28 z"
         id="path4829"
         style="fill:#1c0a00;fill-opacity:1" />
    </g>
    <g
       aria-label="Empower"
       id="text2286"
       style="font-weight:bold;font-size:3.52778px;line-height:1.25;font-family:Futura;-inkscape-font-specification:'Futura Bold';stroke-width:0.264583"
       transform="translate(1.3907943,1.4680105)">
      <path
         d="m 53.70421,170.5536 h -0.821973 v 0.4445 h 0.776112 v 0.58561 h -0.776112 v 0.45861 h 0.821973 v 0.58561 h -1.513417 v -2.65995 h 1.513417 z"
         id="path8974" />
      <path
         d="m 54.142757,170.81818 h 0.638529 v 0.22225 q 0.261055,-0.25047 0.585611,-0.25047 0.402167,0 0.613834,0.33866 0.215194,-0.34219 0.613834,-0.34219 0.127,0 0.239889,0.0388 0.112889,0.0353 0.194028,0.11642 0.08114,0.0776 0.127,0.20461 0.04939,0.127 0.04939,0.30692 v 1.17475 h -0.638529 v -0.89253 q 0,-0.13758 -0.02117,-0.22578 -0.01764,-0.0882 -0.05644,-0.13758 -0.03528,-0.0494 -0.08467,-0.067 -0.04939,-0.0176 -0.105833,-0.0176 -0.306917,0 -0.306917,0.44803 v 0.89253 h -0.638528 v -0.89253 q 0,-0.13758 -0.01764,-0.22578 -0.01764,-0.0917 -0.05292,-0.14464 -0.03175,-0.0529 -0.08467,-0.0705 -0.05292,-0.0212 -0.123473,-0.0212 -0.05997,0 -0.112889,0.0176 -0.05292,0.0176 -0.09525,0.0706 -0.03881,0.0494 -0.0635,0.14111 -0.02117,0.0882 -0.02117,0.23283 v 0.89253 h -0.638529 z"
         id="path8976" />
      <path
         d="m 59.152042,171.72835 q 0,-0.0847 -0.03175,-0.15875 -0.02822,-0.0776 -0.08467,-0.13406 -0.05645,-0.0564 -0.134056,-0.0882 -0.07408,-0.0353 -0.162278,-0.0353 -0.08467,0 -0.15875,0.0317 -0.07408,0.0318 -0.130528,0.0882 -0.05292,0.0565 -0.08819,0.13406 -0.03175,0.0741 -0.03175,0.15875 0,0.0847 0.03175,0.15875 0.03175,0.0741 0.08819,0.13053 0.05644,0.0529 0.130528,0.0882 0.07761,0.0317 0.162278,0.0317 0.08467,0 0.15875,-0.0317 0.07408,-0.0318 0.127,-0.0882 0.05644,-0.0565 0.08819,-0.13053 0.03528,-0.0741 0.03528,-0.15522 z m -0.804333,1.80269 H 57.70918 v -2.71286 h 0.638529 v 0.20108 q 0.204611,-0.25753 0.557389,-0.25753 0.194028,0 0.359833,0.0776 0.169334,0.0741 0.292806,0.20461 0.123472,0.13052 0.1905,0.30691 0.07056,0.17639 0.07056,0.37748 0,0.20108 -0.07056,0.37394 -0.06703,0.17286 -0.1905,0.30339 -0.119944,0.13053 -0.28575,0.20461 -0.165806,0.0741 -0.359834,0.0741 -0.338667,0 -0.564444,-0.23283 z"
         id="path8978" />
      <path
         d="m 60.78871,171.71423 q 0,0.0917 0.03175,0.16934 0.03528,0.0741 0.08819,0.13053 0.05645,0.0564 0.130528,0.0882 0.07761,0.0317 0.162278,0.0317 0.08467,0 0.15875,-0.0317 0.07761,-0.0318 0.130528,-0.0882 0.05644,-0.0565 0.08819,-0.13053 0.03528,-0.0776 0.03528,-0.16581 0,-0.0847 -0.03528,-0.15875 -0.03175,-0.0776 -0.08819,-0.13405 -0.05292,-0.0565 -0.130528,-0.0882 -0.07408,-0.0317 -0.15875,-0.0317 -0.08467,0 -0.162278,0.0317 -0.07408,0.0317 -0.130528,0.0882 -0.05292,0.0564 -0.08819,0.13052 -0.03175,0.0741 -0.03175,0.15875 z m -0.673806,-0.007 q 0,-0.20108 0.08114,-0.37395 0.08114,-0.17638 0.225778,-0.30338 0.144639,-0.13053 0.342195,-0.20462 0.201084,-0.0741 0.437445,-0.0741 0.232833,0 0.430389,0.0741 0.201083,0.0706 0.345722,0.20109 0.148167,0.127 0.229306,0.30691 0.08114,0.17639 0.08114,0.39159 0,0.21519 -0.08467,0.39511 -0.08114,0.17639 -0.225778,0.30692 -0.144639,0.127 -0.34925,0.19755 -0.201083,0.0706 -0.437445,0.0706 -0.232833,0 -0.430389,-0.0706 -0.197555,-0.0705 -0.342194,-0.20108 -0.141112,-0.13053 -0.222251,-0.31045 -0.08114,-0.18344 -0.08114,-0.40569 z"
         id="path8980" />
      <path
         d="m 63.051943,170.81818 0.433917,0.9525 0.451556,-0.9525 h 0.402167 l 0.451556,0.98072 0.455083,-0.98072 h 0.709084 l -0.945445,1.80975 H 64.583 l -0.451556,-0.99131 -0.430389,0.99131 h -0.433917 l -0.927806,-1.80975 z"
         id="path8982" />
      <path
         d="m 67.412284,171.46023 q -0.03175,-0.13405 -0.130527,-0.21519 -0.09878,-0.0811 -0.239889,-0.0811 -0.148167,0 -0.243417,0.0776 -0.09172,0.0776 -0.116417,0.21872 z m -0.747889,0.37042 q 0,0.41275 0.388056,0.41275 0.208139,0 0.313972,-0.16933 h 0.617362 q -0.186973,0.62089 -0.934862,0.62089 -0.229306,0 -0.419806,-0.067 -0.1905,-0.0706 -0.328083,-0.19756 -0.134056,-0.127 -0.208139,-0.30339 -0.07408,-0.17638 -0.07408,-0.39511 0,-0.22577 0.07056,-0.40569 0.07056,-0.18345 0.201083,-0.31045 0.130528,-0.127 0.313973,-0.19402 0.186972,-0.0706 0.419806,-0.0706 0.229305,0 0.41275,0.0706 0.183444,0.067 0.310445,0.19755 0.127,0.13053 0.194027,0.32103 0.06703,0.18697 0.06703,0.42333 v 0.067 z"
         id="path8984" />
      <path
         d="m 68.371011,170.81818 h 0.638528 v 0.29633 q 0.102306,-0.16228 0.250472,-0.24694 0.148167,-0.0882 0.345723,-0.0882 0.02469,0 0.05292,0 0.03175,0 0.07055,0.007 v 0.6103 q -0.127,-0.0635 -0.275167,-0.0635 -0.22225,0 -0.335139,0.13406 -0.109361,0.13053 -0.109361,0.38453 v 0.77611 h -0.638528 z"
         id="path8986" />
    </g>
  </g>
</svg>
