<?xml version="1.0" encoding="UTF-8" standalone="no"?>
<!-- Created with Inkscape (http://www.inkscape.org/) -->

<svg
   width="20.32mm"
   height="128.5mm"
   viewBox="0 0 20.320002 128.50002"
   version="1.1"
   id="svg8"
   inkscape:version="1.1.2 (b8e25be8, 2022-02-05)"
   sodipodi:docname="Fork2.svg"
   xmlns:inkscape="http://www.inkscape.org/namespaces/inkscape"
   xmlns:sodipodi="http://sodipodi.sourceforge.net/DTD/sodipodi-0.dtd"
   xmlns="http://www.w3.org/2000/svg"
   xmlns:svg="http://www.w3.org/2000/svg"
   xmlns:rdf="http://www.w3.org/1999/02/22-rdf-syntax-ns#"
   xmlns:cc="http://creativecommons.org/ns#"
   xmlns:dc="http://purl.org/dc/elements/1.1/">
  <defs
     id="defs2">
    <rect
       x="-20.954651"
       y="233.72495"
       width="84.62455"
       height="149.1004"
       id="rect38922" />
  </defs>
  <sodipodi:namedview
     id="base"
     pagecolor="#ffffff"
     bordercolor="#666666"
     borderopacity="1.0"
     inkscape:pageopacity="0.0"
     inkscape:pageshadow="2"
     inkscape:zoom="4.5370551"
     inkscape:cx="25.457041"
     inkscape:cy="12.673419"
     inkscape:document-units="mm"
     inkscape:current-layer="layer1"
     showgrid="false"
     units="mm"
     inkscape:snap-bbox="true"
     inkscape:snap-page="true"
     inkscape:bbox-nodes="false"
     inkscape:snap-bbox-edge-midpoints="false"
     inkscape:window-width="1280"
     inkscape:window-height="674"
     inkscape:window-x="0"
     inkscape:window-y="25"
     inkscape:window-maximized="0"
     inkscape:snap-bbox-midpoints="true"
     inkscape:snap-nodes="true"
     inkscape:pagecheckerboard="1"
     showguides="true"
     inkscape:guide-bbox="true"
     width="30.48mm"
     fit-margin-top="0"
     fit-margin-left="0"
     fit-margin-right="0"
     fit-margin-bottom="0">
    <sodipodi:guide
       position="-34.109792,-1.051758e-05"
       orientation="0,-1"
       id="guide4988" />
    <sodipodi:guide
       position="-39.611381,1.4071043"
       orientation="0,-1"
       id="guide4990" />
    <sodipodi:guide
       position="-32.626217,7.4032193"
       orientation="0,-1"
       id="guide4992" />
    <sodipodi:guide
       position="-32.193508,8.9486098"
       orientation="0,-1"
       id="guide4994" />
  </sodipodi:namedview>
  <metadata
     id="metadata5">
    <rdf:RDF>
      <cc:Work
         rdf:about="">
        <dc:format>image/svg+xml</dc:format>
        <dc:type
           rdf:resource="http://purl.org/dc/dcmitype/StillImage" />
      </cc:Work>
    </rdf:RDF>
  </metadata>
  <g
     inkscape:label="Layer 1"
     inkscape:groupmode="layer"
     id="layer1"
     transform="translate(-50.799999,-168.49997)"
     style="display:inline">
    <rect
       style="display:inline;opacity:1;vector-effect:none;fill:#fdf2dd;fill-opacity:1;fill-rule:evenodd;stroke:none;stroke-width:0.530196;stroke-linecap:butt;stroke-linejoin:miter;stroke-miterlimit:4;stroke-dasharray:none;stroke-dashoffset:0;stroke-opacity:1;paint-order:normal"
       id="rect420"
       width="20.32"
       height="128.5"
       x="50.799999"
       y="168.49997" />
    <rect
       style="font-variation-settings:normal;display:inline;fill:#d2b48c;fill-opacity:1;stroke:none;stroke-width:2.43027;stroke-linecap:butt;stroke-linejoin:miter;stroke-miterlimit:4;stroke-dasharray:none;stroke-dashoffset:0;stroke-opacity:1;stop-color:#000000"
       id="rect643-9-3-8-9"
       width="20.32"
       height="114"
       x="50.799999"
       y="174.49998" />
    <g
       id="g4831"
       transform="matrix(0.01816436,7.0347027e-4,-6.8602665e-4,0.01862623,58.110604,289.59875)"
       style="fill:#1c0a00;fill-opacity:1">
      <path
         d="M 14.257,275.602 C -17.052,220.391 4.253,133.798 69.023,69.01 142.576,-4.533 244.279,-22.066 296.205,29.85 c 0.061,0.068 0.112,0.145 0.195,0.214 C 286.008,60.299 252.914,124.631 153.714,159.412 62.842,191.29 27.788,241.972 14.257,275.602 Z M 310.81,48.75 c -7.871,18.361 -21.57,42.356 -45.173,65.957 -23.725,23.735 -57.445,47.046 -105.208,63.8 C 63.49,212.5 36.405,268.149 28.848,295.116 c 0.357,0.36 0.664,0.733 1.011,1.083 51.921,51.918 153.628,34.386 227.176,-39.169 65.444,-65.445 86.491,-153.161 53.775,-208.28 z"
         id="path4829"
         style="fill:#1c0a00;fill-opacity:1" />
    </g>
    <g
       aria-label="Fork2"
       id="text5067"
       style="font-weight:bold;font-size:3.52777px;line-height:1.25;font-family:Futura;-inkscape-font-specification:'Futura Bold';stroke-width:0.264583">
      <path
         d="m 57.265818,171.3537 h -0.832554 v 0.44449 h 0.75847 v 0.58561 h -0.75847 v 1.04422 h -0.691443 v -2.65993 h 1.523997 z"
         id="path7204" />
      <path
         d="m 58.193347,172.51433 q 0,0.0917 0.03175,0.16933 0.03528,0.0741 0.08819,0.13053 0.05644,0.0565 0.130527,0.0882 0.07761,0.0318 0.162278,0.0318 0.08467,0 0.158749,-0.0318 0.07761,-0.0317 0.130528,-0.0882 0.05644,-0.0564 0.08819,-0.13053 0.03528,-0.0776 0.03528,-0.1658 0,-0.0847 -0.03528,-0.15875 -0.03175,-0.0776 -0.08819,-0.13406 -0.05292,-0.0564 -0.130528,-0.0882 -0.07408,-0.0318 -0.158749,-0.0318 -0.08467,0 -0.162278,0.0318 -0.07408,0.0317 -0.130527,0.0882 -0.05292,0.0564 -0.08819,0.13053 -0.03175,0.0741 -0.03175,0.15875 z m -0.673805,-0.007 q 0,-0.20109 0.08114,-0.37395 0.08114,-0.17639 0.225777,-0.30339 0.144639,-0.13052 0.342194,-0.20461 0.201083,-0.0741 0.437444,-0.0741 0.232832,0 0.430388,0.0741 0.201083,0.0706 0.345721,0.20109 0.148166,0.127 0.229305,0.30691 0.08114,0.17639 0.08114,0.39159 0,0.21519 -0.08467,0.39511 -0.08114,0.17638 -0.225777,0.30691 -0.144638,0.127 -0.349249,0.19756 -0.201083,0.0705 -0.437444,0.0705 -0.232832,0 -0.430388,-0.0705 -0.197555,-0.0706 -0.342193,-0.20109 -0.141111,-0.13052 -0.22225,-0.31044 -0.08114,-0.18344 -0.08114,-0.40569 z"
         id="path7206" />
      <path
         d="m 60.057111,171.61828 h 0.638526 v 0.29633 q 0.102305,-0.16228 0.250472,-0.24694 0.148166,-0.0882 0.345721,-0.0882 0.0247,0 0.05292,0 0.03175,0 0.07055,0.007 v 0.6103 q -0.127,-0.0635 -0.275166,-0.0635 -0.222249,0 -0.335138,0.13406 -0.109361,0.13053 -0.109361,0.38452 v 0.77611 h -0.638526 z"
         id="path7208" />
      <path
         d="m 62.337261,170.49998 v 1.77094 l 0.670277,-0.65264 h 0.874887 l -0.906637,0.83608 0.959553,0.97366 h -0.896053 l -0.702027,-0.7373 v 0.7373 h -0.638526 v -2.92804 z"
         id="path7210" />
      <path
         d="m 66.178178,173.42802 h -2.141357 l 0.659693,-0.68438 q 0.261055,-0.27164 0.409221,-0.45861 0.148167,-0.1905 0.218722,-0.32103 0.07408,-0.13053 0.09172,-0.21167 0.01764,-0.0811 0.01764,-0.13758 0,-0.06 -0.02117,-0.11642 -0.01764,-0.0564 -0.05644,-0.0988 -0.0388,-0.0459 -0.09525,-0.0706 -0.05292,-0.0282 -0.126999,-0.0282 -0.141111,0 -0.22225,0.0917 -0.07761,0.0917 -0.07761,0.22931 0,0.0388 0.01058,0.11288 h -0.754942 q 0,-0.23283 0.07408,-0.42333 0.07761,-0.1905 0.215194,-0.32808 0.137583,-0.13758 0.324555,-0.21167 0.190499,-0.0741 0.416277,-0.0741 0.222249,0 0.409221,0.0706 0.190499,0.0705 0.328082,0.19755 0.137584,0.127 0.215194,0.30339 0.07761,0.17286 0.07761,0.37747 0,0.21872 -0.09525,0.40569 -0.09172,0.18345 -0.296333,0.37748 l -0.440971,0.41274 h 0.860776 z"
         id="path7212" />
    </g>
  </g>
  <g
     id="layer2"
     inkscape:label="components"
     style="display:none"
     inkscape:groupmode="layer"
     transform="translate(-50.799999,1.0517578e-5)">
    <circle
       r="4"
       cy="12.91222"
       cx="8.5352678"
       id="circle4956-5"
       style="display:inline;vector-effect:none;fill:#00ff00;fill-opacity:1;fill-rule:evenodd;stroke:none;stroke-width:1;stroke-linecap:butt;stroke-linejoin:miter;stroke-miterlimit:4;stroke-dasharray:none;stroke-dashoffset:0;stroke-opacity:1;paint-order:normal"
       inkscape:label="trig" />
    <circle
       cy="27.299023"
       cx="8.5352678"
       id="circle4956-5-9"
       style="display:inline;vector-effect:none;fill:#00ff00;fill-opacity:1;fill-rule:evenodd;stroke:none;stroke-width:1;stroke-linecap:butt;stroke-linejoin:miter;stroke-miterlimit:4;stroke-dasharray:none;stroke-dashoffset:0;stroke-opacity:1;paint-order:normal"
       inkscape:label="reset"
       r="4" />
    <circle
       r="4"
       cy="12.91222"
       cx="22.103033"
       id="circle4956-5-8"
       style="display:inline;vector-effect:none;fill:#ff0000;fill-opacity:1;fill-rule:evenodd;stroke:none;stroke-width:1;stroke-linecap:butt;stroke-linejoin:miter;stroke-miterlimit:4;stroke-dasharray:none;stroke-dashoffset:0;stroke-opacity:1;paint-order:normal"
       inkscape:label="trig" />
    <circle
       r="4"
       cy="20.419849"
       cx="15.319"
       id="circle4956-5-8-6-1"
       style="display:inline;vector-effect:none;fill:#ff00ff;fill-opacity:1;fill-rule:evenodd;stroke:none;stroke-width:1;stroke-linecap:butt;stroke-linejoin:miter;stroke-miterlimit:4;stroke-dasharray:none;stroke-dashoffset:0;stroke-opacity:1;paint-order:normal"
       inkscape:label="led" />
    <circle
       cy="27.299023"
       cx="22.103031"
       id="circle4956-5-8-6-9"
       style="display:inline;vector-effect:none;fill:#ff0000;fill-opacity:1;fill-rule:evenodd;stroke:none;stroke-width:1;stroke-linecap:butt;stroke-linejoin:miter;stroke-miterlimit:4;stroke-dasharray:none;stroke-dashoffset:0;stroke-opacity:1;paint-order:normal"
       inkscape:label="reset"
       r="4" />
    <circle
       r="4"
       cy="114.28848"
       cx="15.204854"
       id="circle4956-5-8-6-9-0-8-0-9"
       style="display:inline;vector-effect:none;fill:#0000ff;fill-opacity:1;fill-rule:evenodd;stroke:none;stroke-width:1;stroke-linecap:butt;stroke-linejoin:miter;stroke-miterlimit:4;stroke-dasharray:none;stroke-dashoffset:0;stroke-opacity:1;paint-order:normal"
       inkscape:label="cv1" />
    <circle
       r="4"
       cy="124.21756"
       cx="23.93153"
       id="circle4956-5-8-6-9-0-8-0-9-1"
       style="display:inline;vector-effect:none;fill:#0000ff;fill-opacity:1;fill-rule:evenodd;stroke:none;stroke-width:1;stroke-linecap:butt;stroke-linejoin:miter;stroke-miterlimit:4;stroke-dasharray:none;stroke-dashoffset:0;stroke-opacity:1;paint-order:normal"
       inkscape:label="debug"
       inkscape:transform-center-x="11.353947"
       inkscape:transform-center-y="-1.1745462" />
    <text
       xml:space="preserve"
       transform="scale(0.26458333)"
       id="text38920"
       style="font-size:13.3333px;line-height:1.25;font-family:sans-serif;white-space:pre;shape-inside:url(#rect38922)" />
  </g>
  <g
     inkscape:groupmode="layer"
     id="layer4"
     inkscape:label="text"
     style="display:none"
     transform="translate(-50.799999,1.0517578e-5)">
    <text
       xml:space="preserve"
       style="font-size:2.82222px;line-height:1.25;font-family:sans-serif;display:inline;stroke-width:0.264583"
       x="18.195606"
       y="232.7735"
       id="text6846-1"
       transform="translate(0,-168.49998)"><tspan
         sodipodi:role="line"
         id="tspan6844-8"
         style="font-size:2.82222px;stroke-width:0.264583"
         x="18.195606"
         y="232.7735">Scale</tspan></text>
    <text
       xml:space="preserve"
       style="font-size:2.82222px;line-height:1.25;font-family:sans-serif;display:inline;stroke-width:0.264583"
       x="10.170201"
       y="7.6466718"
       id="text2854"><tspan
         sodipodi:role="line"
         id="tspan2852"
         style="font-size:2.82222px;stroke-width:0.264583"
         x="10.170201"
         y="7.6466718">Trigger</tspan></text>
    <text
       xml:space="preserve"
       style="font-size:2.82222px;line-height:1.25;font-family:sans-serif;display:inline;stroke-width:0.264583"
       x="9.0946426"
       y="21.618805"
       id="text4640"><tspan
         sodipodi:role="line"
         id="tspan4638"
         style="font-size:2.82222px;stroke-width:0.264583"
         x="9.0946426"
         y="21.618805">Duration</tspan></text>
    <text
       xml:space="preserve"
       style="font-size:2.82222px;line-height:1.25;font-family:sans-serif;display:inline;stroke-width:0.264583"
       x="11.437995"
       y="44.25565"
       id="text6846"><tspan
         sodipodi:role="line"
         id="tspan6844"
         style="font-size:2.82222px;stroke-width:0.264583"
         x="11.437995"
         y="44.25565">Scale</tspan></text>
    <text
       xml:space="preserve"
       style="font-size:2.82222px;line-height:1.25;font-family:sans-serif;display:inline;stroke-width:0.264583"
       x="17.70006"
       y="74.935951"
       id="text7620"><tspan
         sodipodi:role="line"
         id="tspan7618"
         style="font-size:2.82222px;stroke-width:0.264583"
         x="17.70006"
         y="74.935951">Offset</tspan></text>
    <text
       xml:space="preserve"
       style="font-size:2.82222px;line-height:1.25;font-family:sans-serif;display:inline;stroke-width:0.264583"
       x="18.002264"
       y="91.627129"
       id="text6846-1-0"><tspan
         sodipodi:role="line"
         id="tspan6844-8-1"
         style="font-size:2.82222px;stroke-width:0.264583"
         x="18.002264"
         y="91.627129">Scale</tspan></text>
    <text
       xml:space="preserve"
       style="font-size:2.82222px;line-height:1.25;font-family:sans-serif;display:inline;stroke-width:0.264583"
       x="17.506718"
       y="102.28955"
       id="text7620-6"><tspan
         sodipodi:role="line"
         id="tspan7618-4"
         style="font-size:2.82222px;stroke-width:0.264583"
         x="17.506718"
         y="102.28955">Offset</tspan></text>
    <text
       xml:space="preserve"
       style="font-size:2.82222px;line-height:1.25;font-family:sans-serif;display:inline;fill:#ffffff;stroke-width:0.264583"
       x="12.629997"
       y="117.94772"
       id="text8064"><tspan
         sodipodi:role="line"
         id="tspan8062"
         style="font-size:2.82222px;fill:#ffffff;stroke-width:0.264583"
         x="12.629997"
         y="117.94772">Out</tspan></text>
    <text
       xml:space="preserve"
       style="font-size:2.82222px;line-height:1.25;font-family:sans-serif;display:inline;fill:#fdf2dd;stroke-width:0.264583"
       x="21.172773"
       y="118.22488"
       id="text8064-8"><tspan
         sodipodi:role="line"
         id="tspan8062-3"
         style="font-size:2.82222px;fill:#fdf2dd;stroke-width:0.264583"
         x="21.172773"
         y="118.22488">EoC</tspan></text>
    <text
       xml:space="preserve"
       style="font-size:2.82222px;line-height:1.25;font-family:sans-serif;display:inline;stroke-width:0.264583"
       x="3.476352"
       y="56.58884"
       id="text8992"><tspan
         sodipodi:role="line"
         id="tspan8990"
         style="font-size:2.82222px;stroke-width:0.264583"
         x="3.476352"
         y="56.58884">Input 1</tspan></text>
    <text
       xml:space="preserve"
       style="font-size:2.82222px;line-height:1.25;font-family:sans-serif;display:inline;stroke-width:0.264583"
       x="3.476352"
       y="83.766579"
       id="text9700"><tspan
         sodipodi:role="line"
         id="tspan9698"
         style="font-size:2.82222px;stroke-width:0.264583"
         x="3.476352"
         y="83.766579">Input 2</tspan></text>
  </g>
  <g
     inkscape:groupmode="layer"
     id="layer5"
     inkscape:label="text path"
     style="display:none"
     transform="translate(-50.799999,1.0517578e-5)">
    <g
       aria-label="Travel"
       id="text75165"
       style="font-weight:500;font-size:3.52777px;line-height:1.25;font-family:Futura;-inkscape-font-specification:'Futura Medium';fill:#1c0a00;stroke-width:0.264583">
      <path
         d="M 10.848367,2.8537203 V 4.9280491 H 10.156924 V 2.8537203 H 9.5889531 V 2.2681105 h 1.8273849 v 0.5856098 z"
         style="font-weight:bold;-inkscape-font-specification:'Futura Bold';fill:#1c0a00"
         id="path80179" />
      <path
         d="m 11.588978,3.1183031 h 0.638527 v 0.2963326 q 0.102305,-0.1622774 0.250471,-0.2469439 0.148167,-0.088194 0.345722,-0.088194 0.02469,0 0.05292,0 0.03175,0 0.07056,0.00706 V 3.696862 q -0.127,-0.0635 -0.275166,-0.0635 -0.22225,0 -0.335138,0.1340552 -0.109361,0.1305275 -0.109361,0.384527 v 0.7761094 h -0.638527 z"
         style="font-weight:bold;-inkscape-font-specification:'Futura Bold';fill:#1c0a00"
         id="path80181" />
      <path
         d="m 13.843334,4.0178844 q 0,0.088194 0.03175,0.1658052 0.03175,0.074083 0.08467,0.1305275 0.05644,0.056444 0.130527,0.088194 0.07761,0.03175 0.165806,0.03175 0.08467,0 0.158749,-0.03175 0.07761,-0.03175 0.130528,-0.088194 0.05644,-0.056444 0.08819,-0.1305275 0.03528,-0.074083 0.03528,-0.1587496 0,-0.084666 -0.03528,-0.1587497 -0.03175,-0.077611 -0.08819,-0.1340553 -0.05292,-0.056444 -0.130528,-0.088194 -0.07408,-0.03175 -0.158749,-0.03175 -0.0882,0 -0.165806,0.03175 -0.07408,0.03175 -0.130527,0.088194 -0.05292,0.056444 -0.08467,0.1305275 -0.03175,0.070555 -0.03175,0.1552219 z m 0.804331,-0.8995813 h 0.642054 v 1.809746 H 14.647665 V 4.7269662 q -0.204611,0.2575272 -0.55386,0.2575272 -0.197555,0 -0.36336,-0.070555 Q 13.56464,4.8398548 13.441168,4.7093273 13.317696,4.5787999 13.24714,4.4024114 13.18011,4.2260228 13.18011,4.0178844 q 0,-0.1940273 0.06703,-0.3668881 0.06703,-0.1763885 0.186972,-0.306916 0.119944,-0.1305275 0.28575,-0.2046106 0.165805,-0.077611 0.366888,-0.077611 0.338666,0 0.560915,0.2363606 z"
         style="font-weight:bold;-inkscape-font-specification:'Futura Bold';fill:#1c0a00"
         id="path80183" />
      <path
         d="m 16.258034,3.1183031 0.430388,0.9278035 0.437443,-0.9278035 h 0.71261 L 16.89656,4.9280491 H 16.4697 l -0.931331,-1.809746 z"
         style="font-weight:bold;-inkscape-font-specification:'Futura Bold';fill:#1c0a00"
         id="path80185" />
      <path
         d="m 19.293797,3.7603572 q -0.03175,-0.1340553 -0.130528,-0.215194 -0.09878,-0.081139 -0.239888,-0.081139 -0.148167,0 -0.243416,0.077611 -0.09172,0.077611 -0.116417,0.2187217 z m -0.747888,0.3704159 q 0,0.4127491 0.388055,0.4127491 0.208138,0 0.313972,-0.169333 h 0.617359 q -0.186972,0.6208875 -0.934859,0.6208875 -0.229305,0 -0.419804,-0.067028 -0.1905,-0.070555 -0.328083,-0.1975551 -0.134055,-0.1269998 -0.208138,-0.3033883 -0.07408,-0.1763885 -0.07408,-0.3951102 0,-0.2257773 0.07056,-0.4056936 0.07055,-0.183444 0.201083,-0.3104437 0.130527,-0.1269997 0.313971,-0.1940274 0.186972,-0.070555 0.419805,-0.070555 0.229305,0 0.412749,0.070555 0.183444,0.067028 0.310444,0.1975551 Q 19.755942,3.449913 19.82297,3.6404126 19.89,3.8273844 19.89,4.063745 v 0.067028 z"
         style="font-weight:bold;-inkscape-font-specification:'Futura Bold';fill:#1c0a00"
         id="path80187" />
      <path
         d="M 20.891046,2 V 4.9280491 H 20.25252 V 2 Z"
         style="font-weight:bold;-inkscape-font-specification:'Futura Bold';fill:#1c0a00"
         id="path80189" />
    </g>
    <g
       aria-label="Trig"
       id="text83512"
       style="font-weight:500;font-size:2.82223px;line-height:1.25;font-family:Futura;-inkscape-font-specification:'Futura Medium';fill:#603601;stroke-width:0.264583">
      <path
         d="M 13.784099,8.3017913 V 10.127697 H 13.463015 V 8.3017913 H 12.97381 V 8.0000001 h 1.298115 v 0.3017912 z"
         id="path101547" />
      <path
         d="m 14.401461,8.785484 h 0.31006 v 0.1198897 q 0.08544,-0.089573 0.151584,-0.1226457 0.06752,-0.034451 0.159853,-0.034451 0.122646,0 0.256316,0.079926 L 15.137336,9.11208 q -0.08819,-0.06339 -0.172256,-0.06339 -0.253559,0 -0.253559,0.3830957 v 0.6959113 h -0.31006 z"
         id="path101549" />
      <path
         d="m 15.811887,8.785484 v 1.342213 H 15.501828 V 8.785484 Z M 15.454974,8.227377 q 0,-0.081304 0.05926,-0.1405603 0.05926,-0.059256 0.141939,-0.059256 0.08406,0 0.143316,0.059256 0.05926,0.057878 0.05926,0.1419384 0,0.08406 -0.05926,0.1433163 -0.05788,0.059256 -0.141938,0.059256 -0.08406,0 -0.143317,-0.059256 -0.05926,-0.059256 -0.05926,-0.1446944 z"
         id="path101551" />
      <path
         d="m 17.50619,10.096002 q 0,0.09508 -0.0069,0.166743 -0.0055,0.07304 -0.01654,0.128158 -0.03307,0.151585 -0.129536,0.26045 -0.181901,0.209462 -0.500229,0.209462 -0.268718,0 -0.442351,-0.144694 -0.179146,-0.148829 -0.206707,-0.412035 h 0.311438 q 0.01791,0.09922 0.05926,0.152963 0.09646,0.125402 0.28112,0.125402 0.340377,0 0.340377,-0.417547 V 9.9774904 q -0.184658,0.1887916 -0.425815,0.1887916 -0.274231,0 -0.449242,-0.1984379 -0.176389,-0.2011941 -0.176389,-0.5029853 0,-0.293523 0.163987,-0.4988512 0.176389,-0.2177307 0.465778,-0.2177307 0.25356,0 0.421681,0.1887918 V 8.785484 H 17.50619 Z M 17.208533,9.4593466 q 0,-0.195682 -0.104731,-0.3128155 -0.106109,-0.1198897 -0.271474,-0.1198897 -0.17639,0 -0.278365,0.130914 -0.09233,0.1171336 -0.09233,0.3031692 0,0.1832796 0.09233,0.3004132 0.100597,0.1281579 0.278365,0.1281579 0.177767,0 0.28112,-0.1295359 0.09508,-0.1171336 0.09508,-0.3004132 z"
         id="path101553" />
    </g>
    <text
       xml:space="preserve"
       style="font-weight:500;font-size:2.82223px;line-height:1.25;font-family:Futura;-inkscape-font-specification:'Futura Medium';display:inline;fill:#603601;stroke-width:0.264583"
       x="34.520641"
       y="47.665787"
       id="text83512-3"><tspan
         sodipodi:role="line"
         id="tspan83510-4"
         style="fill:#603601;stroke-width:0.264583"
         x="34.520641"
         y="47.665787">Trig</tspan></text>
    <g
       aria-label="Shape"
       id="text83512-3-9"
       style="font-weight:500;font-size:2.82223px;line-height:1.25;font-family:Futura;-inkscape-font-specification:'Futura Medium';display:inline;fill:#603601;stroke-width:0.264583">
      <path
         d="m 12.617586,43.516767 -0.26045,0.154341 q -0.07304,-0.12678 -0.139182,-0.165365 -0.0689,-0.0441 -0.177768,-0.0441 -0.13367,0 -0.221864,0.07579 -0.0882,0.07441 -0.0882,0.187414 0,0.155719 0.231511,0.250803 l 0.212218,0.08682 q 0.259072,0.104731 0.378962,0.256316 0.11989,0.150206 0.11989,0.369315 0,0.293523 -0.195682,0.485071 -0.19706,0.192926 -0.489205,0.192926 -0.276987,0 -0.45751,-0.163987 -0.177768,-0.163987 -0.221865,-0.461644 l 0.325218,-0.07166 q 0.02205,0.187413 0.07717,0.259071 0.09922,0.137805 0.289389,0.137805 0.150207,0 0.249426,-0.100597 0.09922,-0.100597 0.09922,-0.254938 0,-0.06201 -0.01792,-0.113 -0.01654,-0.05237 -0.05374,-0.09509 -0.03583,-0.0441 -0.09371,-0.0813 -0.05788,-0.03858 -0.137805,-0.07304 l -0.205328,-0.08544 q -0.436839,-0.184657 -0.436839,-0.540192 0,-0.23978 0.183279,-0.401011 0.18328,-0.162609 0.456132,-0.162609 0.367938,0 0.574644,0.358291 z"
         id="path91583" />
      <path
         d="m 13.003438,43.000002 h 0.310059 v 1.096921 q 0.165365,-0.148828 0.365181,-0.148828 0.227377,0 0.363803,0.14745 0.115756,0.128158 0.115756,0.409279 v 0.822691 h -0.31006 v -0.793753 q 0,-0.16123 -0.05788,-0.232889 -0.0565,-0.07304 -0.18328,-0.07304 -0.162609,0 -0.228755,0.100597 -0.06477,0.101975 -0.06477,0.350023 v 0.649058 h -0.310059 z"
         id="path91585" />
      <path
         d="m 15.541791,43.985302 h 0.311438 v 1.342213 h -0.311438 v -0.140561 q -0.191548,0.179146 -0.412035,0.179146 -0.278364,0 -0.460266,-0.201194 -0.180523,-0.205329 -0.180523,-0.512632 0,-0.301791 0.180523,-0.502985 0.180524,-0.201194 0.451998,-0.201194 0.234267,0 0.420303,0.192925 z m -0.735874,0.666972 q 0,0.192926 0.103353,0.314194 0.106109,0.122645 0.26734,0.122645 0.172255,0 0.278364,-0.118511 0.10611,-0.122646 0.10611,-0.311438 0,-0.188792 -0.10611,-0.311437 -0.106109,-0.11989 -0.275608,-0.11989 -0.159853,0 -0.26734,0.121268 -0.106109,0.122646 -0.106109,0.303169 z"
         id="path91587" />
      <path
         d="m 16.554652,46.057877 h -0.310059 v -2.072575 h 0.310059 v 0.146072 q 0.18328,-0.183279 0.416169,-0.183279 0.276986,0 0.456132,0.20395 0.181901,0.202572 0.181901,0.511253 0,0.301792 -0.180523,0.502986 -0.179146,0.199816 -0.451998,0.199816 -0.235645,0 -0.421681,-0.188792 z m 0.737253,-1.393201 q 0,-0.192925 -0.104732,-0.314193 -0.106109,-0.122646 -0.26734,-0.122646 -0.170877,0 -0.276986,0.118512 -0.106109,0.118511 -0.106109,0.311437 0,0.188792 0.106109,0.311438 0.104731,0.119889 0.275608,0.119889 0.161231,0 0.265962,-0.121267 0.107488,-0.121268 0.107488,-0.30317 z"
         id="path91589" />
      <path
         d="m 19.159151,44.729444 h -0.961873 q 0.0124,0.165365 0.107487,0.263206 0.09509,0.09646 0.243914,0.09646 0.115755,0 0.191548,-0.05512 0.07441,-0.05512 0.169499,-0.203951 l 0.261828,0.146073 q -0.06063,0.103353 -0.128158,0.177767 -0.06752,0.07304 -0.144695,0.121268 -0.07717,0.04685 -0.166743,0.0689 -0.08957,0.02205 -0.194304,0.02205 -0.300413,0 -0.482314,-0.192926 -0.181902,-0.194304 -0.181902,-0.515388 0,-0.318327 0.17639,-0.515388 0.177767,-0.194303 0.47129,-0.194303 0.296279,0 0.468534,0.188791 0.170877,0.187414 0.170877,0.519522 z m -0.318327,-0.253559 q -0.06477,-0.248048 -0.312816,-0.248048 -0.0565,0 -0.106109,0.01792 -0.04961,0.01654 -0.09095,0.04961 -0.03996,0.03169 -0.0689,0.07717 -0.02894,0.04548 -0.0441,0.103353 z"
         id="path91591" />
    </g>
    <g
       aria-label="Duration"
       id="text83512-3-4"
       style="font-weight:500;font-size:2.82223px;line-height:1.25;font-family:Futura;-inkscape-font-specification:'Futura Medium';display:inline;fill:#603601;stroke-width:0.264583"
       transform="translate(0,3.533405)">
      <path
         d="m 9.945562,21.594292 v -2.127697 h 0.446486 q 0.321083,0 0.507119,0.06339 0.199816,0.06201 0.362425,0.21084 0.329352,0.300413 0.329352,0.789618 0,0.490583 -0.343132,0.793752 -0.172256,0.151585 -0.361047,0.210841 -0.17639,0.05926 -0.50023,0.05926 z M 10.266646,21.2925 h 0.144694 q 0.216353,0 0.359669,-0.04547 0.143317,-0.04823 0.259072,-0.152963 0.237023,-0.216352 0.237023,-0.563619 0,-0.350022 -0.234267,-0.567753 -0.21084,-0.194304 -0.621497,-0.194304 h -0.144694 z"
         id="path88902" />
      <path
         d="m 12.246892,20.252079 v 0.770325 q 0,0.333486 0.263206,0.333486 0.263206,0 0.263206,-0.333486 v -0.770325 h 0.31006 v 0.777215 q 0,0.161231 -0.03996,0.278365 -0.03859,0.104731 -0.13367,0.188792 -0.157097,0.136426 -0.399633,0.136426 -0.241157,0 -0.398254,-0.136426 -0.09646,-0.08406 -0.136426,-0.188792 -0.03858,-0.09371 -0.03858,-0.278365 v -0.777215 z"
         id="path88904" />
      <path
         d="m 13.474728,20.252079 h 0.310059 v 0.119889 q 0.08544,-0.08957 0.151585,-0.122645 0.06752,-0.03445 0.159853,-0.03445 0.122645,0 0.256316,0.07993 l -0.141939,0.283877 q -0.08819,-0.06339 -0.172255,-0.06339 -0.25356,0 -0.25356,0.383095 v 0.695912 h -0.310059 z"
         id="path88906" />
      <path
         d="m 15.501828,20.252079 h 0.311437 v 1.342213 h -0.311437 v -0.140561 q -0.191548,0.179146 -0.412035,0.179146 -0.278364,0 -0.460266,-0.201194 -0.180524,-0.205329 -0.180524,-0.512632 0,-0.301791 0.180524,-0.502985 0.180523,-0.201194 0.451998,-0.201194 0.234267,0 0.420303,0.192925 z m -0.735875,0.666972 q 0,0.192926 0.103353,0.314194 0.10611,0.122645 0.26734,0.122645 0.172256,0 0.278365,-0.118511 0.106109,-0.122646 0.106109,-0.311438 0,-0.188791 -0.106109,-0.311437 -0.106109,-0.11989 -0.275608,-0.11989 -0.159853,0 -0.267341,0.121268 -0.106109,0.122646 -0.106109,0.303169 z"
         id="path88908" />
      <path
         d="m 16.522957,20.541468 v 1.052824 h -0.31006 v -1.052824 h -0.132292 v -0.289389 h 0.132292 v -0.491961 h 0.31006 v 0.491961 h 0.241157 v 0.289389 z"
         id="path88910" />
      <path
         d="m 17.285014,20.252079 v 1.342213 h -0.310059 v -1.342213 z m -0.356913,-0.558107 q 0,-0.08131 0.05926,-0.140561 0.05926,-0.05926 0.141938,-0.05926 0.08406,0 0.143317,0.05926 0.05926,0.05788 0.05926,0.141939 0,0.08406 -0.05926,0.143316 -0.05788,0.05926 -0.141939,0.05926 -0.08406,0 -0.143316,-0.05926 -0.05926,-0.05926 -0.05926,-0.144694 z"
         id="path88912" />
      <path
         d="m 17.617122,20.913539 q 0,-0.290767 0.208084,-0.494717 0.208085,-0.20395 0.50712,-0.20395 0.300413,0 0.509875,0.205328 0.206707,0.205328 0.206707,0.504363 0,0.301791 -0.208085,0.505742 -0.209462,0.202572 -0.514009,0.202572 -0.301792,0 -0.505742,-0.206706 -0.20395,-0.203951 -0.20395,-0.512632 z m 0.31695,0.0055 q 0,0.201194 0.107487,0.318328 0.110243,0.118511 0.290767,0.118511 0.181901,0 0.290767,-0.117133 0.108865,-0.117134 0.108865,-0.312816 0,-0.195682 -0.108865,-0.312815 -0.110244,-0.118512 -0.290767,-0.118512 -0.177768,0 -0.288011,0.118512 -0.110243,0.118511 -0.110243,0.305925 z"
         id="path88914" />
      <path
         d="m 19.37826,20.252079 h 0.311438 v 0.124024 q 0.162609,-0.161231 0.366559,-0.161231 0.234267,0 0.365181,0.14745 0.112999,0.125402 0.112999,0.409279 v 0.822691 H 20.223 v -0.749655 q 0,-0.198438 -0.05512,-0.274231 -0.05374,-0.07717 -0.195682,-0.07717 -0.154341,0 -0.219109,0.101975 -0.06339,0.100597 -0.06339,0.351401 v 0.64768 H 19.37826 Z"
         id="path88916" />
    </g>
    <g
       aria-label="In2"
       id="text115964-9-0"
       style="font-weight:500;font-size:2.82223px;line-height:1.25;font-family:Futura;-inkscape-font-specification:'Futura Medium';display:inline;fill:#603601;stroke-width:0.264583"
       transform="translate(15.244244,-176.49999)">
      <path
         d="m 5.7495259,239.53582 v 2.12769 H 5.4284421 v -2.12769 z"
         id="path126335" />
      <path
         d="m 6.2015237,240.3213 h 0.3114375 v 0.12402 q 0.162609,-0.16123 0.3665592,-0.16123 0.2342671,0 0.3651811,0.14745 0.1129995,0.12541 0.1129995,0.40928 v 0.82269 H 7.0462635 v -0.74965 q 0,-0.19844 -0.055122,-0.27423 -0.053744,-0.0772 -0.195682,-0.0772 -0.1543407,0 -0.2191087,0.10197 -0.06339,0.1006 -0.06339,0.3514 v 0.64768 H 6.2015237 Z"
         id="path126337" />
      <path
         d="m 8.2616965,241.36172 h 0.7923742 v 0.30179 H 7.6250411 l 0.7386305,-0.89435 q 0.1088653,-0.13367 0.1819016,-0.23151 0.074414,-0.0978 0.1129994,-0.16398 0.078548,-0.12954 0.078548,-0.23289 0,-0.14883 -0.1047312,-0.24943 -0.1047312,-0.1006 -0.2590719,-0.1006 -0.3224618,0 -0.3693153,0.38172 H 7.6842969 q 0.07717,-0.67248 0.6793747,-0.67248 0.2907669,0 0.4878269,0.18465 0.198438,0.18466 0.198438,0.45751 0,0.17364 -0.092329,0.34038 -0.046853,0.0868 -0.1378042,0.20671 -0.089573,0.11851 -0.2273769,0.28112 z"
         id="path126339" />
    </g>
    <g
       aria-label="In1"
       id="text115964-9-8"
       style="font-weight:500;font-size:2.82223px;line-height:1.25;font-family:Futura;-inkscape-font-specification:'Futura Medium';display:inline;fill:#603601;stroke-width:0.264583"
       transform="translate(-0.22377861,-140.49997)">
      <path
         d="m 7.1863317,203.49997 v 2.1277 H 6.8652479 v -2.1277 z"
         id="path126203" />
      <path
         d="m 7.6383294,204.28546 h 0.3114375 v 0.12402 q 0.162609,-0.16123 0.3665592,-0.16123 0.2342672,0 0.3651812,0.14745 0.1129994,0.1254 0.1129994,0.40928 v 0.82269 H 8.4830692 v -0.74965 q 0,-0.19844 -0.055122,-0.27423 -0.053744,-0.0772 -0.195682,-0.0772 -0.1543407,0 -0.2191086,0.10198 -0.06339,0.1006 -0.06339,0.3514 v 0.64768 H 7.6383294 Z"
         id="path126205" />
      <path
         d="M 9.75638,203.80039 H 9.3884428 l 0.1763893,-0.30042 h 0.5126319 v 2.1277 H 9.75638 Z"
         id="path126207" />
    </g>
    <g
       aria-label="Out"
       id="text83512-3-1"
       style="font-weight:500;font-size:2.82223px;line-height:1.25;font-family:Futura;-inkscape-font-specification:'Futura Medium';display:inline;fill:#fdf2dd;stroke-width:0.264583"
       transform="translate(0,-168.49998)">
      <path
         d="m 5.9241982,286.59414 q 0,-0.44924 0.329352,-0.77171 0.327974,-0.32246 0.7882401,-0.32246 0.4547539,0 0.7799718,0.32522 0.3265959,0.32522 0.3265959,0.78135 0,0.45889 -0.327974,0.77859 -0.329352,0.32109 -0.7951302,0.32109 -0.4120346,0 -0.7400086,-0.28526 -0.361047,-0.31557 -0.361047,-0.82682 z m 0.3238399,0.004 q 0,0.35278 0.2370232,0.58016 0.2356452,0.22738 0.5443266,0.22738 0.3348642,0 0.5649972,-0.23152 0.2301331,-0.23426 0.2301331,-0.57051 0,-0.34037 -0.227377,-0.5705 -0.2259989,-0.23152 -0.559485,-0.23152 -0.3321082,0 -0.5608632,0.23152 -0.2287549,0.22875 -0.2287549,0.56499 z"
         id="path101410" />
      <path
         d="m 8.8056842,286.32542 v 0.77033 q 0,0.33348 0.263206,0.33348 0.263206,0 0.263206,-0.33348 v -0.77033 h 0.3100595 v 0.77722 q 0,0.16123 -0.039963,0.27836 -0.038585,0.10473 -0.1336701,0.18879 -0.1570968,0.13643 -0.3996322,0.13643 -0.2411574,0 -0.3982542,-0.13643 -0.096463,-0.0841 -0.1364261,-0.18879 -0.038585,-0.0937 -0.038585,-0.27836 v -0.77722 z"
         id="path101412" />
      <path
         d="m 10.353225,286.61481 v 1.05282 h -0.310059 v -1.05282 H 9.9108739 v -0.28939 h 0.1322921 v -0.49196 h 0.310059 v 0.49196 h 0.241158 v 0.28939 z"
         id="path101414" />
    </g>
    <g
       aria-label="EoC"
       id="text83512-3-7"
       style="font-weight:500;font-size:2.82223px;line-height:1.25;font-family:Futura;-inkscape-font-specification:'Futura Medium';display:inline;fill:#fdf2dd;stroke-width:0.264583"
       transform="translate(0,-168.49998)">
      <path
         d="m 21.225281,285.8431 h -0.853008 v 0.51125 h 0.828203 v 0.3018 h -0.828203 v 0.71107 h 0.853008 v 0.30179 h -1.174092 v -2.1277 h 1.174092 z"
         id="path101417" />
      <path
         d="m 21.527072,286.98825 q 0,-0.29076 0.208084,-0.49471 0.208085,-0.20395 0.50712,-0.20395 0.300413,0 0.509875,0.20532 0.206707,0.20533 0.206707,0.50437 0,0.30179 -0.208085,0.50574 -0.209462,0.20257 -0.514009,0.20257 -0.301791,0 -0.505742,-0.2067 -0.20395,-0.20396 -0.20395,-0.51264 z m 0.31695,0.006 q 0,0.20119 0.107487,0.31832 0.110243,0.11852 0.290767,0.11852 0.181901,0 0.290767,-0.11714 0.108865,-0.11713 0.108865,-0.31281 0,-0.19569 -0.108865,-0.31282 -0.110244,-0.11851 -0.290767,-0.11851 -0.177768,0 -0.288011,0.11851 -0.110243,0.11851 -0.110243,0.30593 z"
         id="path101419" />
      <path
         d="m 24.919812,285.65569 v 0.38034 q -0.278365,-0.23289 -0.576022,-0.23289 -0.327974,0 -0.552595,0.23564 -0.225999,0.23427 -0.225999,0.57327 0,0.33486 0.225999,0.565 0.225999,0.23013 0.553973,0.23013 0.169499,0 0.288011,-0.0551 0.06615,-0.0276 0.136426,-0.0744 0.07166,-0.0469 0.150207,-0.113 v 0.38723 q -0.275609,0.15572 -0.578778,0.15572 -0.456132,0 -0.778594,-0.31833 -0.321084,-0.32108 -0.321084,-0.77446 0,-0.40652 0.268719,-0.72485 0.33073,-0.38998 0.855764,-0.38998 0.286632,0 0.553973,0.15572 z"
         id="path101421" />
    </g>
  </g>
</svg>
