<?xml version="1.0" encoding="UTF-8" standalone="no"?>
<!-- Created with Inkscape (http://www.inkscape.org/) -->

<svg
   sodipodi:docname="HiLo.svg"
   id="svg14904"
   version="1.1"
   viewBox="0 0 10.16 128.5"
   height="128.5mm"
   width="10.16mm"
   inkscape:version="1.1.2 (b8e25be8, 2022-02-05)"
   xmlns:inkscape="http://www.inkscape.org/namespaces/inkscape"
   xmlns:sodipodi="http://sodipodi.sourceforge.net/DTD/sodipodi-0.dtd"
   xmlns="http://www.w3.org/2000/svg"
   xmlns:svg="http://www.w3.org/2000/svg">
  <sodipodi:namedview
     id="namedview14906"
     pagecolor="#ffffff"
     bordercolor="#111111"
     borderopacity="1"
     inkscape:pageshadow="0"
     inkscape:pageopacity="0"
     inkscape:pagecheckerboard="1"
     inkscape:document-units="mm"
     showgrid="false"
     inkscape:zoom="1.5522653"
     inkscape:cx="-4.1874285"
     inkscape:cy="-46.061714"
     inkscape:window-width="1280"
     inkscape:window-height="674"
     inkscape:window-x="0"
     inkscape:window-y="25"
     inkscape:window-maximized="0"
     inkscape:current-layer="layer1"
     fit-margin-top="0"
     fit-margin-left="0"
     fit-margin-right="0"
     fit-margin-bottom="0" />
  <defs
     id="defs14901" />
  <g
     inkscape:label="Layer 1"
     inkscape:groupmode="layer"
     id="layer1"
     transform="translate(-2.54)">
    <rect
       style="display:inline;vector-effect:none;fill:#fdf2dd;fill-opacity:1;fill-rule:evenodd;stroke:none;stroke-width:0.374907;stroke-linecap:butt;stroke-linejoin:miter;stroke-miterlimit:4;stroke-dasharray:none;stroke-dashoffset:0;stroke-opacity:1;paint-order:normal"
       id="rect420"
       width="10.16"
       height="128.5"
       x="2.54"
       y="0" />
    <rect
       style="font-variation-settings:normal;display:inline;fill:#d2b48c;fill-opacity:1;stroke:none;stroke-width:1.71847;stroke-linecap:butt;stroke-linejoin:miter;stroke-miterlimit:4;stroke-dasharray:none;stroke-dashoffset:0;stroke-opacity:1;stop-color:#000000"
       id="rect643-9-3-8"
       width="10.16"
       height="114"
       x="2.54"
       y="6" />
    <g
       id="g4831"
       transform="matrix(0.01816436,7.0347027e-4,-6.8602665e-4,0.01862623,4.770605,121.09877)"
       style="display:inline;fill:#1c0a00;fill-opacity:1">
      <path
         d="M 14.257,275.602 C -17.052,220.391 4.253,133.798 69.023,69.01 142.576,-4.533 244.279,-22.066 296.205,29.85 c 0.061,0.068 0.112,0.145 0.195,0.214 C 286.008,60.299 252.914,124.631 153.714,159.412 62.842,191.29 27.788,241.972 14.257,275.602 Z M 310.81,48.75 c -7.871,18.361 -21.57,42.356 -45.173,65.957 -23.725,23.735 -57.445,47.046 -105.208,63.8 C 63.49,212.5 36.405,268.149 28.848,295.116 c 0.357,0.36 0.664,0.733 1.011,1.083 51.921,51.918 153.628,34.386 227.176,-39.169 65.444,-65.445 86.491,-153.161 53.775,-208.28 z"
         id="path4829"
         style="fill:#1c0a00;fill-opacity:1" />
    </g>
    <g
       aria-label="HiLo"
       id="text3032"
       style="font-weight:bold;font-size:2.82222px;line-height:1.25;font-family:Futura;-inkscape-font-specification:'Futura Bold';stroke-width:0.264583">
      <path
         d="M 4.9996785,2.9849548 H 5.7983668 V 2.1636887 h 0.5531551 v 2.127954 H 5.7983668 V 3.4139322 H 4.9996785 V 4.2916427 H 4.4465233 v -2.127954 h 0.5531552 z"
         id="path5720" />
      <path
         d="M 7.263055,2.8438438 V 4.2916427 H 6.7522331 V 2.8438438 Z M 6.7183665,2.2878664 q 0,-0.059267 0.022578,-0.1100666 0.022578,-0.053622 0.062089,-0.093133 0.039511,-0.039511 0.090311,-0.062089 Q 6.9469663,2 7.0062329,2 q 0.059267,0 0.1100666,0.022578 0.053622,0.022578 0.093133,0.062089 0.039511,0.039511 0.062089,0.093133 0.022578,0.0508 0.022578,0.1100666 0,0.059267 -0.022578,0.1128888 -0.022578,0.0508 -0.062089,0.090311 -0.039511,0.039511 -0.093133,0.062089 -0.0508,0.022578 -0.1100666,0.022578 -0.059267,0 -0.1128888,-0.022578 -0.0508,-0.022578 -0.090311,-0.062089 Q 6.763522,2.4515552 6.7409443,2.4007552 6.7183665,2.347133 6.7183665,2.2878664 Z"
         id="path5722" />
      <path
         d="M 8.2132612,2.1636887 V 3.8231541 H 8.876483 V 4.2916427 H 7.6601061 v -2.127954 z"
         id="path5724" />
      <path
         d="m 9.5940325,3.5606877 q 0,0.073378 0.0254,0.1354665 0.028222,0.059267 0.070555,0.1044222 0.045155,0.045155 0.1044222,0.070555 0.062089,0.0254 0.1298221,0.0254 0.067733,0 0.1270002,-0.0254 0.06209,-0.0254 0.104422,-0.070555 0.04516,-0.045156 0.07056,-0.1044222 0.02822,-0.062089 0.02822,-0.1326443 0,-0.067733 -0.02822,-0.1269999 -0.0254,-0.062089 -0.07056,-0.1072444 -0.04233,-0.045155 -0.104422,-0.070555 -0.059267,-0.0254 -0.1270002,-0.0254 -0.067733,0 -0.1298221,0.0254 -0.059267,0.0254 -0.1044222,0.070555 -0.042333,0.045156 -0.070555,0.1044222 -0.0254,0.059267 -0.0254,0.1269999 z m -0.539044,-0.00564 q 0,-0.1608665 0.064911,-0.2991553 0.064911,-0.141111 0.180622,-0.2427109 0.1157111,-0.1044222 0.2737554,-0.1636888 0.1608665,-0.059267 0.3499553,-0.059267 0.1862668,0 0.3443108,0.059267 0.160867,0.056444 0.276578,0.1608665 0.118533,0.1016 0.183444,0.2455332 0.06491,0.141111 0.06491,0.3132664 0,0.1721554 -0.06773,0.3160887 -0.06491,0.141111 -0.180622,0.2455331 -0.115711,0.1015999 -0.2794,0.1580443 -0.160867,0.056444 -0.3499555,0.056444 -0.1862665,0 -0.3443108,-0.056444 Q 9.4134104,4.232376 9.2976994,4.1279539 9.1848106,4.0235318 9.1198996,3.8795985 9.0549885,3.7328431 9.0549885,3.5550432 Z"
         id="path5726" />
    </g>
  </g>
  <g
     inkscape:groupmode="layer"
     id="layer2"
     inkscape:label="Grid"
     style="display:none"
     transform="translate(-2.54)">
    <g
       inkscape:label="GridCartesian:X1:Y13"
       transform="translate(0.1322915,0.1322915)"
       id="g23277">
      <g
         inkscape:label="MajorXGridlines"
         id="g23141" />
      <g
         inkscape:label="MajorYGridlines"
         id="g23167">
        <path
           style="fill:none;stroke:#000000;stroke-width:0.264583"
           d="M 0,10 H 15.24"
           inkscape:label="MajorYDiv1"
           id="path23143" />
        <path
           style="fill:none;stroke:#000000;stroke-width:0.264583"
           d="M 0,20 H 15.24"
           inkscape:label="MajorYDiv2"
           id="path23145" />
        <path
           style="fill:none;stroke:#000000;stroke-width:0.264583"
           d="M 0,30 H 15.24"
           inkscape:label="MajorYDiv3"
           id="path23147" />
        <path
           style="fill:none;stroke:#000000;stroke-width:0.264583"
           d="M 0,40 H 15.24"
           inkscape:label="MajorYDiv4"
           id="path23149" />
        <path
           style="fill:none;stroke:#000000;stroke-width:0.264583"
           d="M 0,50 H 15.24"
           inkscape:label="MajorYDiv5"
           id="path23151" />
        <path
           style="fill:none;stroke:#000000;stroke-width:0.264583"
           d="M 0,60 H 15.24"
           inkscape:label="MajorYDiv6"
           id="path23153" />
        <path
           style="fill:none;stroke:#000000;stroke-width:0.264583"
           d="M 0,70 H 15.24"
           inkscape:label="MajorYDiv7"
           id="path23155" />
        <path
           style="fill:none;stroke:#000000;stroke-width:0.264583"
           d="M 0,80 H 15.24"
           inkscape:label="MajorYDiv8"
           id="path23157" />
        <path
           style="fill:none;stroke:#000000;stroke-width:0.264583"
           d="M 0,90 H 15.24"
           inkscape:label="MajorYDiv9"
           id="path23159" />
        <path
           style="fill:none;stroke:#000000;stroke-width:0.264583"
           d="M 0,100 H 15.24"
           inkscape:label="MajorYDiv10"
           id="path23161" />
        <path
           style="fill:none;stroke:#000000;stroke-width:0.264583"
           d="M 0,110 H 15.24"
           inkscape:label="MajorYDiv11"
           id="path23163" />
        <path
           style="fill:none;stroke:#000000;stroke-width:0.264583"
           d="M 0,120 H 15.24"
           inkscape:label="MajorYDiv12"
           id="path23165" />
      </g>
      <g
         inkscape:label="SubMinorYGridlines"
         id="g23273">
        <path
           style="fill:none;stroke:#000000;stroke-width:0.079375"
           d="M 0,2 H 15.24"
           inkscape:label="SubminorXDiv0:0:1"
           id="path23169" />
        <path
           style="fill:none;stroke:#000000;stroke-width:0.079375"
           d="M 0,4 H 15.24"
           inkscape:label="SubminorXDiv0:0:2"
           id="path23171" />
        <path
           style="fill:none;stroke:#000000;stroke-width:0.079375"
           d="M 0,6 H 15.24"
           inkscape:label="SubminorXDiv0:0:3"
           id="path23173" />
        <path
           style="fill:none;stroke:#000000;stroke-width:0.079375"
           d="M 0,8 H 15.24"
           inkscape:label="SubminorXDiv0:0:4"
           id="path23175" />
        <path
           style="fill:none;stroke:#000000;stroke-width:0.079375"
           d="M 0,12 H 15.24"
           inkscape:label="SubminorXDiv1:0:1"
           id="path23177" />
        <path
           style="fill:none;stroke:#000000;stroke-width:0.079375"
           d="M 0,14 H 15.24"
           inkscape:label="SubminorXDiv1:0:2"
           id="path23179" />
        <path
           style="fill:none;stroke:#000000;stroke-width:0.079375"
           d="M 0,16 H 15.24"
           inkscape:label="SubminorXDiv1:0:3"
           id="path23181" />
        <path
           style="fill:none;stroke:#000000;stroke-width:0.079375"
           d="M 0,18 H 15.24"
           inkscape:label="SubminorXDiv1:0:4"
           id="path23183" />
        <path
           style="fill:none;stroke:#000000;stroke-width:0.079375"
           d="M 0,22 H 15.24"
           inkscape:label="SubminorXDiv2:0:1"
           id="path23185" />
        <path
           style="fill:none;stroke:#000000;stroke-width:0.079375"
           d="M 0,24 H 15.24"
           inkscape:label="SubminorXDiv2:0:2"
           id="path23187" />
        <path
           style="fill:none;stroke:#000000;stroke-width:0.079375"
           d="M 0,26 H 15.24"
           inkscape:label="SubminorXDiv2:0:3"
           id="path23189" />
        <path
           style="fill:none;stroke:#000000;stroke-width:0.079375"
           d="M 0,28 H 15.24"
           inkscape:label="SubminorXDiv2:0:4"
           id="path23191" />
        <path
           style="fill:none;stroke:#000000;stroke-width:0.079375"
           d="M 0,32 H 15.24"
           inkscape:label="SubminorXDiv3:0:1"
           id="path23193" />
        <path
           style="fill:none;stroke:#000000;stroke-width:0.079375"
           d="M 0,34 H 15.24"
           inkscape:label="SubminorXDiv3:0:2"
           id="path23195" />
        <path
           style="fill:none;stroke:#000000;stroke-width:0.079375"
           d="M 0,36 H 15.24"
           inkscape:label="SubminorXDiv3:0:3"
           id="path23197" />
        <path
           style="fill:none;stroke:#000000;stroke-width:0.079375"
           d="M 0,38 H 15.24"
           inkscape:label="SubminorXDiv3:0:4"
           id="path23199" />
        <path
           style="fill:none;stroke:#000000;stroke-width:0.079375"
           d="M 0,42 H 15.24"
           inkscape:label="SubminorXDiv4:0:1"
           id="path23201" />
        <path
           style="fill:none;stroke:#000000;stroke-width:0.079375"
           d="M 0,44 H 15.24"
           inkscape:label="SubminorXDiv4:0:2"
           id="path23203" />
        <path
           style="fill:none;stroke:#000000;stroke-width:0.079375"
           d="M 0,46 H 15.24"
           inkscape:label="SubminorXDiv4:0:3"
           id="path23205" />
        <path
           style="fill:none;stroke:#000000;stroke-width:0.079375"
           d="M 0,48 H 15.24"
           inkscape:label="SubminorXDiv4:0:4"
           id="path23207" />
        <path
           style="fill:none;stroke:#000000;stroke-width:0.079375"
           d="M 0,52 H 15.24"
           inkscape:label="SubminorXDiv5:0:1"
           id="path23209" />
        <path
           style="fill:none;stroke:#000000;stroke-width:0.079375"
           d="M 0,54 H 15.24"
           inkscape:label="SubminorXDiv5:0:2"
           id="path23211" />
        <path
           style="fill:none;stroke:#000000;stroke-width:0.079375"
           d="M 0,56 H 15.24"
           inkscape:label="SubminorXDiv5:0:3"
           id="path23213" />
        <path
           style="fill:none;stroke:#000000;stroke-width:0.079375"
           d="M 0,58 H 15.24"
           inkscape:label="SubminorXDiv5:0:4"
           id="path23215" />
        <path
           style="fill:none;stroke:#000000;stroke-width:0.079375"
           d="M 0,62 H 15.24"
           inkscape:label="SubminorXDiv6:0:1"
           id="path23217" />
        <path
           style="fill:none;stroke:#000000;stroke-width:0.079375"
           d="M 0,64 H 15.24"
           inkscape:label="SubminorXDiv6:0:2"
           id="path23219" />
        <path
           style="fill:none;stroke:#000000;stroke-width:0.079375"
           d="M 0,66 H 15.24"
           inkscape:label="SubminorXDiv6:0:3"
           id="path23221" />
        <path
           style="fill:none;stroke:#000000;stroke-width:0.079375"
           d="M 0,68 H 15.24"
           inkscape:label="SubminorXDiv6:0:4"
           id="path23223" />
        <path
           style="fill:none;stroke:#000000;stroke-width:0.079375"
           d="M 0,72 H 15.24"
           inkscape:label="SubminorXDiv7:0:1"
           id="path23225" />
        <path
           style="fill:none;stroke:#000000;stroke-width:0.079375"
           d="M 0,74 H 15.24"
           inkscape:label="SubminorXDiv7:0:2"
           id="path23227" />
        <path
           style="fill:none;stroke:#000000;stroke-width:0.079375"
           d="M 0,76 H 15.24"
           inkscape:label="SubminorXDiv7:0:3"
           id="path23229" />
        <path
           style="fill:none;stroke:#000000;stroke-width:0.079375"
           d="M 0,78 H 15.24"
           inkscape:label="SubminorXDiv7:0:4"
           id="path23231" />
        <path
           style="fill:none;stroke:#000000;stroke-width:0.079375"
           d="M 0,82 H 15.24"
           inkscape:label="SubminorXDiv8:0:1"
           id="path23233" />
        <path
           style="fill:none;stroke:#000000;stroke-width:0.079375"
           d="M 0,84 H 15.24"
           inkscape:label="SubminorXDiv8:0:2"
           id="path23235" />
        <path
           style="fill:none;stroke:#000000;stroke-width:0.079375"
           d="M 0,86 H 15.24"
           inkscape:label="SubminorXDiv8:0:3"
           id="path23237" />
        <path
           style="fill:none;stroke:#000000;stroke-width:0.079375"
           d="M 0,88 H 15.24"
           inkscape:label="SubminorXDiv8:0:4"
           id="path23239" />
        <path
           style="fill:none;stroke:#000000;stroke-width:0.079375"
           d="M 0,92 H 15.24"
           inkscape:label="SubminorXDiv9:0:1"
           id="path23241" />
        <path
           style="fill:none;stroke:#000000;stroke-width:0.079375"
           d="M 0,94 H 15.24"
           inkscape:label="SubminorXDiv9:0:2"
           id="path23243" />
        <path
           style="fill:none;stroke:#000000;stroke-width:0.079375"
           d="M 0,96 H 15.24"
           inkscape:label="SubminorXDiv9:0:3"
           id="path23245" />
        <path
           style="fill:none;stroke:#000000;stroke-width:0.079375"
           d="M 0,98 H 15.24"
           inkscape:label="SubminorXDiv9:0:4"
           id="path23247" />
        <path
           style="fill:none;stroke:#000000;stroke-width:0.079375"
           d="M 0,102 H 15.24"
           inkscape:label="SubminorXDiv10:0:1"
           id="path23249" />
        <path
           style="fill:none;stroke:#000000;stroke-width:0.079375"
           d="M 0,104 H 15.24"
           inkscape:label="SubminorXDiv10:0:2"
           id="path23251" />
        <path
           style="fill:none;stroke:#000000;stroke-width:0.079375"
           d="M 0,106 H 15.24"
           inkscape:label="SubminorXDiv10:0:3"
           id="path23253" />
        <path
           style="fill:none;stroke:#000000;stroke-width:0.079375"
           d="M 0,108 H 15.24"
           inkscape:label="SubminorXDiv10:0:4"
           id="path23255" />
        <path
           style="fill:none;stroke:#000000;stroke-width:0.079375"
           d="M 0,112 H 15.24"
           inkscape:label="SubminorXDiv11:0:1"
           id="path23257" />
        <path
           style="fill:none;stroke:#000000;stroke-width:0.079375"
           d="M 0,114 H 15.24"
           inkscape:label="SubminorXDiv11:0:2"
           id="path23259" />
        <path
           style="fill:none;stroke:#000000;stroke-width:0.079375"
           d="M 0,116 H 15.24"
           inkscape:label="SubminorXDiv11:0:3"
           id="path23261" />
        <path
           style="fill:none;stroke:#000000;stroke-width:0.079375"
           d="M 0,118 H 15.24"
           inkscape:label="SubminorXDiv11:0:4"
           id="path23263" />
        <path
           style="fill:none;stroke:#000000;stroke-width:0.079375"
           d="M 0,122 H 15.24"
           inkscape:label="SubminorXDiv12:0:1"
           id="path23265" />
        <path
           style="fill:none;stroke:#000000;stroke-width:0.079375"
           d="M 0,124 H 15.24"
           inkscape:label="SubminorXDiv12:0:2"
           id="path23267" />
        <path
           style="fill:none;stroke:#000000;stroke-width:0.079375"
           d="M 0,126 H 15.24"
           inkscape:label="SubminorXDiv12:0:3"
           id="path23269" />
        <path
           style="fill:none;stroke:#000000;stroke-width:0.079375"
           d="M 0,128 H 15.24"
           inkscape:label="SubminorXDiv12:0:4"
           id="path23271" />
      </g>
      <rect
         x="0"
         y="0"
         width="15.24"
         height="130"
         style="fill:none;stroke:#000000;stroke-width:0.264583"
         inkscape:label="Border"
         id="rect23275" />
    </g>
  </g>
  <g
     id="layer4"
     inkscape:label="components"
     style="display:none"
     transform="translate(-2.54)">
    <circle
       style="display:inline;vector-effect:none;fill:#ff0000;fill-opacity:1;fill-rule:evenodd;stroke:none;stroke-width:1;stroke-linecap:butt;stroke-linejoin:miter;stroke-miterlimit:4;stroke-dasharray:none;stroke-dashoffset:0;stroke-opacity:1;paint-order:normal"
       id="path4954-9"
       cx="7.7522912"
       cy="59.704842"
       r="4"
       inkscape:label="p_Trig" />
    <circle
       r="4"
       cy="24.986235"
       cx="7.7522912"
       id="circle4956"
       style="display:inline;vector-effect:none;fill:#00ff00;fill-opacity:1;fill-rule:evenodd;stroke:none;stroke-width:1;stroke-linecap:butt;stroke-linejoin:miter;stroke-miterlimit:4;stroke-dasharray:none;stroke-dashoffset:0;stroke-opacity:1;paint-order:normal"
       inkscape:label="i_Trig" />
    <circle
       style="display:inline;vector-effect:none;fill:#0000ff;fill-opacity:1;fill-rule:evenodd;stroke:none;stroke-width:1;stroke-linecap:butt;stroke-linejoin:miter;stroke-miterlimit:4;stroke-dasharray:none;stroke-dashoffset:0;stroke-opacity:1;paint-order:normal"
       id="circle4958"
       cx="7.7522912"
       cy="94.423431"
       r="4"
       inkscape:label="o_CV1" />
  </g>
</svg>
