<?xml version="1.0" encoding="UTF-8" standalone="no"?>
<!-- Created with Inkscape (http://www.inkscape.org/) -->

<svg
   sodipodi:docname="HiLo.svg"
   id="svg14904"
   version="1.1"
   viewBox="0 0 15.24 128.5"
   height="128.5mm"
   width="15.24mm"
   inkscape:version="1.1.2 (b8e25be8, 2022-02-05)"
   xmlns:inkscape="http://www.inkscape.org/namespaces/inkscape"
   xmlns:sodipodi="http://sodipodi.sourceforge.net/DTD/sodipodi-0.dtd"
   xmlns="http://www.w3.org/2000/svg"
   xmlns:svg="http://www.w3.org/2000/svg">
  <sodipodi:namedview
     id="namedview14906"
     pagecolor="#ffffff"
     bordercolor="#111111"
     borderopacity="1"
     inkscape:pageshadow="0"
     inkscape:pageopacity="0"
     inkscape:pagecheckerboard="1"
     inkscape:document-units="mm"
     showgrid="false"
     inkscape:zoom="1.3249845"
     inkscape:cx="41.887282"
     inkscape:cy="178.49265"
     inkscape:window-width="1280"
     inkscape:window-height="674"
     inkscape:window-x="0"
     inkscape:window-y="25"
     inkscape:window-maximized="0"
     inkscape:current-layer="layer1" />
  <defs
     id="defs14901" />
  <g
     inkscape:label="Layer 1"
     inkscape:groupmode="layer"
     id="layer1">
    <rect
       style="display:inline;vector-effect:none;fill:#fdf2dd;fill-opacity:1;fill-rule:evenodd;stroke:none;stroke-width:0.459165;stroke-linecap:butt;stroke-linejoin:miter;stroke-miterlimit:4;stroke-dasharray:none;stroke-dashoffset:0;stroke-opacity:1;paint-order:normal"
       id="rect420"
       width="15.24"
       height="128.5"
       x="0"
       y="0" />
    <rect
       style="font-variation-settings:normal;display:inline;fill:#d2b48c;fill-opacity:1;stroke:none;stroke-width:1.99083;stroke-linecap:butt;stroke-linejoin:miter;stroke-miterlimit:4;stroke-dasharray:none;stroke-dashoffset:0;stroke-opacity:1;stop-color:#000000"
       id="rect643-9-3-8"
       width="15.24"
       height="102"
       x="0"
       y="6" />
    <g
       id="g4831"
       transform="matrix(0.01816436,7.0347027e-4,-6.8602665e-4,0.01862623,4.7121717,121.09877)"
       style="display:inline;fill:#1c0a00;fill-opacity:1">
      <path
         d="M 14.257,275.602 C -17.052,220.391 4.253,133.798 69.023,69.01 142.576,-4.533 244.279,-22.066 296.205,29.85 c 0.061,0.068 0.112,0.145 0.195,0.214 C 286.008,60.299 252.914,124.631 153.714,159.412 62.842,191.29 27.788,241.972 14.257,275.602 Z M 310.81,48.75 c -7.871,18.361 -21.57,42.356 -45.173,65.957 -23.725,23.735 -57.445,47.046 -105.208,63.8 C 63.49,212.5 36.405,268.149 28.848,295.116 c 0.357,0.36 0.664,0.733 1.011,1.083 51.921,51.918 153.628,34.386 227.176,-39.169 65.444,-65.445 86.491,-153.161 53.775,-208.28 z"
         id="path4829"
         style="fill:#1c0a00;fill-opacity:1" />
    </g>
    <g
       aria-label="Out"
       id="text8064-0"
       style="font-size:2.82222px;line-height:1.25;display:inline;fill:#fdf2dd;fill-opacity:1;stroke-width:0.264583"
       transform="translate(-8.252911,-1.2378666)">
      <path
         d="m 15.068138,117.01632 q 0.125401,0.1378 0.191547,0.33762 0.06752,0.19981 0.06752,0.45337 0,0.25356 -0.0689,0.45476 -0.06752,0.19981 -0.190169,0.33348 -0.12678,0.13918 -0.300412,0.20946 -0.172255,0.0703 -0.394119,0.0703 -0.216352,0 -0.394119,-0.0717 -0.176389,-0.0717 -0.300412,-0.20808 -0.124023,-0.13643 -0.191547,-0.33486 -0.06615,-0.19844 -0.06615,-0.45338 0,-0.2508 0.06615,-0.44924 0.06615,-0.19981 0.192925,-0.34175 0.121267,-0.13505 0.300412,-0.20671 0.180523,-0.0717 0.392741,-0.0717 0.220486,0 0.395497,0.073 0.176388,0.0717 0.299034,0.20533 z m -0.0248,0.79099 q 0,-0.39963 -0.179145,-0.61598 -0.179145,-0.21773 -0.489203,-0.21773 -0.312815,0 -0.491959,0.21773 -0.177767,0.21635 -0.177767,0.61598 0,0.40377 0.181901,0.61874 0.181901,0.2136 0.487825,0.2136 0.305924,0 0.486447,-0.2136 0.181901,-0.21497 0.181901,-0.61874 z"
         id="path13299"
         style="fill:#fdf2dd;fill-opacity:1" />
      <path
         d="m 17.015304,118.83257 h -0.259071 v -0.17087 q -0.130913,0.10335 -0.250803,0.15847 -0.119889,0.0551 -0.264583,0.0551 -0.242534,0 -0.377582,-0.14745 -0.135048,-0.14883 -0.135048,-0.43546 v -0.99907 h 0.259071 v 0.87643 q 0,0.11713 0.01103,0.20119 0.01102,0.0827 0.04685,0.14194 0.03721,0.0606 0.09646,0.0882 0.05926,0.0276 0.172254,0.0276 0.100597,0 0.219108,-0.0524 0.119889,-0.0524 0.223242,-0.13367 v -1.14928 h 0.259071 z"
         id="path13301"
         style="fill:#fdf2dd;fill-opacity:1" />
      <path
         d="m 18.324439,118.81879 q -0.07304,0.0193 -0.159852,0.0317 -0.08544,0.0124 -0.152962,0.0124 -0.235645,0 -0.35829,-0.12678 -0.122645,-0.12678 -0.122645,-0.40652 v -0.81855 h -0.175011 v -0.21773 h 0.175011 v -0.44235 h 0.259071 v 0.44235 h 0.534678 v 0.21773 h -0.534678 v 0.70142 q 0,0.12126 0.0055,0.19017 0.0055,0.0675 0.03858,0.12677 0.03032,0.0551 0.08268,0.0813 0.05374,0.0248 0.162609,0.0248 0.06339,0 0.132291,-0.0179 0.0689,-0.0193 0.09922,-0.0317 h 0.01378 z"
         id="path13303"
         style="fill:#fdf2dd;fill-opacity:1" />
    </g>
    <rect
       style="font-variation-settings:normal;display:inline;fill:#603601;fill-opacity:1;stroke:none;stroke-width:0.965692;stroke-linecap:butt;stroke-linejoin:miter;stroke-miterlimit:4;stroke-dasharray:none;stroke-dashoffset:0;stroke-opacity:1;stop-color:#000000"
       id="rect643-9-3"
       width="15.24"
       height="24"
       x="0"
       y="96" />
    <g
       aria-label="HiLo"
       id="text131716"
       style="font-weight:500;font-size:3.52778px;line-height:1.25;font-family:Futura;-inkscape-font-specification:'Futura Medium';fill:#1c0a00;stroke-width:0.264583">
      <path
         d="M 4.344594,3.2311951 H 5.3429558 V 2.2046111 H 6.0344007 V 4.8645573 H 5.3429558 V 3.7674177 H 4.344594 V 4.8645573 H 3.6531491 V 2.2046111 H 4.344594 Z"
         style="font-weight:bold;-inkscape-font-specification:'Futura Bold'"
         id="path135252" />
      <path
         d="M 7.1738185,3.0548061 V 4.8645573 H 6.5352903 V 3.0548061 Z M 6.4929569,2.3598334 q 0,-0.074083 0.028222,-0.1375834 0.028222,-0.067028 0.077611,-0.1164167 0.049389,-0.049389 0.112889,-0.077611 0.067028,-0.028222 0.1411112,-0.028222 0.074083,0 0.1375834,0.028222 0.067028,0.028222 0.1164167,0.077611 0.049389,0.049389 0.077611,0.1164167 0.028222,0.0635 0.028222,0.1375834 0,0.074083 -0.028222,0.1411112 -0.028222,0.0635 -0.077611,0.112889 -0.049389,0.049389 -0.1164167,0.077611 -0.0635,0.028222 -0.1375834,0.028222 -0.074083,0 -0.1411112,-0.028222 -0.0635,-0.028222 -0.112889,-0.077611 -0.049389,-0.049389 -0.077611,-0.112889 -0.028222,-0.067028 -0.028222,-0.1411112 z"
         style="font-weight:bold;-inkscape-font-specification:'Futura Bold'"
         id="path135254" />
      <path
         d="M 8.361578,2.2046111 V 4.2789458 H 9.1906063 V 4.8645573 H 7.6701331 V 2.2046111 Z"
         style="font-weight:bold;-inkscape-font-specification:'Futura Bold'"
         id="path135256" />
      <path
         d="m 10.087544,3.9508622 q 0,0.091722 0.03175,0.1693335 0.03528,0.074083 0.0882,0.1305278 0.05644,0.056444 0.130528,0.088194 0.07761,0.03175 0.162278,0.03175 0.08467,0 0.15875,-0.03175 0.07761,-0.03175 0.130528,-0.088194 0.05644,-0.056444 0.08819,-0.1305278 0.03528,-0.077611 0.03528,-0.1658057 0,-0.084667 -0.03528,-0.1587501 -0.03175,-0.077611 -0.08819,-0.1340556 -0.05292,-0.056445 -0.130528,-0.088194 -0.07408,-0.03175 -0.15875,-0.03175 -0.08467,0 -0.162278,0.03175 -0.07408,0.03175 -0.130528,0.088194 -0.05292,0.056444 -0.0882,0.1305278 -0.03175,0.074083 -0.03175,0.1587501 z m -0.6738056,-0.00706 q 0,-0.2010835 0.081139,-0.3739447 0.081139,-0.176389 0.2257779,-0.3033891 0.144639,-0.1305279 0.3421947,-0.2046112 0.201083,-0.074083 0.437445,-0.074083 0.232833,0 0.430389,0.074083 0.201083,0.070556 0.345722,0.2010834 0.148167,0.1270001 0.229306,0.3069169 0.08114,0.176389 0.08114,0.3915836 0,0.2151946 -0.08467,0.3951113 -0.08114,0.176389 -0.225778,0.3069169 -0.144639,0.1270001 -0.34925,0.1975557 -0.201083,0.070556 -0.437445,0.070556 -0.232833,0 -0.430389,-0.070556 Q 9.8617664,4.7904739 9.7171274,4.659946 9.5760162,4.5294182 9.4948773,4.3495014 9.4137384,4.1660568 9.4137384,3.9438067 Z"
         style="font-weight:bold;-inkscape-font-specification:'Futura Bold'"
         id="path135258" />
    </g>
    <g
       aria-label="Out"
       id="text14670"
       style="font-weight:500;font-size:2.82222px;line-height:1.25;font-family:Futura;-inkscape-font-specification:'Futura Medium';display:inline;fill:#fdf2dd;stroke-width:0.264583"
       transform="translate(0.02225276,-167.49299)">
      <path
         d="m 5.2626633,285.58715 q 0,-0.44924 0.3293509,-0.7717 0.3279729,-0.32246 0.7882373,-0.32246 0.4547522,0 0.779969,0.32522 0.3265948,0.32522 0.3265948,0.78135 0,0.45888 -0.3279728,0.77859 -0.3293509,0.32108 -0.7951275,0.32108 -0.4120331,0 -0.7400059,-0.28525 -0.3610458,-0.31557 -0.3610458,-0.82683 z m 0.3238388,0.004 q 0,0.35278 0.2370224,0.58015 0.2356443,0.22738 0.5443246,0.22738 0.3348631,0 0.5649953,-0.23151 0.2301322,-0.23427 0.2301322,-0.57051 0,-0.34038 -0.2273762,-0.57051 -0.225998,-0.23151 -0.559483,-0.23151 -0.332107,0 -0.5608612,0.23151 -0.2287541,0.22876 -0.2287541,0.565 z"
         id="path25878" />
      <path
         d="m 8.144139,285.31844 v 0.77032 q 0,0.33348 0.2632051,0.33348 0.2632051,0 0.2632051,-0.33348 v -0.77032 h 0.3100583 v 0.77721 q 0,0.16123 -0.039963,0.27836 -0.038585,0.10473 -0.1336696,0.18879 -0.1570963,0.13643 -0.3996308,0.13643 -0.2411565,0 -0.3982527,-0.13643 -0.096463,-0.0841 -0.1364257,-0.18879 -0.038585,-0.0937 -0.038585,-0.27836 v -0.77721 z"
         id="path25880" />
      <path
         d="m 9.6916745,285.60782 v 1.05282 H 9.3816161 v -1.05282 H 9.2493246 v -0.28938 h 0.1322915 v -0.49196 h 0.3100584 v 0.49196 H 9.932831 v 0.28938 z"
         id="path25882" />
    </g>
    <g
       aria-label="Trig"
       id="text115964"
       style="font-weight:500;font-size:2.82223px;line-height:1.25;font-family:Futura;-inkscape-font-specification:'Futura Medium';display:inline;fill:#603601;stroke-width:0.264583"
       transform="translate(-0.25268996,-168.49997)">
      <path
         d="m 6.4167885,176.80176 v 1.82591 H 6.0957047 v -1.82591 h -0.489205 v -0.30179 h 1.2981157 v 0.30179 z"
         id="path126228" />
      <path
         d="m 7.0341512,177.28546 h 0.3100595 v 0.11989 q 0.085439,-0.0896 0.1515846,-0.12265 0.067524,-0.0344 0.1598529,-0.0344 0.1226457,0 0.2563158,0.0799 l -0.1419383,0.28387 q -0.088195,-0.0634 -0.1722553,-0.0634 -0.2535597,0 -0.2535597,0.3831 v 0.69591 H 7.0341512 Z"
         id="path126230" />
      <path
         d="m 8.4445773,177.28546 v 1.34221 H 8.1345178 v -1.34221 z m -0.3569129,-0.55811 q 0,-0.0813 0.059256,-0.14056 0.059256,-0.0593 0.1419383,-0.0593 0.084061,0 0.1433164,0.0593 0.059256,0.0579 0.059256,0.14194 0,0.0841 -0.059256,0.14331 -0.057878,0.0593 -0.1419383,0.0593 -0.084061,0 -0.1433164,-0.0593 -0.059256,-0.0592 -0.059256,-0.14469 z"
         id="path126232" />
      <path
         d="m 10.13888,178.59598 q 0,0.0951 -0.0069,0.16674 -0.0055,0.073 -0.01654,0.12816 -0.03307,0.15158 -0.1295356,0.26045 -0.1819016,0.20946 -0.5002293,0.20946 -0.2687182,0 -0.4423515,-0.1447 -0.1791454,-0.14882 -0.2067063,-0.41203 h 0.3114375 q 0.017915,0.0992 0.059256,0.15296 0.096463,0.1254 0.2811206,0.1254 0.3403764,0 0.3403764,-0.41754 v -0.18742 q -0.1846576,0.1888 -0.425815,0.1888 -0.2742304,0 -0.4492417,-0.19844 -0.1763894,-0.2012 -0.1763894,-0.50299 0,-0.29352 0.163987,-0.49885 0.1763894,-0.21773 0.4657782,-0.21773 0.2535598,0 0.4216809,0.18879 v -0.15158 H 10.13888 Z m -0.297657,-0.63666 q 0,-0.19568 -0.1047312,-0.31282 -0.1061093,-0.11989 -0.2714743,-0.11989 -0.1763894,0 -0.2783645,0.13092 -0.092329,0.11713 -0.092329,0.30317 0,0.18328 0.092329,0.30041 0.1005971,0.12816 0.2783645,0.12816 0.1777674,0 0.2811206,-0.12954 0.095085,-0.11713 0.095085,-0.30041 z"
         id="path126234" />
    </g>
    <g
       aria-label="In2"
       id="text115964-9-0"
       style="font-weight:500;font-size:2.82223px;line-height:1.25;font-family:Futura;-inkscape-font-specification:'Futura Medium';display:inline;fill:#603601;stroke-width:0.264583"
       transform="translate(0.37874349,-175.49999)">
      <path
         d="m 5.7495259,239.53582 v 2.12769 H 5.4284421 v -2.12769 z"
         id="path126335" />
      <path
         d="m 6.2015237,240.3213 h 0.3114375 v 0.12402 q 0.162609,-0.16123 0.3665592,-0.16123 0.2342671,0 0.3651811,0.14745 0.1129995,0.12541 0.1129995,0.40928 v 0.82269 H 7.0462635 v -0.74965 q 0,-0.19844 -0.055122,-0.27423 -0.053744,-0.0772 -0.195682,-0.0772 -0.1543407,0 -0.2191087,0.10197 -0.06339,0.1006 -0.06339,0.3514 v 0.64768 H 6.2015237 Z"
         id="path126337" />
      <path
         d="m 8.2616965,241.36172 h 0.7923742 v 0.30179 H 7.6250411 l 0.7386305,-0.89435 q 0.1088653,-0.13367 0.1819016,-0.23151 0.074414,-0.0978 0.1129994,-0.16398 0.078548,-0.12954 0.078548,-0.23289 0,-0.14883 -0.1047312,-0.24943 -0.1047312,-0.1006 -0.2590719,-0.1006 -0.3224618,0 -0.3693153,0.38172 H 7.6842969 q 0.07717,-0.67248 0.6793747,-0.67248 0.2907669,0 0.4878269,0.18465 0.198438,0.18466 0.198438,0.45751 0,0.17364 -0.092329,0.34038 -0.046853,0.0868 -0.1378042,0.20671 -0.089573,0.11851 -0.2273769,0.28112 z"
         id="path126339" />
    </g>
    <g
       aria-label="In1"
       id="text115964-9-8"
       style="font-weight:500;font-size:2.82223px;line-height:1.25;font-family:Futura;-inkscape-font-specification:'Futura Medium';display:inline;fill:#603601;stroke-width:0.264583"
       transform="translate(-0.85135606,-172.49997)">
      <path
         d="m 7.1863317,203.49997 v 2.1277 H 6.8652479 v -2.1277 z"
         id="path126203" />
      <path
         d="m 7.6383294,204.28546 h 0.3114375 v 0.12402 q 0.162609,-0.16123 0.3665592,-0.16123 0.2342672,0 0.3651812,0.14745 0.1129994,0.1254 0.1129994,0.40928 v 0.82269 H 8.4830692 v -0.74965 q 0,-0.19844 -0.055122,-0.27423 -0.053744,-0.0772 -0.195682,-0.0772 -0.1543407,0 -0.2191086,0.10198 -0.06339,0.1006 -0.06339,0.3514 v 0.64768 H 7.6383294 Z"
         id="path126205" />
      <path
         d="M 9.75638,203.80039 H 9.3884428 l 0.1763893,-0.30042 h 0.5126319 v 2.1277 H 9.75638 Z"
         id="path126207" />
    </g>
  </g>
  <g
     inkscape:groupmode="layer"
     id="layer2"
     inkscape:label="Grid"
     style="display:none">
    <g
       inkscape:label="GridCartesian:X1:Y13"
       transform="translate(0.1322915,0.1322915)"
       id="g23277">
      <g
         inkscape:label="MajorXGridlines"
         id="g23141" />
      <g
         inkscape:label="MajorYGridlines"
         id="g23167">
        <path
           style="fill:none;stroke:#000000;stroke-width:0.264583"
           d="M 0,10 H 15.24"
           inkscape:label="MajorYDiv1"
           id="path23143" />
        <path
           style="fill:none;stroke:#000000;stroke-width:0.264583"
           d="M 0,20 H 15.24"
           inkscape:label="MajorYDiv2"
           id="path23145" />
        <path
           style="fill:none;stroke:#000000;stroke-width:0.264583"
           d="M 0,30 H 15.24"
           inkscape:label="MajorYDiv3"
           id="path23147" />
        <path
           style="fill:none;stroke:#000000;stroke-width:0.264583"
           d="M 0,40 H 15.24"
           inkscape:label="MajorYDiv4"
           id="path23149" />
        <path
           style="fill:none;stroke:#000000;stroke-width:0.264583"
           d="M 0,50 H 15.24"
           inkscape:label="MajorYDiv5"
           id="path23151" />
        <path
           style="fill:none;stroke:#000000;stroke-width:0.264583"
           d="M 0,60 H 15.24"
           inkscape:label="MajorYDiv6"
           id="path23153" />
        <path
           style="fill:none;stroke:#000000;stroke-width:0.264583"
           d="M 0,70 H 15.24"
           inkscape:label="MajorYDiv7"
           id="path23155" />
        <path
           style="fill:none;stroke:#000000;stroke-width:0.264583"
           d="M 0,80 H 15.24"
           inkscape:label="MajorYDiv8"
           id="path23157" />
        <path
           style="fill:none;stroke:#000000;stroke-width:0.264583"
           d="M 0,90 H 15.24"
           inkscape:label="MajorYDiv9"
           id="path23159" />
        <path
           style="fill:none;stroke:#000000;stroke-width:0.264583"
           d="M 0,100 H 15.24"
           inkscape:label="MajorYDiv10"
           id="path23161" />
        <path
           style="fill:none;stroke:#000000;stroke-width:0.264583"
           d="M 0,110 H 15.24"
           inkscape:label="MajorYDiv11"
           id="path23163" />
        <path
           style="fill:none;stroke:#000000;stroke-width:0.264583"
           d="M 0,120 H 15.24"
           inkscape:label="MajorYDiv12"
           id="path23165" />
      </g>
      <g
         inkscape:label="SubMinorYGridlines"
         id="g23273">
        <path
           style="fill:none;stroke:#000000;stroke-width:0.079375"
           d="M 0,2 H 15.24"
           inkscape:label="SubminorXDiv0:0:1"
           id="path23169" />
        <path
           style="fill:none;stroke:#000000;stroke-width:0.079375"
           d="M 0,4 H 15.24"
           inkscape:label="SubminorXDiv0:0:2"
           id="path23171" />
        <path
           style="fill:none;stroke:#000000;stroke-width:0.079375"
           d="M 0,6 H 15.24"
           inkscape:label="SubminorXDiv0:0:3"
           id="path23173" />
        <path
           style="fill:none;stroke:#000000;stroke-width:0.079375"
           d="M 0,8 H 15.24"
           inkscape:label="SubminorXDiv0:0:4"
           id="path23175" />
        <path
           style="fill:none;stroke:#000000;stroke-width:0.079375"
           d="M 0,12 H 15.24"
           inkscape:label="SubminorXDiv1:0:1"
           id="path23177" />
        <path
           style="fill:none;stroke:#000000;stroke-width:0.079375"
           d="M 0,14 H 15.24"
           inkscape:label="SubminorXDiv1:0:2"
           id="path23179" />
        <path
           style="fill:none;stroke:#000000;stroke-width:0.079375"
           d="M 0,16 H 15.24"
           inkscape:label="SubminorXDiv1:0:3"
           id="path23181" />
        <path
           style="fill:none;stroke:#000000;stroke-width:0.079375"
           d="M 0,18 H 15.24"
           inkscape:label="SubminorXDiv1:0:4"
           id="path23183" />
        <path
           style="fill:none;stroke:#000000;stroke-width:0.079375"
           d="M 0,22 H 15.24"
           inkscape:label="SubminorXDiv2:0:1"
           id="path23185" />
        <path
           style="fill:none;stroke:#000000;stroke-width:0.079375"
           d="M 0,24 H 15.24"
           inkscape:label="SubminorXDiv2:0:2"
           id="path23187" />
        <path
           style="fill:none;stroke:#000000;stroke-width:0.079375"
           d="M 0,26 H 15.24"
           inkscape:label="SubminorXDiv2:0:3"
           id="path23189" />
        <path
           style="fill:none;stroke:#000000;stroke-width:0.079375"
           d="M 0,28 H 15.24"
           inkscape:label="SubminorXDiv2:0:4"
           id="path23191" />
        <path
           style="fill:none;stroke:#000000;stroke-width:0.079375"
           d="M 0,32 H 15.24"
           inkscape:label="SubminorXDiv3:0:1"
           id="path23193" />
        <path
           style="fill:none;stroke:#000000;stroke-width:0.079375"
           d="M 0,34 H 15.24"
           inkscape:label="SubminorXDiv3:0:2"
           id="path23195" />
        <path
           style="fill:none;stroke:#000000;stroke-width:0.079375"
           d="M 0,36 H 15.24"
           inkscape:label="SubminorXDiv3:0:3"
           id="path23197" />
        <path
           style="fill:none;stroke:#000000;stroke-width:0.079375"
           d="M 0,38 H 15.24"
           inkscape:label="SubminorXDiv3:0:4"
           id="path23199" />
        <path
           style="fill:none;stroke:#000000;stroke-width:0.079375"
           d="M 0,42 H 15.24"
           inkscape:label="SubminorXDiv4:0:1"
           id="path23201" />
        <path
           style="fill:none;stroke:#000000;stroke-width:0.079375"
           d="M 0,44 H 15.24"
           inkscape:label="SubminorXDiv4:0:2"
           id="path23203" />
        <path
           style="fill:none;stroke:#000000;stroke-width:0.079375"
           d="M 0,46 H 15.24"
           inkscape:label="SubminorXDiv4:0:3"
           id="path23205" />
        <path
           style="fill:none;stroke:#000000;stroke-width:0.079375"
           d="M 0,48 H 15.24"
           inkscape:label="SubminorXDiv4:0:4"
           id="path23207" />
        <path
           style="fill:none;stroke:#000000;stroke-width:0.079375"
           d="M 0,52 H 15.24"
           inkscape:label="SubminorXDiv5:0:1"
           id="path23209" />
        <path
           style="fill:none;stroke:#000000;stroke-width:0.079375"
           d="M 0,54 H 15.24"
           inkscape:label="SubminorXDiv5:0:2"
           id="path23211" />
        <path
           style="fill:none;stroke:#000000;stroke-width:0.079375"
           d="M 0,56 H 15.24"
           inkscape:label="SubminorXDiv5:0:3"
           id="path23213" />
        <path
           style="fill:none;stroke:#000000;stroke-width:0.079375"
           d="M 0,58 H 15.24"
           inkscape:label="SubminorXDiv5:0:4"
           id="path23215" />
        <path
           style="fill:none;stroke:#000000;stroke-width:0.079375"
           d="M 0,62 H 15.24"
           inkscape:label="SubminorXDiv6:0:1"
           id="path23217" />
        <path
           style="fill:none;stroke:#000000;stroke-width:0.079375"
           d="M 0,64 H 15.24"
           inkscape:label="SubminorXDiv6:0:2"
           id="path23219" />
        <path
           style="fill:none;stroke:#000000;stroke-width:0.079375"
           d="M 0,66 H 15.24"
           inkscape:label="SubminorXDiv6:0:3"
           id="path23221" />
        <path
           style="fill:none;stroke:#000000;stroke-width:0.079375"
           d="M 0,68 H 15.24"
           inkscape:label="SubminorXDiv6:0:4"
           id="path23223" />
        <path
           style="fill:none;stroke:#000000;stroke-width:0.079375"
           d="M 0,72 H 15.24"
           inkscape:label="SubminorXDiv7:0:1"
           id="path23225" />
        <path
           style="fill:none;stroke:#000000;stroke-width:0.079375"
           d="M 0,74 H 15.24"
           inkscape:label="SubminorXDiv7:0:2"
           id="path23227" />
        <path
           style="fill:none;stroke:#000000;stroke-width:0.079375"
           d="M 0,76 H 15.24"
           inkscape:label="SubminorXDiv7:0:3"
           id="path23229" />
        <path
           style="fill:none;stroke:#000000;stroke-width:0.079375"
           d="M 0,78 H 15.24"
           inkscape:label="SubminorXDiv7:0:4"
           id="path23231" />
        <path
           style="fill:none;stroke:#000000;stroke-width:0.079375"
           d="M 0,82 H 15.24"
           inkscape:label="SubminorXDiv8:0:1"
           id="path23233" />
        <path
           style="fill:none;stroke:#000000;stroke-width:0.079375"
           d="M 0,84 H 15.24"
           inkscape:label="SubminorXDiv8:0:2"
           id="path23235" />
        <path
           style="fill:none;stroke:#000000;stroke-width:0.079375"
           d="M 0,86 H 15.24"
           inkscape:label="SubminorXDiv8:0:3"
           id="path23237" />
        <path
           style="fill:none;stroke:#000000;stroke-width:0.079375"
           d="M 0,88 H 15.24"
           inkscape:label="SubminorXDiv8:0:4"
           id="path23239" />
        <path
           style="fill:none;stroke:#000000;stroke-width:0.079375"
           d="M 0,92 H 15.24"
           inkscape:label="SubminorXDiv9:0:1"
           id="path23241" />
        <path
           style="fill:none;stroke:#000000;stroke-width:0.079375"
           d="M 0,94 H 15.24"
           inkscape:label="SubminorXDiv9:0:2"
           id="path23243" />
        <path
           style="fill:none;stroke:#000000;stroke-width:0.079375"
           d="M 0,96 H 15.24"
           inkscape:label="SubminorXDiv9:0:3"
           id="path23245" />
        <path
           style="fill:none;stroke:#000000;stroke-width:0.079375"
           d="M 0,98 H 15.24"
           inkscape:label="SubminorXDiv9:0:4"
           id="path23247" />
        <path
           style="fill:none;stroke:#000000;stroke-width:0.079375"
           d="M 0,102 H 15.24"
           inkscape:label="SubminorXDiv10:0:1"
           id="path23249" />
        <path
           style="fill:none;stroke:#000000;stroke-width:0.079375"
           d="M 0,104 H 15.24"
           inkscape:label="SubminorXDiv10:0:2"
           id="path23251" />
        <path
           style="fill:none;stroke:#000000;stroke-width:0.079375"
           d="M 0,106 H 15.24"
           inkscape:label="SubminorXDiv10:0:3"
           id="path23253" />
        <path
           style="fill:none;stroke:#000000;stroke-width:0.079375"
           d="M 0,108 H 15.24"
           inkscape:label="SubminorXDiv10:0:4"
           id="path23255" />
        <path
           style="fill:none;stroke:#000000;stroke-width:0.079375"
           d="M 0,112 H 15.24"
           inkscape:label="SubminorXDiv11:0:1"
           id="path23257" />
        <path
           style="fill:none;stroke:#000000;stroke-width:0.079375"
           d="M 0,114 H 15.24"
           inkscape:label="SubminorXDiv11:0:2"
           id="path23259" />
        <path
           style="fill:none;stroke:#000000;stroke-width:0.079375"
           d="M 0,116 H 15.24"
           inkscape:label="SubminorXDiv11:0:3"
           id="path23261" />
        <path
           style="fill:none;stroke:#000000;stroke-width:0.079375"
           d="M 0,118 H 15.24"
           inkscape:label="SubminorXDiv11:0:4"
           id="path23263" />
        <path
           style="fill:none;stroke:#000000;stroke-width:0.079375"
           d="M 0,122 H 15.24"
           inkscape:label="SubminorXDiv12:0:1"
           id="path23265" />
        <path
           style="fill:none;stroke:#000000;stroke-width:0.079375"
           d="M 0,124 H 15.24"
           inkscape:label="SubminorXDiv12:0:2"
           id="path23267" />
        <path
           style="fill:none;stroke:#000000;stroke-width:0.079375"
           d="M 0,126 H 15.24"
           inkscape:label="SubminorXDiv12:0:3"
           id="path23269" />
        <path
           style="fill:none;stroke:#000000;stroke-width:0.079375"
           d="M 0,128 H 15.24"
           inkscape:label="SubminorXDiv12:0:4"
           id="path23271" />
      </g>
      <rect
         x="0"
         y="0"
         width="15.24"
         height="130"
         style="fill:none;stroke:#000000;stroke-width:0.264583"
         inkscape:label="Border"
         id="rect23275" />
    </g>
  </g>
  <g
     id="layer4"
     inkscape:label="components"
     style="display:none">
    <circle
       style="display:inline;vector-effect:none;fill:#ff0000;fill-opacity:1;fill-rule:evenodd;stroke:none;stroke-width:1;stroke-linecap:butt;stroke-linejoin:miter;stroke-miterlimit:4;stroke-dasharray:none;stroke-dashoffset:0;stroke-opacity:1;paint-order:normal"
       id="path4954-9"
       cx="7.7522912"
       cy="59.704842"
       r="4"
       inkscape:label="p_Trig" />
    <circle
       r="4"
       cy="24.986235"
       cx="7.7522912"
       id="circle4956"
       style="display:inline;vector-effect:none;fill:#00ff00;fill-opacity:1;fill-rule:evenodd;stroke:none;stroke-width:1;stroke-linecap:butt;stroke-linejoin:miter;stroke-miterlimit:4;stroke-dasharray:none;stroke-dashoffset:0;stroke-opacity:1;paint-order:normal"
       inkscape:label="i_Trig" />
    <circle
       style="display:inline;vector-effect:none;fill:#0000ff;fill-opacity:1;fill-rule:evenodd;stroke:none;stroke-width:1;stroke-linecap:butt;stroke-linejoin:miter;stroke-miterlimit:4;stroke-dasharray:none;stroke-dashoffset:0;stroke-opacity:1;paint-order:normal"
       id="circle4958"
       cx="7.7522912"
       cy="94.423431"
       r="4"
       inkscape:label="o_CV1" />
  </g>
</svg>
