<?xml version="1.0" encoding="UTF-8" standalone="no"?>
<!-- Created with Inkscape (http://www.inkscape.org/) -->

<svg
   width="20.32mm"
   height="128.5mm"
   viewBox="0 0 20.320002 128.50002"
   version="1.1"
   id="svg8"
   inkscape:version="1.1.2 (b8e25be8, 2022-02-05)"
   sodipodi:docname="Empower.svg"
   xmlns:inkscape="http://www.inkscape.org/namespaces/inkscape"
   xmlns:sodipodi="http://sodipodi.sourceforge.net/DTD/sodipodi-0.dtd"
   xmlns="http://www.w3.org/2000/svg"
   xmlns:svg="http://www.w3.org/2000/svg"
   xmlns:rdf="http://www.w3.org/1999/02/22-rdf-syntax-ns#"
   xmlns:cc="http://creativecommons.org/ns#"
   xmlns:dc="http://purl.org/dc/elements/1.1/">
  <defs
     id="defs2">
    <rect
       x="-20.954651"
       y="233.72495"
       width="84.62455"
       height="149.1004"
       id="rect38922" />
  </defs>
  <sodipodi:namedview
     id="base"
     pagecolor="#ffffff"
     bordercolor="#666666"
     borderopacity="1.0"
     inkscape:pageopacity="0.0"
     inkscape:pageshadow="2"
     inkscape:zoom="2.0432821"
     inkscape:cx="52.611432"
     inkscape:cy="-27.65159"
     inkscape:document-units="mm"
     inkscape:current-layer="layer1"
     showgrid="false"
     units="mm"
     inkscape:snap-bbox="true"
     inkscape:snap-page="true"
     inkscape:bbox-nodes="false"
     inkscape:snap-bbox-edge-midpoints="false"
     inkscape:window-width="1280"
     inkscape:window-height="674"
     inkscape:window-x="0"
     inkscape:window-y="25"
     inkscape:window-maximized="0"
     inkscape:snap-bbox-midpoints="true"
     inkscape:snap-nodes="true"
     inkscape:pagecheckerboard="1"
     showguides="true"
     inkscape:guide-bbox="true"
     width="30.48mm"
     fit-margin-top="0"
     fit-margin-left="0"
     fit-margin-right="0"
     fit-margin-bottom="0">
    <sodipodi:guide
       position="-35.500587,1.4679998"
       orientation="0,-1"
       id="guide4988" />
    <sodipodi:guide
       position="-41.002176,2.8751198"
       orientation="0,-1"
       id="guide4990" />
    <sodipodi:guide
       position="-34.017012,8.8712299"
       orientation="0,-1"
       id="guide4992" />
    <sodipodi:guide
       position="-33.584303,10.41662"
       orientation="0,-1"
       id="guide4994" />
  </sodipodi:namedview>
  <metadata
     id="metadata5">
    <rdf:RDF>
      <cc:Work
         rdf:about="">
        <dc:format>image/svg+xml</dc:format>
        <dc:type
           rdf:resource="http://purl.org/dc/dcmitype/StillImage" />
      </cc:Work>
    </rdf:RDF>
  </metadata>
  <g
     inkscape:label="Layer 1"
     inkscape:groupmode="layer"
     id="layer1"
     transform="translate(-52.190792,-169.96799)"
     style="display:inline">
    <rect
       style="display:inline;opacity:1;vector-effect:none;fill:#fdf2dd;fill-opacity:1;fill-rule:evenodd;stroke:none;stroke-width:0.530196;stroke-linecap:butt;stroke-linejoin:miter;stroke-miterlimit:4;stroke-dasharray:none;stroke-dashoffset:0;stroke-opacity:1;paint-order:normal"
       id="rect420"
       width="20.32"
       height="128.5"
       x="52.190792"
       y="169.96799" />
    <rect
       style="font-variation-settings:normal;display:inline;fill:#d2b48c;fill-opacity:1;stroke:none;stroke-width:2.43027;stroke-linecap:butt;stroke-linejoin:miter;stroke-miterlimit:4;stroke-dasharray:none;stroke-dashoffset:0;stroke-opacity:1;stop-color:#000000"
       id="rect643-9-3-8-9"
       width="20.32"
       height="114"
       x="52.190792"
       y="175.868" />
    <g
       id="g4831"
       transform="matrix(0.01816436,7.0347027e-4,-6.8602665e-4,0.01862623,59.501397,291.06676)"
       style="fill:#1c0a00;fill-opacity:1">
      <path
         d="M 14.257,275.602 C -17.052,220.391 4.253,133.798 69.023,69.01 142.576,-4.533 244.279,-22.066 296.205,29.85 c 0.061,0.068 0.112,0.145 0.195,0.214 C 286.008,60.299 252.914,124.631 153.714,159.412 62.842,191.29 27.788,241.972 14.257,275.602 Z M 310.81,48.75 c -7.871,18.361 -21.57,42.356 -45.173,65.957 -23.725,23.735 -57.445,47.046 -105.208,63.8 C 63.49,212.5 36.405,268.149 28.848,295.116 c 0.357,0.36 0.664,0.733 1.011,1.083 51.921,51.918 153.628,34.386 227.176,-39.169 65.444,-65.445 86.491,-153.161 53.775,-208.28 z"
         id="path4829"
         style="fill:#1c0a00;fill-opacity:1" />
    </g>
    <g
       aria-label="Juice"
       id="text1827"
       style="font-weight:bold;font-size:3.52777px;line-height:1.25;font-family:Futura;-inkscape-font-specification:'Futura Bold';fill:#1c0a00;stroke-width:0.264583">
      <path
         d="m 59.339591,172.1726 v 1.84502 q 0,0.11642 -0.01411,0.21519 -0.01058,0.0988 -0.03881,0.16934 -0.04586,0.11289 -0.126999,0.20814 -0.07761,0.0917 -0.183445,0.15874 -0.105833,0.0635 -0.23636,0.0988 -0.127,0.0388 -0.268111,0.0388 -0.42686,0 -0.69497,-0.39158 l 0.451554,-0.46214 q 0.01764,0.11994 0.07761,0.1905 0.05997,0.0705 0.148167,0.0705 0.194027,0 0.194027,-0.30691 v -1.83444 z"
         id="path3861" />
      <path
         d="m 60.47658,173.02279 v 1.01952 q 0,0.33514 0.324555,0.33514 0.324555,0 0.324555,-0.33514 v -1.01952 h 0.638526 v 1.143 q 0,0.36688 -0.243416,0.55033 -0.239888,0.18344 -0.719665,0.18344 -0.479777,0 -0.723193,-0.18344 -0.239888,-0.18345 -0.239888,-0.55033 v -1.143 z"
         id="path3863" />
      <path
         d="m 62.83991,173.02279 v 1.80974 h -0.638526 v -1.80974 z m -0.680859,-0.69497 q 0,-0.0741 0.02822,-0.13758 0.02822,-0.067 0.07761,-0.11642 0.04939,-0.0494 0.112888,-0.0776 0.06703,-0.0282 0.141111,-0.0282 0.07408,0 0.137583,0.0282 0.06703,0.0282 0.116417,0.0776 0.04939,0.0494 0.07761,0.11642 0.02822,0.0635 0.02822,0.13758 0,0.0741 -0.02822,0.14111 -0.02822,0.0635 -0.07761,0.11289 -0.04939,0.0494 -0.116417,0.0776 -0.0635,0.0282 -0.137583,0.0282 -0.07408,0 -0.141111,-0.0282 -0.0635,-0.0282 -0.112888,-0.0776 -0.04939,-0.0494 -0.07761,-0.11289 -0.02822,-0.067 -0.02822,-0.14111 z"
         id="path3865" />
      <path
         d="m 64.641499,173.6084 q -0.165806,-0.11289 -0.335138,-0.11289 -0.09172,0 -0.172861,0.0318 -0.07761,0.0317 -0.137583,0.0917 -0.05997,0.0565 -0.09525,0.13758 -0.03175,0.0776 -0.03175,0.17639 0,0.0952 0.03175,0.17639 0.03528,0.0776 0.09172,0.13758 0.05997,0.0565 0.141111,0.0882 0.08114,0.0318 0.172861,0.0318 0.179916,0 0.335138,-0.12347 v 0.54327 q -0.236361,0.10231 -0.448027,0.10231 -0.197555,0 -0.377472,-0.067 -0.176388,-0.067 -0.313971,-0.1905 -0.134055,-0.127 -0.215194,-0.29986 -0.08114,-0.17639 -0.08114,-0.39158 0,-0.2152 0.07761,-0.39158 0.07761,-0.17992 0.211666,-0.30692 0.134056,-0.13053 0.3175,-0.20108 0.186972,-0.0741 0.398638,-0.0741 0.232833,0 0.430388,0.0988 z"
         id="path3867" />
      <path
         d="m 66.328599,173.66484 q -0.03175,-0.13405 -0.130527,-0.21519 -0.09878,-0.0811 -0.239888,-0.0811 -0.148167,0 -0.243417,0.0776 -0.09172,0.0776 -0.116416,0.21872 z m -0.747887,0.37042 q 0,0.41275 0.388055,0.41275 0.208138,0 0.313971,-0.16934 h 0.61736 q -0.186972,0.62089 -0.934859,0.62089 -0.229305,0 -0.419805,-0.067 -0.190499,-0.0705 -0.328082,-0.19755 -0.134055,-0.127 -0.208139,-0.30339 -0.07408,-0.17639 -0.07408,-0.39511 0,-0.22578 0.07056,-0.40569 0.07055,-0.18345 0.201083,-0.31045 0.130527,-0.127 0.313971,-0.19402 0.186972,-0.0706 0.419805,-0.0706 0.229305,0 0.412749,0.0706 0.183444,0.067 0.310444,0.19755 0.126999,0.13053 0.194027,0.32103 0.06703,0.18697 0.06703,0.42333 v 0.067 z"
         id="path3869" />
    </g>
  </g>
</svg>
