<?xml version="1.0" encoding="UTF-8" standalone="no"?>
<!-- Created with Inkscape (http://www.inkscape.org/) -->

<svg
   width="20.24mm"
   height="128.5mm"
   viewBox="0 0 20.240002 128.50002"
   version="1.1"
   id="svg8"
   inkscape:version="1.1.2 (b8e25be8, 2022-02-05)"
   sodipodi:docname="Some2.svg"
   xmlns:inkscape="http://www.inkscape.org/namespaces/inkscape"
   xmlns:sodipodi="http://sodipodi.sourceforge.net/DTD/sodipodi-0.dtd"
   xmlns="http://www.w3.org/2000/svg"
   xmlns:svg="http://www.w3.org/2000/svg"
   xmlns:rdf="http://www.w3.org/1999/02/22-rdf-syntax-ns#"
   xmlns:cc="http://creativecommons.org/ns#"
   xmlns:dc="http://purl.org/dc/elements/1.1/">
  <defs
     id="defs2">
    <rect
       x="-20.954651"
       y="233.72495"
       width="84.62455"
       height="149.1004"
       id="rect38922" />
  </defs>
  <sodipodi:namedview
     id="base"
     pagecolor="#ffffff"
     bordercolor="#666666"
     borderopacity="1.0"
     inkscape:pageopacity="0.0"
     inkscape:pageshadow="2"
     inkscape:zoom="1.351586"
     inkscape:cx="-20.346467"
     inkscape:cy="117.26964"
     inkscape:document-units="mm"
     inkscape:current-layer="layer1"
     showgrid="false"
     units="mm"
     inkscape:snap-bbox="true"
     inkscape:snap-page="true"
     inkscape:bbox-nodes="false"
     inkscape:snap-bbox-edge-midpoints="false"
     inkscape:window-width="1280"
     inkscape:window-height="674"
     inkscape:window-x="0"
     inkscape:window-y="25"
     inkscape:window-maximized="0"
     inkscape:snap-bbox-midpoints="true"
     inkscape:snap-nodes="true"
     inkscape:pagecheckerboard="1"
     showguides="true"
     inkscape:guide-bbox="true"
     width="30.48mm"
     fit-margin-top="0"
     fit-margin-left="0"
     fit-margin-right="0"
     fit-margin-bottom="0">
    <sodipodi:guide
       position="-34.149793,-1.051758e-05"
       orientation="0,-1"
       id="guide4988" />
    <sodipodi:guide
       position="-39.651382,1.4071043"
       orientation="0,-1"
       id="guide4990" />
    <sodipodi:guide
       position="-32.666218,7.4032192"
       orientation="0,-1"
       id="guide4992" />
    <sodipodi:guide
       position="-32.233509,8.9486097"
       orientation="0,-1"
       id="guide4994" />
  </sodipodi:namedview>
  <metadata
     id="metadata5">
    <rdf:RDF>
      <cc:Work
         rdf:about="">
        <dc:format>image/svg+xml</dc:format>
        <dc:type
           rdf:resource="http://purl.org/dc/dcmitype/StillImage" />
      </cc:Work>
    </rdf:RDF>
  </metadata>
  <g
     inkscape:label="Layer 1"
     inkscape:groupmode="layer"
     id="layer1"
     transform="translate(-50.84,-168.49997)"
     style="display:inline">
    <rect
       style="display:inline;opacity:1;vector-effect:none;fill:#fdf2dd;fill-opacity:1;fill-rule:evenodd;stroke:none;stroke-width:0.529151;stroke-linecap:butt;stroke-linejoin:miter;stroke-miterlimit:4;stroke-dasharray:none;stroke-dashoffset:0;stroke-opacity:1;paint-order:normal"
       id="rect420"
       width="20.24"
       height="128.5"
       x="50.84"
       y="168.49997" />
    <rect
       style="font-variation-settings:normal;display:inline;fill:#d2b48c;fill-opacity:1;stroke:none;stroke-width:2.42548;stroke-linecap:butt;stroke-linejoin:miter;stroke-miterlimit:4;stroke-dasharray:none;stroke-dashoffset:0;stroke-opacity:1;stop-color:#000000"
       id="rect643-9-3-8-9"
       width="20.24"
       height="114"
       x="50.84"
       y="174.49998" />
    <g
       id="g4831"
       transform="matrix(0.01816436,7.0347027e-4,-6.8602665e-4,0.01862623,58.110605,289.59875)"
       style="fill:#1c0a00;fill-opacity:1">
      <path
         d="M 14.257,275.602 C -17.052,220.391 4.253,133.798 69.023,69.01 142.576,-4.533 244.279,-22.066 296.205,29.85 c 0.061,0.068 0.112,0.145 0.195,0.214 C 286.008,60.299 252.914,124.631 153.714,159.412 62.842,191.29 27.788,241.972 14.257,275.602 Z M 310.81,48.75 c -7.871,18.361 -21.57,42.356 -45.173,65.957 -23.725,23.735 -57.445,47.046 -105.208,63.8 C 63.49,212.5 36.405,268.149 28.848,295.116 c 0.357,0.36 0.664,0.733 1.011,1.083 51.921,51.918 153.628,34.386 227.176,-39.169 65.444,-65.445 86.491,-153.161 53.775,-208.28 z"
         id="path4829"
         style="fill:#1c0a00;fill-opacity:1" />
    </g>
    <g
       aria-label="Some2"
       id="text2259"
       style="font-weight:bold;font-size:3.52777px;line-height:1.25;font-family:Futura;-inkscape-font-specification:'Futura Bold';fill:#1c0a00;stroke-width:0.264583">
      <path
         d="m 56.235654,171.25491 q -0.112888,-0.0917 -0.225777,-0.13405 -0.112889,-0.0459 -0.218722,-0.0459 -0.134055,0 -0.218721,0.0635 -0.08467,0.0635 -0.08467,0.1658 0,0.0706 0.04233,0.11642 0.04233,0.0459 0.109361,0.0811 0.07056,0.0318 0.155222,0.0564 0.08819,0.0247 0.172861,0.0529 0.338666,0.11289 0.493888,0.30339 0.158749,0.18697 0.158749,0.49036 0,0.20461 -0.07055,0.37041 -0.06703,0.16581 -0.201083,0.28575 -0.130527,0.11642 -0.324555,0.17992 -0.190499,0.067 -0.433916,0.067 -0.504471,0 -0.934859,-0.29986 l 0.296333,-0.55739 q 0.155222,0.13758 0.306916,0.20461 0.151694,0.067 0.299861,0.067 0.169333,0 0.250471,-0.0776 0.08467,-0.0776 0.08467,-0.17639 0,-0.06 -0.02117,-0.10231 -0.02117,-0.0459 -0.07055,-0.0811 -0.04939,-0.0388 -0.130528,-0.0705 -0.07761,-0.0318 -0.190499,-0.0706 -0.134056,-0.0423 -0.264583,-0.0917 -0.127,-0.0529 -0.229305,-0.13758 -0.09878,-0.0847 -0.162278,-0.21167 -0.05997,-0.13053 -0.05997,-0.32808 0,-0.19756 0.0635,-0.35631 0.06703,-0.16227 0.183444,-0.27516 0.119944,-0.11642 0.289277,-0.17992 0.172861,-0.0635 0.384527,-0.0635 0.197555,0 0.412749,0.0565 0.215194,0.0529 0.412749,0.15875 z"
         id="path7513" />
      <path
         d="m 57.599082,172.3203 q 0,0.0917 0.03175,0.16933 0.03528,0.0741 0.08819,0.13053 0.05644,0.0565 0.130527,0.0882 0.07761,0.0317 0.162278,0.0317 0.08467,0 0.158749,-0.0317 0.07761,-0.0317 0.130528,-0.0882 0.05644,-0.0564 0.08819,-0.13053 0.03528,-0.0776 0.03528,-0.1658 0,-0.0847 -0.03528,-0.15875 -0.03175,-0.0776 -0.08819,-0.13406 -0.05292,-0.0564 -0.130528,-0.0882 -0.07408,-0.0317 -0.158749,-0.0317 -0.08467,0 -0.162278,0.0317 -0.07408,0.0318 -0.130527,0.0882 -0.05292,0.0564 -0.08819,0.13053 -0.03175,0.0741 -0.03175,0.15875 z m -0.673804,-0.007 q 0,-0.20109 0.08114,-0.37395 0.08114,-0.17639 0.225777,-0.30339 0.144639,-0.13052 0.342194,-0.20461 0.201083,-0.0741 0.437444,-0.0741 0.232832,0 0.430387,0.0741 0.201083,0.0706 0.345722,0.20109 0.148166,0.127 0.229305,0.30691 0.08114,0.17639 0.08114,0.39158 0,0.2152 -0.08467,0.39511 -0.08114,0.17639 -0.225777,0.30692 -0.144639,0.127 -0.349249,0.19756 -0.201083,0.0705 -0.437444,0.0705 -0.232833,0 -0.430388,-0.0705 -0.197555,-0.0706 -0.342193,-0.20109 -0.141111,-0.13052 -0.22225,-0.31044 -0.08114,-0.18344 -0.08114,-0.40569 z"
         id="path7515" />
      <path
         d="m 59.462517,171.42425 h 0.638526 v 0.22225 q 0.261055,-0.25047 0.58561,-0.25047 0.402166,0 0.613832,0.33866 0.215194,-0.34219 0.613832,-0.34219 0.127,0 0.239888,0.0388 0.112889,0.0353 0.194028,0.11642 0.08114,0.0776 0.126999,0.20461 0.04939,0.127 0.04939,0.30692 v 1.17474 h -0.638526 v -0.89252 q 0,-0.13759 -0.02117,-0.22578 -0.01764,-0.0882 -0.05644,-0.13758 -0.03528,-0.0494 -0.08467,-0.067 -0.04939,-0.0176 -0.105833,-0.0176 -0.306916,0 -0.306916,0.44803 v 0.89252 h -0.638526 v -0.89252 q 0,-0.13759 -0.01764,-0.22578 -0.01764,-0.0917 -0.05292,-0.14464 -0.03175,-0.0529 -0.08467,-0.0705 -0.05292,-0.0212 -0.123472,-0.0212 -0.05997,0 -0.112889,0.0176 -0.05292,0.0176 -0.09525,0.0705 -0.03881,0.0494 -0.0635,0.14111 -0.02117,0.0882 -0.02117,0.23284 v 0.89252 h -0.638526 z"
         id="path7517" />
      <path
         d="m 64.28564,172.0663 q -0.03175,-0.13405 -0.130528,-0.21519 -0.09878,-0.0811 -0.239888,-0.0811 -0.148166,0 -0.243416,0.0776 -0.09172,0.0776 -0.116417,0.21872 z m -0.747887,0.37042 q 0,0.41275 0.388054,0.41275 0.208139,0 0.313972,-0.16934 h 0.61736 q -0.186972,0.62089 -0.93486,0.62089 -0.229305,0 -0.419804,-0.067 -0.1905,-0.0705 -0.328083,-0.19755 -0.134055,-0.127 -0.208138,-0.30339 -0.07408,-0.17639 -0.07408,-0.39511 0,-0.22578 0.07056,-0.40569 0.07055,-0.18345 0.201083,-0.31045 0.130527,-0.127 0.313971,-0.19402 0.186972,-0.0706 0.419805,-0.0706 0.229305,0 0.412749,0.0706 0.183444,0.067 0.310444,0.19755 0.127,0.13053 0.194027,0.32103 0.06703,0.18697 0.06703,0.42333 v 0.067 z"
         id="path7519" />
      <path
         d="M 67.264786,173.23399 H 65.12343 l 0.659693,-0.68438 q 0.261055,-0.27164 0.409221,-0.45861 0.148167,-0.1905 0.218722,-0.32103 0.07408,-0.13053 0.09172,-0.21167 0.01764,-0.0811 0.01764,-0.13758 0,-0.06 -0.02117,-0.11642 -0.01764,-0.0564 -0.05644,-0.0988 -0.0388,-0.0459 -0.09525,-0.0706 -0.05292,-0.0282 -0.126999,-0.0282 -0.141111,0 -0.22225,0.0917 -0.07761,0.0917 -0.07761,0.22931 0,0.0388 0.01058,0.11288 h -0.754942 q 0,-0.23283 0.07408,-0.42333 0.07761,-0.1905 0.215194,-0.32808 0.137583,-0.13758 0.324555,-0.21167 0.190499,-0.0741 0.416276,-0.0741 0.22225,0 0.409222,0.0705 0.190499,0.0706 0.328082,0.19756 0.137583,0.127 0.215194,0.30339 0.07761,0.17286 0.07761,0.37747 0,0.21872 -0.09525,0.40569 -0.09172,0.18345 -0.296333,0.37747 l -0.440971,0.41275 h 0.860775 z"
         id="path7521" />
    </g>
  </g>
</svg>
