<?xml version="1.0" encoding="UTF-8" standalone="no"?>
<!-- Created with Inkscape (http://www.inkscape.org/) -->

<svg
   width="30.48mm"
   height="128.5mm"
   viewBox="0 0 30.480002 128.50002"
   version="1.1"
   id="svg8"
   inkscape:version="1.1.2 (b8e25be8, 2022-02-05)"
   sodipodi:docname="Some.svg"
   xmlns:inkscape="http://www.inkscape.org/namespaces/inkscape"
   xmlns:sodipodi="http://sodipodi.sourceforge.net/DTD/sodipodi-0.dtd"
   xmlns="http://www.w3.org/2000/svg"
   xmlns:svg="http://www.w3.org/2000/svg"
   xmlns:rdf="http://www.w3.org/1999/02/22-rdf-syntax-ns#"
   xmlns:cc="http://creativecommons.org/ns#"
   xmlns:dc="http://purl.org/dc/elements/1.1/">
  <defs
     id="defs2">
    <rect
       x="-20.954651"
       y="233.72495"
       width="84.624551"
       height="149.1004"
       id="rect38922" />
  </defs>
  <sodipodi:namedview
     id="base"
     pagecolor="#ffffff"
     bordercolor="#666666"
     borderopacity="1.0"
     inkscape:pageopacity="0.0"
     inkscape:pageshadow="2"
     inkscape:zoom="2.0520865"
     inkscape:cx="32.406042"
     inkscape:cy="95.268891"
     inkscape:document-units="mm"
     inkscape:current-layer="layer1"
     showgrid="false"
     units="mm"
     inkscape:snap-bbox="true"
     inkscape:snap-page="true"
     inkscape:bbox-nodes="false"
     inkscape:snap-bbox-edge-midpoints="false"
     inkscape:window-width="1280"
     inkscape:window-height="674"
     inkscape:window-x="0"
     inkscape:window-y="25"
     inkscape:window-maximized="0"
     inkscape:snap-bbox-midpoints="true"
     inkscape:snap-nodes="true"
     inkscape:pagecheckerboard="1"
     showguides="true"
     inkscape:guide-bbox="true"
     width="30.48mm">
    <sodipodi:guide
       position="16.690215,0"
       orientation="0,-1"
       id="guide4988" />
    <sodipodi:guide
       position="8.2592917,14.760611"
       orientation="1,0"
       id="guide31265" />
    <sodipodi:guide
       position="22.485503,11.092082"
       orientation="1,0"
       id="guide31267" />
  </sodipodi:namedview>
  <metadata
     id="metadata5">
    <rdf:RDF>
      <cc:Work
         rdf:about="">
        <dc:format>image/svg+xml</dc:format>
        <dc:type
           rdf:resource="http://purl.org/dc/dcmitype/StillImage" />
      </cc:Work>
    </rdf:RDF>
  </metadata>
  <g
     inkscape:label="Layer 1"
     inkscape:groupmode="layer"
     id="layer1"
     transform="translate(0,-168.49998)"
     style="display:inline">
    <rect
       style="display:inline;opacity:1;vector-effect:none;fill:#fdf2dd;fill-opacity:1;fill-rule:evenodd;stroke:none;stroke-width:0.649357;stroke-linecap:butt;stroke-linejoin:miter;stroke-miterlimit:4;stroke-dasharray:none;stroke-dashoffset:0;stroke-opacity:1;paint-order:normal"
       id="rect420"
       width="30.48"
       height="128.5"
       x="0"
       y="168.49997" />
    <rect
       style="font-variation-settings:normal;display:inline;fill:#d2b48c;fill-opacity:1;stroke:none;stroke-width:2.97646;stroke-linecap:butt;stroke-linejoin:miter;stroke-miterlimit:4;stroke-dasharray:none;stroke-dashoffset:0;stroke-opacity:1;stop-color:#000000"
       id="rect643-9-3-8-9"
       width="30.48"
       height="114.00009"
       x="0"
       y="174.49998" />
    <rect
       style="font-variation-settings:normal;fill:#603601;fill-opacity:1;stroke:none;stroke-width:1.80667;stroke-linecap:butt;stroke-linejoin:miter;stroke-miterlimit:4;stroke-dasharray:none;stroke-dashoffset:0;stroke-opacity:1;stop-color:#000000"
       id="rect643-9-3"
       width="15.24"
       x="15.24"
       y="204.49998"
       height="84" />
    <g
       id="g4831"
       transform="matrix(0.01816436,7.0347027e-4,-6.8602665e-4,0.01862623,12.332174,289.59875)"
       style="fill:#1c0a00;fill-opacity:1">
      <path
         d="M 14.257,275.602 C -17.052,220.391 4.253,133.798 69.023,69.01 142.576,-4.533 244.279,-22.066 296.205,29.85 c 0.061,0.068 0.112,0.145 0.195,0.214 C 286.008,60.299 252.914,124.631 153.714,159.412 62.842,191.29 27.788,241.972 14.257,275.602 Z M 310.81,48.75 c -7.871,18.361 -21.57,42.356 -45.173,65.957 -23.725,23.735 -57.445,47.046 -105.208,63.8 C 63.49,212.5 36.405,268.149 28.848,295.116 c 0.357,0.36 0.664,0.733 1.011,1.083 51.921,51.918 153.628,34.386 227.176,-39.169 65.444,-65.445 86.491,-153.161 53.775,-208.28 z"
         id="path4829"
         style="fill:#1c0a00;fill-opacity:1" />
    </g>
    <g
       aria-label="Out"
       id="text83512-3-1"
       style="font-weight:500;font-size:2.82223px;line-height:1.25;font-family:Futura;-inkscape-font-specification:'Futura Medium';display:inline;fill:#fdf2dd;stroke-width:0.264583"
       transform="translate(13.679802)">
      <path
         d="m 5.9241982,286.59414 q 0,-0.44924 0.329352,-0.77171 0.327974,-0.32246 0.7882401,-0.32246 0.4547539,0 0.7799718,0.32522 0.3265959,0.32522 0.3265959,0.78135 0,0.45889 -0.327974,0.77859 -0.329352,0.32109 -0.7951302,0.32109 -0.4120346,0 -0.7400086,-0.28526 -0.361047,-0.31557 -0.361047,-0.82682 z m 0.3238399,0.004 q 0,0.35278 0.2370232,0.58016 0.2356452,0.22738 0.5443266,0.22738 0.3348642,0 0.5649972,-0.23152 0.2301331,-0.23426 0.2301331,-0.57051 0,-0.34037 -0.227377,-0.5705 -0.2259989,-0.23152 -0.559485,-0.23152 -0.3321082,0 -0.5608632,0.23152 -0.2287549,0.22875 -0.2287549,0.56499 z"
         id="path101410" />
      <path
         d="m 8.8056842,286.32542 v 0.77033 q 0,0.33348 0.263206,0.33348 0.263206,0 0.263206,-0.33348 v -0.77033 h 0.3100595 v 0.77722 q 0,0.16123 -0.039963,0.27836 -0.038585,0.10473 -0.1336701,0.18879 -0.1570968,0.13643 -0.3996322,0.13643 -0.2411574,0 -0.3982542,-0.13643 -0.096463,-0.0841 -0.1364261,-0.18879 -0.038585,-0.0937 -0.038585,-0.27836 v -0.77722 z"
         id="path101412" />
      <path
         d="m 10.353225,286.61481 v 1.05282 h -0.310059 v -1.05282 H 9.9108739 v -0.28939 h 0.1322921 v -0.49196 h 0.310059 v 0.49196 h 0.241158 v 0.28939 z"
         id="path101414" />
    </g>
  </g>
  <g
     id="layer2"
     inkscape:label="components"
     style="display:none"
     inkscape:groupmode="layer">
    <circle
       r="4"
       cy="12.91222"
       cx="8.5352678"
       id="circle4956-5"
       style="display:inline;vector-effect:none;fill:#00ff00;fill-opacity:1;fill-rule:evenodd;stroke:none;stroke-width:1;stroke-linecap:butt;stroke-linejoin:miter;stroke-miterlimit:4;stroke-dasharray:none;stroke-dashoffset:0;stroke-opacity:1;paint-order:normal"
       inkscape:label="i_trig" />
    <circle
       cy="27.299023"
       cx="8.5352678"
       id="circle4956-5-9"
       style="display:inline;vector-effect:none;fill:#00ff00;fill-opacity:1;fill-rule:evenodd;stroke:none;stroke-width:1;stroke-linecap:butt;stroke-linejoin:miter;stroke-miterlimit:4;stroke-dasharray:none;stroke-dashoffset:0;stroke-opacity:1;paint-order:normal"
       inkscape:label="i_dur"
       r="4" />
    <circle
       r="4"
       cy="62.628754"
       cx="8.5352678"
       id="circle4956-5-2"
       style="display:inline;vector-effect:none;fill:#00ff00;fill-opacity:1;fill-rule:evenodd;stroke:none;stroke-width:1;stroke-linecap:butt;stroke-linejoin:miter;stroke-miterlimit:4;stroke-dasharray:none;stroke-dashoffset:0;stroke-opacity:1;paint-order:normal"
       inkscape:label="i_startcv" />
    <circle
       r="4"
       cy="12.91222"
       cx="22.103033"
       id="circle4956-5-8"
       style="display:inline;vector-effect:none;fill:#ff0000;fill-opacity:1;fill-rule:evenodd;stroke:none;stroke-width:1;stroke-linecap:butt;stroke-linejoin:miter;stroke-miterlimit:4;stroke-dasharray:none;stroke-dashoffset:0;stroke-opacity:1;paint-order:normal"
       inkscape:label="p_trig1" />
    <circle
       r="4"
       cy="36.923317"
       cx="15.212074"
       id="circle4956-5-8-6"
       style="display:inline;vector-effect:none;fill:#ff0000;fill-opacity:1;fill-rule:evenodd;stroke:none;stroke-width:1;stroke-linecap:butt;stroke-linejoin:miter;stroke-miterlimit:4;stroke-dasharray:none;stroke-dashoffset:0;stroke-opacity:1;paint-order:normal"
       inkscape:label="p_durationrange" />
    <circle
       r="4"
       cy="49.029243"
       cx="15.24"
       id="circle4956-5-8-6-4"
       style="display:inline;vector-effect:none;fill:#ff0000;fill-opacity:1;fill-rule:evenodd;stroke:none;stroke-width:1;stroke-linecap:butt;stroke-linejoin:miter;stroke-miterlimit:4;stroke-dasharray:none;stroke-dashoffset:0;stroke-opacity:1;paint-order:normal"
       inkscape:label="p_durationrange" />
    <circle
       r="4"
       cy="27.299023"
       cx="15.319"
       id="circle4956-5-8-6-1"
       style="display:inline;vector-effect:none;fill:#ff00ff;fill-opacity:1;fill-rule:evenodd;stroke:none;stroke-width:1;stroke-linecap:butt;stroke-linejoin:miter;stroke-miterlimit:4;stroke-dasharray:none;stroke-dashoffset:0;stroke-opacity:1;paint-order:normal"
       inkscape:label="i_process" />
    <circle
       cy="27.299023"
       cx="22.103031"
       id="circle4956-5-8-6-9"
       style="display:inline;vector-effect:none;fill:#ff0000;fill-opacity:1;fill-rule:evenodd;stroke:none;stroke-width:1;stroke-linecap:butt;stroke-linejoin:miter;stroke-miterlimit:4;stroke-dasharray:none;stroke-dashoffset:0;stroke-opacity:1;paint-order:normal"
       inkscape:label="p_duration"
       r="4" />
    <circle
       r="4"
       cy="58.233337"
       cx="22.103033"
       id="circle4956-5-8-6-9-0"
       style="display:inline;vector-effect:none;fill:#ff0000;fill-opacity:1;fill-rule:evenodd;stroke:none;stroke-width:1;stroke-linecap:butt;stroke-linejoin:miter;stroke-miterlimit:4;stroke-dasharray:none;stroke-dashoffset:0;stroke-opacity:1;paint-order:normal"
       inkscape:label="p_scale1" />
    <circle
       r="4"
       cy="68.62249"
       cx="22.103033"
       id="circle4956-5-8-6-9-0-8"
       style="display:inline;vector-effect:none;fill:#ff0000;fill-opacity:1;fill-rule:evenodd;stroke:none;stroke-width:1;stroke-linecap:butt;stroke-linejoin:miter;stroke-miterlimit:4;stroke-dasharray:none;stroke-dashoffset:0;stroke-opacity:1;paint-order:normal"
       inkscape:label="p_offset1" />
    <circle
       r="4"
       cy="84.872002"
       cx="8.5352678"
       id="circle4956-5-2-0"
       style="display:inline;vector-effect:none;fill:#00ff00;fill-opacity:1;fill-rule:evenodd;stroke:none;stroke-width:1;stroke-linecap:butt;stroke-linejoin:miter;stroke-miterlimit:4;stroke-dasharray:none;stroke-dashoffset:0;stroke-opacity:1;paint-order:normal"
       inkscape:label="i_endcv" />
    <circle
       r="4"
       cy="79.677628"
       cx="22.103033"
       id="circle4956-5-8-6-9-0-1"
       style="display:inline;vector-effect:none;fill:#ff0000;fill-opacity:1;fill-rule:evenodd;stroke:none;stroke-width:1;stroke-linecap:butt;stroke-linejoin:miter;stroke-miterlimit:4;stroke-dasharray:none;stroke-dashoffset:0;stroke-opacity:1;paint-order:normal"
       inkscape:label="p_scale2" />
    <circle
       r="4"
       cy="90.066772"
       cx="22.103033"
       id="circle4956-5-8-6-9-0-8-0"
       style="display:inline;vector-effect:none;fill:#ff0000;fill-opacity:1;fill-rule:evenodd;stroke:none;stroke-width:1;stroke-linecap:butt;stroke-linejoin:miter;stroke-miterlimit:4;stroke-dasharray:none;stroke-dashoffset:0;stroke-opacity:1;paint-order:normal"
       inkscape:label="p_offset2" />
    <circle
       r="4"
       cy="114.28848"
       cx="15.204854"
       id="circle4956-5-8-6-9-0-8-0-9"
       style="display:inline;vector-effect:none;fill:#0000ff;fill-opacity:1;fill-rule:evenodd;stroke:none;stroke-width:1;stroke-linecap:butt;stroke-linejoin:miter;stroke-miterlimit:4;stroke-dasharray:none;stroke-dashoffset:0;stroke-opacity:1;paint-order:normal"
       inkscape:label="o_cv1" />
    <text
       xml:space="preserve"
       transform="scale(0.26458333)"
       id="text38920"
       style="font-size:13.3333px;line-height:1.25;font-family:sans-serif;white-space:pre;shape-inside:url(#rect38922)" />
  </g>
  <g
     inkscape:groupmode="layer"
     id="layer4"
     inkscape:label="text"
     style="display:none">
    <text
       xml:space="preserve"
       style="font-size:2.82222px;line-height:1.25;font-family:sans-serif;display:inline;stroke-width:0.264583"
       x="18.195606"
       y="232.7735"
       id="text6846-1"
       transform="translate(0,-168.49998)"><tspan
         sodipodi:role="line"
         id="tspan6844-8"
         style="font-size:2.82222px;stroke-width:0.264583"
         x="18.195606"
         y="232.7735">Scale</tspan></text>
    <text
       xml:space="preserve"
       style="font-size:2.82222px;line-height:1.25;font-family:sans-serif;display:inline;stroke-width:0.264583"
       x="10.170201"
       y="7.6466718"
       id="text2854"><tspan
         sodipodi:role="line"
         id="tspan2852"
         style="font-size:2.82222px;stroke-width:0.264583"
         x="10.170201"
         y="7.6466718">Trigger</tspan></text>
    <text
       xml:space="preserve"
       style="font-size:2.82222px;line-height:1.25;font-family:sans-serif;display:inline;stroke-width:0.264583"
       x="9.0946426"
       y="21.618805"
       id="text4640"><tspan
         sodipodi:role="line"
         id="tspan4638"
         style="font-size:2.82222px;stroke-width:0.264583"
         x="9.0946426"
         y="21.618805">Duration</tspan></text>
    <text
       xml:space="preserve"
       style="font-size:2.82222px;line-height:1.25;font-family:sans-serif;display:inline;stroke-width:0.264583"
       x="11.437995"
       y="44.25565"
       id="text6846"><tspan
         sodipodi:role="line"
         id="tspan6844"
         style="font-size:2.82222px;stroke-width:0.264583"
         x="11.437995"
         y="44.25565">Scale</tspan></text>
    <text
       xml:space="preserve"
       style="font-size:2.82222px;line-height:1.25;font-family:sans-serif;display:inline;stroke-width:0.264583"
       x="17.70006"
       y="74.935951"
       id="text7620"><tspan
         sodipodi:role="line"
         id="tspan7618"
         style="font-size:2.82222px;stroke-width:0.264583"
         x="17.70006"
         y="74.935951">Offset</tspan></text>
    <text
       xml:space="preserve"
       style="font-size:2.82222px;line-height:1.25;font-family:sans-serif;display:inline;stroke-width:0.264583"
       x="18.002264"
       y="91.627129"
       id="text6846-1-0"><tspan
         sodipodi:role="line"
         id="tspan6844-8-1"
         style="font-size:2.82222px;stroke-width:0.264583"
         x="18.002264"
         y="91.627129">Scale</tspan></text>
    <text
       xml:space="preserve"
       style="font-size:2.82222px;line-height:1.25;font-family:sans-serif;display:inline;stroke-width:0.264583"
       x="17.506718"
       y="102.28955"
       id="text7620-6"><tspan
         sodipodi:role="line"
         id="tspan7618-4"
         style="font-size:2.82222px;stroke-width:0.264583"
         x="17.506718"
         y="102.28955">Offset</tspan></text>
    <text
       xml:space="preserve"
       style="font-size:2.82222px;line-height:1.25;font-family:sans-serif;display:inline;fill:#ffffff;stroke-width:0.264583"
       x="12.629997"
       y="117.94772"
       id="text8064"><tspan
         sodipodi:role="line"
         id="tspan8062"
         style="font-size:2.82222px;fill:#ffffff;stroke-width:0.264583"
         x="12.629997"
         y="117.94772">Out</tspan></text>
    <text
       xml:space="preserve"
       style="font-size:2.82222px;line-height:1.25;font-family:sans-serif;display:inline;fill:#fdf2dd;stroke-width:0.264583"
       x="21.172773"
       y="118.22488"
       id="text8064-8"><tspan
         sodipodi:role="line"
         id="tspan8062-3"
         style="font-size:2.82222px;fill:#fdf2dd;stroke-width:0.264583"
         x="21.172773"
         y="118.22488">EoC</tspan></text>
    <text
       xml:space="preserve"
       style="font-size:2.82222px;line-height:1.25;font-family:sans-serif;display:inline;stroke-width:0.264583"
       x="3.476352"
       y="56.58884"
       id="text8992"><tspan
         sodipodi:role="line"
         id="tspan8990"
         style="font-size:2.82222px;stroke-width:0.264583"
         x="3.476352"
         y="56.58884">Input 1</tspan></text>
    <text
       xml:space="preserve"
       style="font-size:2.82222px;line-height:1.25;font-family:sans-serif;display:inline;stroke-width:0.264583"
       x="3.476352"
       y="83.766579"
       id="text9700"><tspan
         sodipodi:role="line"
         id="tspan9698"
         style="font-size:2.82222px;stroke-width:0.264583"
         x="3.476352"
         y="83.766579">Input 2</tspan></text>
  </g>
  <g
     inkscape:groupmode="layer"
     id="layer5"
     inkscape:label="text path"
     style="display:inline">
    <g
       aria-label="Trig"
       id="text83512"
       style="font-weight:500;font-size:2.82223px;line-height:1.25;font-family:Futura;-inkscape-font-specification:'Futura Medium';fill:#603601;stroke-width:0.264583">
      <path
         d="M 13.784099,8.3017913 V 10.127697 H 13.463015 V 8.3017913 H 12.97381 V 8.0000001 h 1.298115 v 0.3017912 z"
         id="path101547" />
      <path
         d="m 14.401461,8.785484 h 0.31006 v 0.1198897 q 0.08544,-0.089573 0.151584,-0.1226457 0.06752,-0.034451 0.159853,-0.034451 0.122646,0 0.256316,0.079926 L 15.137336,9.11208 q -0.08819,-0.06339 -0.172256,-0.06339 -0.253559,0 -0.253559,0.3830957 v 0.6959113 h -0.31006 z"
         id="path101549" />
      <path
         d="m 15.811887,8.785484 v 1.342213 H 15.501828 V 8.785484 Z M 15.454974,8.227377 q 0,-0.081304 0.05926,-0.1405603 0.05926,-0.059256 0.141939,-0.059256 0.08406,0 0.143316,0.059256 0.05926,0.057878 0.05926,0.1419384 0,0.08406 -0.05926,0.1433163 -0.05788,0.059256 -0.141938,0.059256 -0.08406,0 -0.143317,-0.059256 -0.05926,-0.059256 -0.05926,-0.1446944 z"
         id="path101551" />
      <path
         d="m 17.50619,10.096002 q 0,0.09508 -0.0069,0.166743 -0.0055,0.07304 -0.01654,0.128158 -0.03307,0.151585 -0.129536,0.26045 -0.181901,0.209462 -0.500229,0.209462 -0.268718,0 -0.442351,-0.144694 -0.179146,-0.148829 -0.206707,-0.412035 h 0.311438 q 0.01791,0.09922 0.05926,0.152963 0.09646,0.125402 0.28112,0.125402 0.340377,0 0.340377,-0.417547 V 9.9774904 q -0.184658,0.1887916 -0.425815,0.1887916 -0.274231,0 -0.449242,-0.1984379 -0.176389,-0.2011941 -0.176389,-0.5029853 0,-0.293523 0.163987,-0.4988512 0.176389,-0.2177307 0.465778,-0.2177307 0.25356,0 0.421681,0.1887918 V 8.785484 H 17.50619 Z M 17.208533,9.4593466 q 0,-0.195682 -0.104731,-0.3128155 -0.106109,-0.1198897 -0.271474,-0.1198897 -0.17639,0 -0.278365,0.130914 -0.09233,0.1171336 -0.09233,0.3031692 0,0.1832796 0.09233,0.3004132 0.100597,0.1281579 0.278365,0.1281579 0.177767,0 0.28112,-0.1295359 0.09508,-0.1171336 0.09508,-0.3004132 z"
         id="path101553" />
    </g>
    <text
       xml:space="preserve"
       style="font-weight:500;font-size:2.82223px;line-height:1.25;font-family:Futura;-inkscape-font-specification:'Futura Medium';display:inline;fill:#603601;stroke-width:0.264583"
       x="35.117699"
       y="27.465353"
       id="text83512-3-3"><tspan
         sodipodi:role="line"
         id="tspan83510-4-7"
         style="fill:#603601;stroke-width:0.264583"
         x="35.117699"
         y="27.465353">Trig</tspan></text>
    <g
       aria-label="Prob"
       id="text83512-3-3-04"
       style="font-weight:500;font-size:2.82223px;line-height:1.25;font-family:Futura;-inkscape-font-specification:'Futura Medium';display:inline;fill:#603601;stroke-width:0.264583"
       transform="translate(-22.761883,6.837357)">
      <path
         d="m 35.540011,17.626124 v 0.864032 h -0.321084 v -2.127697 h 0.363803 q 0.26734,0 0.403766,0.03721 0.137805,0.03721 0.242536,0.140561 0.183279,0.179145 0.183279,0.451997 0,0.292145 -0.195682,0.463023 -0.195681,0.170877 -0.52779,0.170877 z m 0,-0.297657 H 35.6599 q 0.442352,0 0.442352,-0.340377 0,-0.329352 -0.456132,-0.329352 h -0.106109 z"
         id="path173628" />
      <path
         d="m 36.686542,17.147943 h 0.310059 v 0.11989 q 0.08544,-0.08957 0.151585,-0.122646 0.06752,-0.03445 0.159853,-0.03445 0.122646,0 0.256316,0.07993 l -0.141939,0.283876 q -0.08819,-0.06339 -0.172255,-0.06339 -0.25356,0 -0.25356,0.383096 v 0.695911 h -0.310059 z"
         id="path173630" />
      <path
         d="m 37.658062,17.809403 q 0,-0.290766 0.208084,-0.494717 0.208084,-0.20395 0.507119,-0.20395 0.300413,0 0.509876,0.205328 0.206706,0.205329 0.206706,0.504364 0,0.301791 -0.208084,0.505741 -0.209463,0.202572 -0.51401,0.202572 -0.301791,0 -0.505741,-0.206706 -0.20395,-0.20395 -0.20395,-0.512632 z m 0.316949,0.0055 q 0,0.201194 0.107487,0.318327 0.110244,0.118512 0.290767,0.118512 0.181902,0 0.290767,-0.117134 0.108866,-0.117133 0.108866,-0.312815 0,-0.195682 -0.108866,-0.312816 -0.110243,-0.118511 -0.290767,-0.118511 -0.177767,0 -0.28801,0.118511 -0.110244,0.118512 -0.110244,0.305926 z"
         id="path173632" />
      <path
         d="m 39.730637,16.162643 v 1.141019 q 0.186036,-0.192926 0.421681,-0.192926 0.271474,0 0.451998,0.202572 0.180523,0.201194 0.180523,0.501608 0,0.310059 -0.181901,0.512631 -0.180524,0.201194 -0.456132,0.201194 -0.23289,0 -0.416169,-0.179145 v 0.14056 h -0.31006 v -2.327513 z m 0.737252,1.666053 q 0,-0.192926 -0.104731,-0.314194 -0.106109,-0.124023 -0.265962,-0.124023 -0.170877,0 -0.278364,0.119889 -0.10611,0.118512 -0.10611,0.308682 0,0.195682 0.104732,0.312815 0.104731,0.11989 0.275608,0.11989 0.161231,0 0.26734,-0.11989 0.107487,-0.121267 0.107487,-0.303169 z"
         id="path173634" />
    </g>
    <g
       aria-label="In"
       id="text83512-3-3-0"
       style="font-weight:500;font-size:2.82223px;line-height:1.25;font-family:Futura;-inkscape-font-specification:'Futura Medium';display:inline;fill:#603601;stroke-width:0.264583"
       transform="translate(-28.794924,98.229973)">
      <path
         d="m 36.290778,18.770027 v 2.127697 h -0.321084 v -2.127697 z"
         id="path168578" />
      <path
         d="m 36.742775,19.555511 h 0.311438 v 0.124024 q 0.162609,-0.161231 0.366559,-0.161231 0.234267,0 0.365181,0.147451 0.113,0.125401 0.113,0.409278 v 0.822691 h -0.311438 v -0.749655 q 0,-0.198438 -0.05512,-0.27423 -0.05374,-0.07717 -0.195682,-0.07717 -0.15434,0 -0.219108,0.101975 -0.06339,0.100597 -0.06339,0.3514 v 0.64768 h -0.311438 z"
         id="path168580" />
    </g>
    <g
       aria-label="Some"
       id="text83512-3-16"
       style="font-weight:500;font-size:3.52778px;line-height:1.25;font-family:Futura;-inkscape-font-specification:'Futura Medium';display:inline;fill:#603601;stroke-width:0.264583"
       transform="translate(-24.154679,-10.193132)">
      <path
         d="m 35.8618,12.948067 q -0.112889,-0.09172 -0.225778,-0.134056 -0.112889,-0.04586 -0.218722,-0.04586 -0.134056,0 -0.218723,0.0635 -0.08467,0.0635 -0.08467,0.165806 0,0.07056 0.04233,0.116417 0.04233,0.04586 0.109361,0.08114 0.07056,0.03175 0.155222,0.05644 0.08819,0.0247 0.172862,0.05292 0.338667,0.112889 0.493889,0.303389 0.15875,0.186972 0.15875,0.490361 0,0.204612 -0.07056,0.370417 -0.06703,0.165806 -0.201083,0.28575 -0.130528,0.116417 -0.324556,0.179917 -0.1905,0.06703 -0.433917,0.06703 -0.504472,0 -0.934862,-0.299861 l 0.296334,-0.557389 q 0.155222,0.137583 0.306917,0.204611 0.151694,0.06703 0.299861,0.06703 0.169334,0 0.250473,-0.07761 0.08467,-0.07761 0.08467,-0.176389 0,-0.05997 -0.02117,-0.102305 -0.02117,-0.04586 -0.07056,-0.08114 -0.04939,-0.03881 -0.130528,-0.07056 -0.07761,-0.03175 -0.1905,-0.07055 -0.134056,-0.04233 -0.264583,-0.09172 -0.127001,-0.05292 -0.229306,-0.137583 -0.09878,-0.08467 -0.162278,-0.211667 -0.05997,-0.130528 -0.05997,-0.328083 0,-0.197556 0.0635,-0.356306 0.06703,-0.162278 0.183444,-0.275167 0.119945,-0.116417 0.289278,-0.179917 0.172861,-0.0635 0.384528,-0.0635 0.197556,0 0.412751,0.05645 0.215194,0.05292 0.41275,0.15875 z"
         style="font-weight:bold;-inkscape-font-specification:'Futura Bold'"
         id="path142650" />
      <path
         d="m 37.225232,14.013457 q 0,0.09172 0.03175,0.169333 0.03528,0.07408 0.08819,0.130528 0.05644,0.05644 0.130528,0.08819 0.07761,0.03175 0.162278,0.03175 0.08467,0 0.15875,-0.03175 0.07761,-0.03175 0.130528,-0.08819 0.05645,-0.05645 0.0882,-0.130528 0.03528,-0.07761 0.03528,-0.165806 0,-0.08467 -0.03528,-0.15875 -0.03175,-0.07761 -0.0882,-0.134055 -0.05292,-0.05645 -0.130528,-0.08819 -0.07408,-0.03175 -0.15875,-0.03175 -0.08467,0 -0.162278,0.03175 -0.07408,0.03175 -0.130528,0.08819 -0.05292,0.05644 -0.08819,0.130528 -0.03175,0.07408 -0.03175,0.15875 z m -0.673806,-0.0071 q 0,-0.201083 0.08114,-0.373945 0.08114,-0.176389 0.225778,-0.303389 0.144639,-0.130528 0.342194,-0.204611 0.201084,-0.07408 0.437445,-0.07408 0.232834,0 0.430389,0.07408 0.201084,0.07056 0.345723,0.201084 0.148166,0.127 0.229305,0.306916 0.08114,0.176389 0.08114,0.391584 0,0.215195 -0.08467,0.395111 -0.08114,0.176389 -0.225778,0.306917 -0.144639,0.127 -0.349251,0.197556 -0.201083,0.07056 -0.437444,0.07056 -0.232834,0 -0.430389,-0.07056 -0.197556,-0.07056 -0.342195,-0.201084 -0.141111,-0.130527 -0.22225,-0.310444 -0.08114,-0.183445 -0.08114,-0.405695 z"
         style="font-weight:bold;-inkscape-font-specification:'Futura Bold'"
         id="path142652" />
      <path
         d="M 39.088672,13.117401 H 39.7272 v 0.22225 q 0.261056,-0.250473 0.585611,-0.250473 0.402167,0 0.613834,0.338667 0.215195,-0.342195 0.613834,-0.342195 0.127,0 0.239889,0.03881 0.112889,0.03528 0.194028,0.116417 0.08114,0.07761 0.127,0.204611 0.04939,0.127 0.04939,0.306917 v 1.174751 h -0.638528 v -0.892529 q 0,-0.137583 -0.02117,-0.225778 -0.01764,-0.08819 -0.05644,-0.137583 -0.03528,-0.04939 -0.08467,-0.06703 -0.04939,-0.01764 -0.105834,-0.01764 -0.306917,0 -0.306917,0.448028 v 0.892529 H 40.2987 v -0.892529 q 0,-0.137583 -0.01764,-0.225778 -0.01764,-0.09172 -0.05292,-0.144639 -0.03175,-0.05292 -0.08467,-0.07056 -0.05292,-0.02117 -0.123472,-0.02117 -0.05997,0 -0.112889,0.01764 -0.05292,0.01764 -0.09525,0.07056 -0.03881,0.04939 -0.0635,0.141111 -0.02117,0.08819 -0.02117,0.232833 v 0.892529 h -0.638528 z"
         style="font-weight:bold;-inkscape-font-specification:'Futura Bold'"
         id="path142654" />
      <path
         d="m 43.911809,13.759456 q -0.03175,-0.134055 -0.130528,-0.215194 -0.09878,-0.08114 -0.239889,-0.08114 -0.148167,0 -0.243417,0.07761 -0.09172,0.07761 -0.116417,0.218722 z m -0.74789,0.370417 q 0,0.412751 0.388056,0.412751 0.208139,0 0.313972,-0.169334 h 0.617362 q -0.186972,0.62089 -0.934862,0.62089 -0.229305,0 -0.419806,-0.06703 -0.1905,-0.07056 -0.328083,-0.197556 -0.134056,-0.127 -0.208139,-0.303389 -0.07408,-0.176389 -0.07408,-0.395111 0,-0.225778 0.07056,-0.405695 0.07056,-0.183445 0.201084,-0.310445 0.130527,-0.127 0.313972,-0.194028 0.186972,-0.07055 0.419806,-0.07055 0.229305,0 0.41275,0.07055 0.183445,0.06703 0.310445,0.197556 0.127,0.130528 0.194028,0.321028 0.06703,0.186972 0.06703,0.423334 v 0.06703 z"
         style="font-weight:bold;-inkscape-font-specification:'Futura Bold'"
         id="path142656" />
    </g>
  </g>
</svg>
