<?xml version="1.0" encoding="UTF-8" standalone="no"?>
<!-- Created with Inkscape (http://www.inkscape.org/) -->

<svg
   width="98.559998mm"
   height="128.5mm"
   viewBox="0 0 98.560007 128.50002"
   version="1.1"
   id="svg8"
   inkscape:version="1.1.2 (b8e25be8, 2022-02-05)"
   sodipodi:docname="Together.svg"
   xmlns:inkscape="http://www.inkscape.org/namespaces/inkscape"
   xmlns:sodipodi="http://sodipodi.sourceforge.net/DTD/sodipodi-0.dtd"
   xmlns="http://www.w3.org/2000/svg"
   xmlns:svg="http://www.w3.org/2000/svg"
   xmlns:rdf="http://www.w3.org/1999/02/22-rdf-syntax-ns#"
   xmlns:cc="http://creativecommons.org/ns#"
   xmlns:dc="http://purl.org/dc/elements/1.1/">
  <defs
     id="defs2">
    <rect
       x="-20.954651"
       y="233.72495"
       width="84.62455"
       height="149.1004"
       id="rect38922" />
  </defs>
  <sodipodi:namedview
     id="base"
     pagecolor="#ffffff"
     bordercolor="#666666"
     borderopacity="1.0"
     inkscape:pageopacity="0.0"
     inkscape:pageshadow="2"
     inkscape:zoom="1.4434105"
     inkscape:cx="216.50113"
     inkscape:cy="119.50862"
     inkscape:document-units="mm"
     inkscape:current-layer="layer1"
     showgrid="false"
     units="mm"
     inkscape:snap-bbox="true"
     inkscape:snap-page="true"
     inkscape:bbox-nodes="false"
     inkscape:snap-bbox-edge-midpoints="false"
     inkscape:window-width="1280"
     inkscape:window-height="674"
     inkscape:window-x="0"
     inkscape:window-y="25"
     inkscape:window-maximized="0"
     inkscape:snap-bbox-midpoints="true"
     inkscape:snap-nodes="true"
     inkscape:pagecheckerboard="1"
     showguides="true"
     inkscape:guide-bbox="true"
     width="91.44mm">
    <sodipodi:guide
       position="16.690215,0"
       orientation="0,-1"
       id="guide4988" />
    <sodipodi:guide
       position="11.188626,1.4071148"
       orientation="0,-1"
       id="guide4990" />
    <sodipodi:guide
       position="98.984158,-13.585758"
       orientation="0,-1"
       id="guide4992" />
    <sodipodi:guide
       position="98.84819,-10.730446"
       orientation="0,-1"
       id="guide4994" />
  </sodipodi:namedview>
  <metadata
     id="metadata5">
    <rdf:RDF>
      <cc:Work
         rdf:about="">
        <dc:format>image/svg+xml</dc:format>
        <dc:type
           rdf:resource="http://purl.org/dc/dcmitype/StillImage" />
      </cc:Work>
    </rdf:RDF>
  </metadata>
  <g
     inkscape:label="Layer 1"
     inkscape:groupmode="layer"
     id="layer1"
     transform="translate(0,-168.49998)"
     style="display:inline">
    <rect
       style="display:inline;opacity:1;vector-effect:none;fill:#fdf2dd;fill-opacity:1;fill-rule:evenodd;stroke:none;stroke-width:1.16769;stroke-linecap:butt;stroke-linejoin:miter;stroke-miterlimit:4;stroke-dasharray:none;stroke-dashoffset:0;stroke-opacity:1;paint-order:normal"
       id="rect420"
       width="98.559998"
       height="128.5"
       x="0"
       y="168.49997" />
    <rect
       style="font-variation-settings:normal;display:inline;fill:#d2b48c;fill-opacity:1;stroke:none;stroke-width:5.35272;stroke-linecap:butt;stroke-linejoin:miter;stroke-miterlimit:4;stroke-dasharray:none;stroke-dashoffset:0;stroke-opacity:1;stop-color:#000000"
       id="rect643-9-3-8-9"
       width="98.559998"
       height="114.0163"
       x="0"
       y="174.49998" />
    <g
       id="g4831"
       transform="matrix(0.01816436,7.0347027e-4,-6.8602665e-4,0.01862623,46.430604,289.59875)"
       style="fill:#1c0a00;fill-opacity:1">
      <path
         d="M 14.257,275.602 C -17.052,220.391 4.253,133.798 69.023,69.01 142.576,-4.533 244.279,-22.066 296.205,29.85 c 0.061,0.068 0.112,0.145 0.195,0.214 C 286.008,60.299 252.914,124.631 153.714,159.412 62.842,191.29 27.788,241.972 14.257,275.602 Z M 310.81,48.75 c -7.871,18.361 -21.57,42.356 -45.173,65.957 -23.725,23.735 -57.445,47.046 -105.208,63.8 C 63.49,212.5 36.405,268.149 28.848,295.116 c 0.357,0.36 0.664,0.733 1.011,1.083 51.921,51.918 153.628,34.386 227.176,-39.169 65.444,-65.445 86.491,-153.161 53.775,-208.28 z"
         id="path4829"
         style="fill:#1c0a00;fill-opacity:1" />
    </g>
    <g
       aria-label="Together"
       id="text6705"
       style="font-weight:bold;font-size:3.52778px;line-height:1.25;font-family:Futura;-inkscape-font-specification:'Futura Bold';display:inline;stroke-width:0.264583"
       transform="translate(3.5599938,168.49998)">
      <path
         d="M 38.677532,2.853723 V 4.9280577 H 37.986087 V 2.853723 H 37.418115 V 2.2681115 h 1.82739 V 2.853723 Z"
         style="fill:#1c0a00"
         id="path11672" />
      <path
         d="m 39.965615,4.0143626 q 0,0.091722 0.03175,0.1693335 0.03528,0.074083 0.08819,0.1305278 0.05644,0.056444 0.130528,0.088195 0.07761,0.03175 0.162277,0.03175 0.08467,0 0.158751,-0.03175 0.07761,-0.03175 0.130527,-0.088195 0.05645,-0.056444 0.08819,-0.1305278 0.03528,-0.077611 0.03528,-0.1658057 0,-0.084667 -0.03528,-0.1587501 -0.03175,-0.077611 -0.08819,-0.1340556 -0.05292,-0.056445 -0.130527,-0.088195 -0.07408,-0.03175 -0.158751,-0.03175 -0.08467,0 -0.162277,0.03175 -0.07408,0.03175 -0.130528,0.088195 -0.05292,0.056445 -0.08819,0.1305278 -0.03175,0.074083 -0.03175,0.1587501 z m -0.673806,-0.00706 q 0,-0.2010835 0.08114,-0.3739447 0.08114,-0.176389 0.225778,-0.3033891 0.144639,-0.1305279 0.342195,-0.2046112 0.201083,-0.074083 0.437444,-0.074083 0.232834,0 0.43039,0.074083 0.201083,0.070556 0.345722,0.2010834 0.148167,0.1270001 0.229306,0.3069169 0.08114,0.176389 0.08114,0.3915836 0,0.2151946 -0.08467,0.3951113 -0.08114,0.176389 -0.225778,0.3069169 -0.144639,0.1270001 -0.34925,0.1975557 -0.201084,0.070556 -0.437445,0.070556 -0.232833,0 -0.430389,-0.070556 -0.197556,-0.070556 -0.342195,-0.2010835 -0.141111,-0.1305278 -0.22225,-0.3104446 -0.08114,-0.1834446 -0.08114,-0.4056947 z"
         style="fill:#1c0a00"
         id="path11674" />
      <path
         d="m 42.424972,4.0143626 q 0,0.088195 0.03175,0.1658057 0.03175,0.074083 0.08467,0.1305279 0.05645,0.056444 0.130528,0.088195 0.07761,0.03175 0.165806,0.03175 0.08467,0 0.15875,-0.03175 0.07761,-0.03175 0.130528,-0.088195 0.05644,-0.056444 0.08819,-0.1305279 0.03528,-0.077611 0.03528,-0.1622779 0,-0.088194 -0.03528,-0.1622779 -0.03175,-0.074083 -0.08819,-0.1305278 -0.05645,-0.056445 -0.134056,-0.088195 -0.07408,-0.03175 -0.155222,-0.03175 -0.08467,0 -0.15875,0.035278 -0.07408,0.03175 -0.130528,0.088195 -0.05645,0.052917 -0.09172,0.127 -0.03175,0.074083 -0.03175,0.1587501 z M 43.85725,3.1183065 v 1.6862789 q 0,0.1516945 -0.01764,0.271639 -0.01764,0.1199446 -0.04939,0.2116668 -0.04233,0.1164168 -0.134055,0.2151946 -0.0882,0.1023056 -0.215195,0.176389 -0.127,0.074083 -0.289278,0.1164168 -0.15875,0.042333 -0.345722,0.042333 -0.211667,0 -0.388056,-0.052917 Q 42.241527,5.7323915 42.107471,5.6371415 41.976943,5.5454192 41.892277,5.4184191 41.80761,5.2949468 41.779388,5.14678 h 0.719667 q 0.06703,0.1799168 0.303389,0.1799168 0.201083,0 0.306917,-0.1128889 0.109361,-0.112889 0.109361,-0.3139725 V 4.7269742 q -0.07056,0.067028 -0.137583,0.112889 -0.0635,0.042333 -0.130528,0.070556 -0.06703,0.028222 -0.141111,0.038806 -0.07408,0.014111 -0.162278,0.014111 -0.194028,0 -0.356306,-0.067028 -0.162278,-0.067028 -0.282222,-0.1869724 -0.116417,-0.1199445 -0.183445,-0.2857502 -0.0635,-0.1693334 -0.0635,-0.3739447 0,-0.208139 0.07055,-0.384528 0.07056,-0.1799168 0.190501,-0.3104446 0.123472,-0.1340557 0.289278,-0.2081391 0.169333,-0.077611 0.366889,-0.077611 0.321028,0 0.53975,0.239889 V 3.1183065 Z"
         style="fill:#1c0a00"
         id="path11676" />
      <path
         d="m 45.656861,3.7603625 q -0.03175,-0.1340557 -0.130527,-0.2151946 -0.09878,-0.081139 -0.23989,-0.081139 -0.148166,0 -0.243416,0.077611 -0.09172,0.077611 -0.116417,0.2187224 z m -0.747889,0.3704169 q 0,0.4127502 0.388056,0.4127502 0.208139,0 0.313972,-0.1693334 h 0.617362 q -0.186973,0.6208893 -0.934862,0.6208893 -0.229306,0 -0.419806,-0.067028 -0.1905,-0.070556 -0.328083,-0.1975557 -0.134056,-0.1270001 -0.208139,-0.3033891 -0.07408,-0.176389 -0.07408,-0.3951114 0,-0.2257779 0.07056,-0.4056947 0.07055,-0.1834445 0.201083,-0.3104446 0.130528,-0.1270001 0.313973,-0.1940279 0.186972,-0.070556 0.419806,-0.070556 0.229305,0 0.41275,0.070556 Q 45.865,3.1888621 45.992,3.31939 q 0.127001,0.1305278 0.194028,0.321028 0.06703,0.1869723 0.06703,0.4233336 v 0.067028 z"
         style="fill:#1c0a00"
         id="path11678" />
      <path
         d="M 47.35284,3.6510013 V 4.9280577 H 46.714312 V 3.6510013 H 46.502645 V 3.1183065 h 0.211667 V 2.5750284 h 0.638528 v 0.5432781 h 0.363361 v 0.5326948 z"
         style="fill:#1c0a00"
         id="path11680" />
      <path
         d="m 48.039598,2.0000002 h 0.638528 v 1.347612 q 0.130528,-0.1587501 0.264583,-0.2116668 0.134056,-0.056445 0.313973,-0.056445 0.342194,0 0.515056,0.1905001 0.176389,0.1869724 0.176389,0.5080004 V 4.9280577 H 49.309598 V 4.0143626 q 0,-0.1375834 -0.02117,-0.2222501 -0.02117,-0.084667 -0.07056,-0.1305279 -0.08467,-0.074083 -0.204611,-0.074083 -0.162278,0 -0.250473,0.098778 -0.08467,0.09525 -0.08467,0.2751668 v 0.9666118 h -0.638528 z"
         style="fill:#1c0a00"
         id="path11682" />
      <path
         d="m 51.705955,3.7603625 q -0.03175,-0.1340557 -0.130528,-0.2151946 -0.09878,-0.081139 -0.239889,-0.081139 -0.148167,0 -0.243417,0.077611 -0.09172,0.077611 -0.116416,0.2187224 z m -0.747889,0.3704169 q 0,0.4127502 0.388056,0.4127502 0.208139,0 0.313972,-0.1693334 h 0.617361 q -0.186972,0.6208893 -0.934861,0.6208893 -0.229306,0 -0.419806,-0.067028 -0.1905,-0.070556 -0.328084,-0.1975557 -0.134055,-0.1270001 -0.208139,-0.3033891 -0.07408,-0.176389 -0.07408,-0.3951114 0,-0.2257779 0.07056,-0.4056947 0.07055,-0.1834445 0.201083,-0.3104446 0.130528,-0.1270001 0.313972,-0.1940279 0.186973,-0.070556 0.419806,-0.070556 0.229306,0 0.412751,0.070556 0.183444,0.067028 0.310444,0.1975557 0.127,0.1305278 0.194028,0.321028 0.06703,0.1869723 0.06703,0.4233336 v 0.067028 z"
         style="fill:#1c0a00"
         id="path11684" />
      <path
         d="M 52.663692,3.1183065 H 53.30222 V 3.41464 q 0.102305,-0.1622779 0.250472,-0.2469446 0.148167,-0.088194 0.345723,-0.088194 0.02469,0 0.05292,0 0.03175,0 0.07056,0.00706 v 0.6103059 q -0.127,-0.0635 -0.275167,-0.0635 -0.22225,0 -0.335139,0.1340556 -0.109361,0.1305279 -0.109361,0.3845281 V 4.9280626 H 52.6637 Z"
         style="fill:#1c0a00"
         id="path11686" />
    </g>
    <text
       xml:space="preserve"
       style="font-weight:500;font-size:2.82223px;line-height:1.25;font-family:Futura;-inkscape-font-specification:'Futura Medium';fill:#603601;stroke-width:0.264583"
       x="114.52097"
       y="202.12234"
       id="text17729"><tspan
         sodipodi:role="line"
         id="tspan17727"
         style="fill:#603601;stroke-width:0.264583"
         x="114.52097"
         y="202.12234">Trig</tspan></text>
    <g
       aria-label="Trig"
       id="text17729-56"
       style="font-weight:500;font-size:2.82223px;line-height:1.25;font-family:Futura;-inkscape-font-specification:'Futura Medium';display:inline;fill:#603601;stroke-width:0.264583"
       transform="translate(2.6889191,-34.487436)">
      <path
         d="m 67.472927,189.80176 v 1.82591 h -0.321084 v -1.82591 h -0.489205 v -0.30179 h 1.298116 v 0.30179 z"
         id="path40534"
         style="fill:#603601" />
      <path
         d="m 68.09029,190.28546 h 0.310059 v 0.11989 q 0.08544,-0.0896 0.151585,-0.12265 0.06752,-0.0344 0.159853,-0.0344 0.122645,0 0.256316,0.0799 l -0.141939,0.28387 q -0.08819,-0.0634 -0.172255,-0.0634 -0.25356,0 -0.25356,0.3831 v 0.69591 H 68.09029 Z"
         id="path40536"
         style="fill:#603601" />
      <path
         d="m 69.500716,190.28546 v 1.34221 h -0.31006 v -1.34221 z m -0.356913,-0.55811 q 0,-0.0813 0.05926,-0.14056 0.05926,-0.0593 0.141938,-0.0593 0.08406,0 0.143316,0.0593 0.05926,0.0579 0.05926,0.14194 0,0.0841 -0.05926,0.14331 -0.05788,0.0593 -0.141938,0.0593 -0.08406,0 -0.143316,-0.0593 -0.05926,-0.0592 -0.05926,-0.14469 z"
         id="path40538"
         style="fill:#603601" />
      <path
         d="m 71.195019,191.59598 q 0,0.0951 -0.0069,0.16674 -0.0055,0.073 -0.01654,0.12816 -0.03307,0.15158 -0.129536,0.26045 -0.181902,0.20946 -0.500229,0.20946 -0.268719,0 -0.442352,-0.1447 -0.179145,-0.14882 -0.206706,-0.41203 h 0.311437 q 0.01792,0.0992 0.05926,0.15296 0.09646,0.1254 0.281121,0.1254 0.340376,0 0.340376,-0.41754 v -0.18742 q -0.184658,0.1888 -0.425815,0.1888 -0.27423,0 -0.449242,-0.19844 -0.176389,-0.2012 -0.176389,-0.50299 0,-0.29352 0.163987,-0.49885 0.176389,-0.21773 0.465778,-0.21773 0.25356,0 0.421681,0.18879 v -0.15158 h 0.31006 z m -0.297658,-0.63666 q 0,-0.19568 -0.104731,-0.31282 -0.106109,-0.11989 -0.271474,-0.11989 -0.176389,0 -0.278364,0.13092 -0.09233,0.11713 -0.09233,0.30317 0,0.18328 0.09233,0.30041 0.100597,0.12816 0.278364,0.12816 0.177767,0 0.281121,-0.12954 0.09508,-0.11713 0.09508,-0.30041 z"
         id="path40540"
         style="fill:#603601" />
    </g>
    <g
       aria-label="Reset"
       id="text17729-7"
       style="font-weight:500;font-size:2.82223px;line-height:1.25;font-family:Futura;-inkscape-font-specification:'Futura Medium';display:inline;fill:#603601;stroke-width:0.264583"
       transform="translate(34.662365,-15.39756)">
      <path
         d="m 37.876525,177.72092 0.658704,0.90675 h -0.392742 l -0.607716,-0.87092 h -0.05788 v 0.87092 h -0.321084 v -2.1277 h 0.376206 q 0.42168,0 0.609094,0.15848 0.206706,0.17639 0.206706,0.46578 0,0.226 -0.129536,0.3886 -0.129535,0.16261 -0.341754,0.20809 z m -0.399632,-0.24391 h 0.101975 q 0.456132,0 0.456132,-0.34865 0,-0.3266 -0.44373,-0.3266 h -0.114377 z"
         id="path40505"
         style="fill:#603601" />
      <path
         d="m 39.971838,178.0296 h -0.961873 q 0.0124,0.16537 0.107487,0.26321 0.09508,0.0965 0.243913,0.0965 0.115756,0 0.191548,-0.0551 0.07441,-0.0551 0.169499,-0.20395 l 0.261828,0.14607 q -0.06063,0.10335 -0.128158,0.17777 -0.06752,0.073 -0.144694,0.12126 -0.07717,0.0469 -0.166743,0.0689 -0.08957,0.0221 -0.194304,0.0221 -0.300413,0 -0.482315,-0.19293 -0.181901,-0.1943 -0.181901,-0.51539 0,-0.31833 0.176389,-0.51539 0.177767,-0.1943 0.47129,-0.1943 0.296279,0 0.468535,0.18879 0.170877,0.18742 0.170877,0.51952 z m -0.318328,-0.25356 q -0.06477,-0.24805 -0.312815,-0.24805 -0.0565,0 -0.10611,0.0179 -0.04961,0.0165 -0.09095,0.0496 -0.03996,0.0317 -0.0689,0.0772 -0.02894,0.0455 -0.0441,0.10335 z"
         id="path40507"
         style="fill:#603601" />
      <path
         d="m 41.090119,177.51421 -0.256316,0.13643 q -0.06063,-0.12403 -0.150206,-0.12403 -0.04272,0 -0.07304,0.0289 -0.03032,0.0276 -0.03032,0.0717 0,0.0772 0.179146,0.15296 0.246669,0.10611 0.332108,0.19569 0.08544,0.0896 0.08544,0.24115 0,0.19431 -0.143317,0.32522 -0.139182,0.12403 -0.336242,0.12403 -0.33762,0 -0.478181,-0.32936 l 0.264585,-0.12264 q 0.05512,0.0965 0.08406,0.12264 0.0565,0.0524 0.135048,0.0524 0.157097,0 0.157097,-0.14332 0,-0.0827 -0.121268,-0.15434 -0.04685,-0.0234 -0.09371,-0.0455 -0.04685,-0.0221 -0.09508,-0.0455 -0.135049,-0.0661 -0.19017,-0.13229 -0.07028,-0.0841 -0.07028,-0.21635 0,-0.17501 0.119889,-0.28939 0.122646,-0.11438 0.297657,-0.11438 0.257694,0 0.383096,0.26596 z"
         id="path40509"
         style="fill:#603601" />
      <path
         d="m 42.679002,178.0296 h -0.961874 q 0.0124,0.16537 0.107488,0.26321 0.09508,0.0965 0.243913,0.0965 0.115756,0 0.191548,-0.0551 0.07441,-0.0551 0.169499,-0.20395 l 0.261828,0.14607 q -0.06063,0.10335 -0.128158,0.17777 -0.06752,0.073 -0.144694,0.12126 -0.07717,0.0469 -0.166743,0.0689 -0.08957,0.0221 -0.194304,0.0221 -0.300414,0 -0.482315,-0.19293 -0.181902,-0.1943 -0.181902,-0.51539 0,-0.31833 0.17639,-0.51539 0.177767,-0.1943 0.47129,-0.1943 0.296279,0 0.468534,0.18879 0.170878,0.18742 0.170878,0.51952 z m -0.318328,-0.25356 q -0.06477,-0.24805 -0.312816,-0.24805 -0.0565,0 -0.106109,0.0179 -0.04961,0.0165 -0.09095,0.0496 -0.03996,0.0317 -0.0689,0.0772 -0.02894,0.0455 -0.0441,0.10335 z"
         id="path40511"
         style="fill:#603601" />
      <path
         d="m 43.359755,177.57485 v 1.05282 h -0.31006 v -1.05282 h -0.132292 v -0.28939 h 0.132292 v -0.49196 h 0.31006 v 0.49196 h 0.241157 v 0.28939 z"
         id="path40513"
         style="fill:#603601" />
    </g>
    <g
       aria-label="Trig"
       id="text17729-5"
       style="font-weight:500;font-size:2.82223px;line-height:1.25;font-family:Futura;-inkscape-font-specification:'Futura Medium';display:inline;fill:#603601;stroke-width:0.264583"
       transform="translate(47.468652,-15.39756)">
      <path
         d="m 16.389335,176.80176 v 1.82591 h -0.321084 v -1.82591 h -0.489205 v -0.30179 h 1.298115 v 0.30179 z"
         id="path19248" />
      <path
         d="m 17.006697,177.28546 h 0.31006 v 0.11989 q 0.08544,-0.0896 0.151584,-0.12265 0.06752,-0.0344 0.159853,-0.0344 0.122646,0 0.256316,0.0799 l -0.141938,0.28387 q -0.08819,-0.0634 -0.172255,-0.0634 -0.25356,0 -0.25356,0.3831 v 0.69591 h -0.31006 z"
         id="path19250" />
      <path
         d="m 18.417123,177.28546 v 1.34221 h -0.310059 v -1.34221 z m -0.356912,-0.55811 q 0,-0.0813 0.05926,-0.14056 0.05926,-0.0593 0.141939,-0.0593 0.08406,0 0.143316,0.0593 0.05926,0.0579 0.05926,0.14194 0,0.0841 -0.05926,0.14331 -0.05788,0.0593 -0.141938,0.0593 -0.08406,0 -0.143317,-0.0593 -0.05926,-0.0592 -0.05926,-0.14469 z"
         id="path19252" />
      <path
         d="m 20.111426,178.59598 q 0,0.0951 -0.0069,0.16674 -0.0055,0.073 -0.01654,0.12816 -0.03307,0.15158 -0.129536,0.26045 -0.181901,0.20946 -0.500229,0.20946 -0.268718,0 -0.442351,-0.1447 -0.179146,-0.14882 -0.206707,-0.41203 h 0.311438 q 0.01791,0.0992 0.05926,0.15296 0.09646,0.1254 0.28112,0.1254 0.340377,0 0.340377,-0.41754 v -0.18742 q -0.184658,0.1888 -0.425815,0.1888 -0.274231,0 -0.449242,-0.19844 -0.176389,-0.2012 -0.176389,-0.50299 0,-0.29352 0.163987,-0.49885 0.176389,-0.21773 0.465778,-0.21773 0.25356,0 0.421681,0.18879 v -0.15158 h 0.310059 z m -0.297657,-0.63666 q 0,-0.19568 -0.104731,-0.31282 -0.106109,-0.11989 -0.271474,-0.11989 -0.17639,0 -0.278365,0.13092 -0.09233,0.11713 -0.09233,0.30317 0,0.18328 0.09233,0.30041 0.100597,0.12816 0.278365,0.12816 0.177767,0 0.28112,-0.12954 0.09509,-0.11713 0.09509,-0.30041 z"
         id="path19254" />
    </g>
    <g
       aria-label="Gate"
       id="text17729-56-0"
       style="font-weight:500;font-size:2.82223px;line-height:1.25;font-family:Futura;-inkscape-font-specification:'Futura Medium';display:inline;fill:#603601;stroke-width:0.264583"
       transform="translate(-1.767574,-33.127794)">
      <path
         d="m 81.781202,190.56108 h 0.87919 v 0.0703 q 0,0.23978 -0.0565,0.42443 -0.05512,0.17088 -0.186036,0.31971 -0.296279,0.33348 -0.753789,0.33348 -0.446486,0 -0.764813,-0.32246 -0.318328,-0.32384 -0.318328,-0.77721 0,-0.46302 0.32384,-0.78549 0.32384,-0.32384 0.78824,-0.32384 0.249425,0 0.465778,0.10198 0.206706,0.10197 0.406522,0.33073 l -0.228755,0.21911 q -0.261827,-0.34865 -0.638033,-0.34865 -0.33762,0 -0.566375,0.23289 -0.228755,0.22876 -0.228755,0.57327 0,0.35553 0.254938,0.58567 0.238401,0.21359 0.516765,0.21359 0.237024,0 0.425815,-0.15985 0.188792,-0.16123 0.210841,-0.38585 h -0.530546 z"
         id="path40561"
         style="fill:#603601" />
      <path
         d="m 83.992959,190.32681 h 0.311438 v 1.34221 h -0.311438 v -0.14056 q -0.191548,0.17915 -0.412034,0.17915 -0.278365,0 -0.460266,-0.2012 -0.180524,-0.20533 -0.180524,-0.51263 0,-0.30179 0.180524,-0.50298 0.180523,-0.2012 0.451997,-0.2012 0.234267,0 0.420303,0.19293 z m -0.735874,0.66697 q 0,0.19293 0.103353,0.31419 0.106109,0.12265 0.26734,0.12265 0.172255,0 0.278364,-0.11851 0.10611,-0.12265 0.10611,-0.31144 0,-0.18879 -0.10611,-0.31144 -0.106109,-0.11989 -0.275608,-0.11989 -0.159853,0 -0.26734,0.12127 -0.106109,0.12265 -0.106109,0.30317 z"
         id="path40563"
         style="fill:#603601" />
      <path
         d="m 85.015466,190.6162 v 1.05282 h -0.310059 v -1.05282 h -0.132292 v -0.28939 h 0.132292 v -0.49196 h 0.310059 v 0.49196 h 0.241158 v 0.28939 z"
         id="path40565"
         style="fill:#603601" />
      <path
         d="m 86.713214,191.07095 h -0.961873 q 0.0124,0.16537 0.107487,0.26321 0.09508,0.0965 0.243914,0.0965 0.115755,0 0.191547,-0.0551 0.07441,-0.0551 0.1695,-0.20395 l 0.261828,0.14607 q -0.06063,0.10335 -0.128158,0.17777 -0.06752,0.073 -0.144695,0.12127 -0.07717,0.0469 -0.166743,0.0689 -0.08957,0.022 -0.194304,0.022 -0.300413,0 -0.482314,-0.19293 -0.181902,-0.1943 -0.181902,-0.51539 0,-0.31832 0.176389,-0.51538 0.177768,-0.19431 0.471291,-0.19431 0.296279,0 0.468534,0.18879 0.170877,0.18742 0.170877,0.51953 z m -0.318328,-0.25356 q -0.06477,-0.24805 -0.312815,-0.24805 -0.0565,0 -0.106109,0.0179 -0.04961,0.0165 -0.09095,0.0496 -0.03996,0.0317 -0.0689,0.0772 -0.02894,0.0455 -0.0441,0.10335 z"
         id="path40567"
         style="fill:#603601" />
    </g>
  </g>
  <g
     inkscape:groupmode="layer"
     id="layer3"
     inkscape:label="hide"
     style="display:none">
    <rect
       style="font-variation-settings:normal;display:inline;fill:#603601;fill-opacity:1;stroke:none;stroke-width:2.62508;stroke-linecap:butt;stroke-linejoin:miter;stroke-miterlimit:4;stroke-dasharray:none;stroke-dashoffset:0;stroke-opacity:1;stop-color:#000000"
       id="rect643-9-3-1"
       width="30.48"
       x="60.959999"
       y="187.5537"
       height="88.669823"
       transform="translate(0,-168.49998)" />
    <rect
       style="font-variation-settings:normal;display:inline;fill:#603601;fill-opacity:1;stroke:none;stroke-width:1.64926;stroke-linecap:butt;stroke-linejoin:miter;stroke-miterlimit:4;stroke-dasharray:none;stroke-dashoffset:0;stroke-opacity:1;stop-color:#000000"
       id="rect643-9-3"
       width="76.199997"
       x="15.24"
       y="274.49997"
       height="14"
       transform="translate(0,-168.49998)" />
  </g>
  <g
     id="layer2"
     inkscape:label="components"
     style="display:none"
     inkscape:groupmode="layer">
    <circle
       r="4"
       cy="12.91222"
       cx="8.5352678"
       id="circle4956-5"
       style="display:inline;vector-effect:none;fill:#00ff00;fill-opacity:1;fill-rule:evenodd;stroke:none;stroke-width:1;stroke-linecap:butt;stroke-linejoin:miter;stroke-miterlimit:4;stroke-dasharray:none;stroke-dashoffset:0;stroke-opacity:1;paint-order:normal"
       inkscape:label="i_trig" />
    <circle
       cy="27.299023"
       cx="8.5352678"
       id="circle4956-5-9"
       style="display:inline;vector-effect:none;fill:#00ff00;fill-opacity:1;fill-rule:evenodd;stroke:none;stroke-width:1;stroke-linecap:butt;stroke-linejoin:miter;stroke-miterlimit:4;stroke-dasharray:none;stroke-dashoffset:0;stroke-opacity:1;paint-order:normal"
       inkscape:label="i_dur"
       r="4" />
    <circle
       r="4"
       cy="62.628754"
       cx="8.5352678"
       id="circle4956-5-2"
       style="display:inline;vector-effect:none;fill:#00ff00;fill-opacity:1;fill-rule:evenodd;stroke:none;stroke-width:1;stroke-linecap:butt;stroke-linejoin:miter;stroke-miterlimit:4;stroke-dasharray:none;stroke-dashoffset:0;stroke-opacity:1;paint-order:normal"
       inkscape:label="i_startcv" />
    <circle
       r="4"
       cy="12.91222"
       cx="22.103033"
       id="circle4956-5-8"
       style="display:inline;vector-effect:none;fill:#ff0000;fill-opacity:1;fill-rule:evenodd;stroke:none;stroke-width:1;stroke-linecap:butt;stroke-linejoin:miter;stroke-miterlimit:4;stroke-dasharray:none;stroke-dashoffset:0;stroke-opacity:1;paint-order:normal"
       inkscape:label="p_trig1" />
    <circle
       r="4"
       cy="36.923317"
       cx="15.212074"
       id="circle4956-5-8-6"
       style="display:inline;vector-effect:none;fill:#ff0000;fill-opacity:1;fill-rule:evenodd;stroke:none;stroke-width:1;stroke-linecap:butt;stroke-linejoin:miter;stroke-miterlimit:4;stroke-dasharray:none;stroke-dashoffset:0;stroke-opacity:1;paint-order:normal"
       inkscape:label="p_durationrange" />
    <circle
       r="4"
       cy="49.029243"
       cx="15.24"
       id="circle4956-5-8-6-4"
       style="display:inline;vector-effect:none;fill:#ff0000;fill-opacity:1;fill-rule:evenodd;stroke:none;stroke-width:1;stroke-linecap:butt;stroke-linejoin:miter;stroke-miterlimit:4;stroke-dasharray:none;stroke-dashoffset:0;stroke-opacity:1;paint-order:normal"
       inkscape:label="p_durationrange" />
    <circle
       r="4"
       cy="27.299023"
       cx="15.319"
       id="circle4956-5-8-6-1"
       style="display:inline;vector-effect:none;fill:#ff00ff;fill-opacity:1;fill-rule:evenodd;stroke:none;stroke-width:1;stroke-linecap:butt;stroke-linejoin:miter;stroke-miterlimit:4;stroke-dasharray:none;stroke-dashoffset:0;stroke-opacity:1;paint-order:normal"
       inkscape:label="i_process" />
    <circle
       cy="27.299023"
       cx="22.103031"
       id="circle4956-5-8-6-9"
       style="display:inline;vector-effect:none;fill:#ff0000;fill-opacity:1;fill-rule:evenodd;stroke:none;stroke-width:1;stroke-linecap:butt;stroke-linejoin:miter;stroke-miterlimit:4;stroke-dasharray:none;stroke-dashoffset:0;stroke-opacity:1;paint-order:normal"
       inkscape:label="p_duration"
       r="4" />
    <circle
       r="4"
       cy="58.233337"
       cx="22.103033"
       id="circle4956-5-8-6-9-0"
       style="display:inline;vector-effect:none;fill:#ff0000;fill-opacity:1;fill-rule:evenodd;stroke:none;stroke-width:1;stroke-linecap:butt;stroke-linejoin:miter;stroke-miterlimit:4;stroke-dasharray:none;stroke-dashoffset:0;stroke-opacity:1;paint-order:normal"
       inkscape:label="p_scale1" />
    <circle
       r="4"
       cy="68.62249"
       cx="22.103033"
       id="circle4956-5-8-6-9-0-8"
       style="display:inline;vector-effect:none;fill:#ff0000;fill-opacity:1;fill-rule:evenodd;stroke:none;stroke-width:1;stroke-linecap:butt;stroke-linejoin:miter;stroke-miterlimit:4;stroke-dasharray:none;stroke-dashoffset:0;stroke-opacity:1;paint-order:normal"
       inkscape:label="p_offset1" />
    <circle
       r="4"
       cy="84.872002"
       cx="8.5352678"
       id="circle4956-5-2-0"
       style="display:inline;vector-effect:none;fill:#00ff00;fill-opacity:1;fill-rule:evenodd;stroke:none;stroke-width:1;stroke-linecap:butt;stroke-linejoin:miter;stroke-miterlimit:4;stroke-dasharray:none;stroke-dashoffset:0;stroke-opacity:1;paint-order:normal"
       inkscape:label="i_endcv" />
    <circle
       r="4"
       cy="79.677628"
       cx="22.103033"
       id="circle4956-5-8-6-9-0-1"
       style="display:inline;vector-effect:none;fill:#ff0000;fill-opacity:1;fill-rule:evenodd;stroke:none;stroke-width:1;stroke-linecap:butt;stroke-linejoin:miter;stroke-miterlimit:4;stroke-dasharray:none;stroke-dashoffset:0;stroke-opacity:1;paint-order:normal"
       inkscape:label="p_scale2" />
    <circle
       r="4"
       cy="90.066772"
       cx="22.103033"
       id="circle4956-5-8-6-9-0-8-0"
       style="display:inline;vector-effect:none;fill:#ff0000;fill-opacity:1;fill-rule:evenodd;stroke:none;stroke-width:1;stroke-linecap:butt;stroke-linejoin:miter;stroke-miterlimit:4;stroke-dasharray:none;stroke-dashoffset:0;stroke-opacity:1;paint-order:normal"
       inkscape:label="p_offset2" />
    <circle
       r="4"
       cy="114.28848"
       cx="15.204854"
       id="circle4956-5-8-6-9-0-8-0-9"
       style="display:inline;vector-effect:none;fill:#0000ff;fill-opacity:1;fill-rule:evenodd;stroke:none;stroke-width:1;stroke-linecap:butt;stroke-linejoin:miter;stroke-miterlimit:4;stroke-dasharray:none;stroke-dashoffset:0;stroke-opacity:1;paint-order:normal"
       inkscape:label="o_cv1" />
    <text
       xml:space="preserve"
       transform="scale(0.26458333)"
       id="text38920"
       style="font-size:13.3333px;line-height:1.25;font-family:sans-serif;white-space:pre;shape-inside:url(#rect38922)" />
  </g>
  <g
     inkscape:groupmode="layer"
     id="layer4"
     inkscape:label="text"
     style="display:none">
    <text
       xml:space="preserve"
       style="font-size:2.82222px;line-height:1.25;font-family:sans-serif;display:inline;fill:#ffffff;stroke-width:0.264583"
       x="109.68298"
       y="120.57733"
       id="text8064"><tspan
         sodipodi:role="line"
         id="tspan8062"
         style="font-size:2.82222px;fill:#ffffff;stroke-width:0.264583"
         x="109.68298"
         y="120.57733">Out</tspan></text>
    <text
       xml:space="preserve"
       style="font-size:2.82222px;line-height:1.25;font-family:sans-serif;display:inline;fill:#fdf2dd;stroke-width:0.264583"
       x="118.22576"
       y="120.85448"
       id="text8064-8"><tspan
         sodipodi:role="line"
         id="tspan8062-3"
         style="font-size:2.82222px;fill:#fdf2dd;stroke-width:0.264583"
         x="118.22576"
         y="120.85448">EoC</tspan></text>
  </g>
  <g
     inkscape:groupmode="layer"
     id="layer5"
     inkscape:label="text path"
     style="display:none">
    <g
       aria-label="Travel"
       id="text75165"
       style="font-weight:500;font-size:3.52777px;line-height:1.25;font-family:Futura;-inkscape-font-specification:'Futura Medium';fill:#1c0a00;stroke-width:0.264583">
      <path
         d="M 10.848367,2.8537203 V 4.9280491 H 10.156924 V 2.8537203 H 9.5889531 V 2.2681105 h 1.8273849 v 0.5856098 z"
         style="font-weight:bold;-inkscape-font-specification:'Futura Bold';fill:#1c0a00"
         id="path80179" />
      <path
         d="m 11.588978,3.1183031 h 0.638527 v 0.2963326 q 0.102305,-0.1622774 0.250471,-0.2469439 0.148167,-0.088194 0.345722,-0.088194 0.02469,0 0.05292,0 0.03175,0 0.07056,0.00706 V 3.696862 q -0.127,-0.0635 -0.275166,-0.0635 -0.22225,0 -0.335138,0.1340552 -0.109361,0.1305275 -0.109361,0.384527 v 0.7761094 h -0.638527 z"
         style="font-weight:bold;-inkscape-font-specification:'Futura Bold';fill:#1c0a00"
         id="path80181" />
      <path
         d="m 13.843334,4.0178844 q 0,0.088194 0.03175,0.1658052 0.03175,0.074083 0.08467,0.1305275 0.05644,0.056444 0.130527,0.088194 0.07761,0.03175 0.165806,0.03175 0.08467,0 0.158749,-0.03175 0.07761,-0.03175 0.130528,-0.088194 0.05644,-0.056444 0.08819,-0.1305275 0.03528,-0.074083 0.03528,-0.1587496 0,-0.084666 -0.03528,-0.1587497 -0.03175,-0.077611 -0.08819,-0.1340553 -0.05292,-0.056444 -0.130528,-0.088194 -0.07408,-0.03175 -0.158749,-0.03175 -0.0882,0 -0.165806,0.03175 -0.07408,0.03175 -0.130527,0.088194 -0.05292,0.056444 -0.08467,0.1305275 -0.03175,0.070555 -0.03175,0.1552219 z m 0.804331,-0.8995813 h 0.642054 v 1.809746 H 14.647665 V 4.7269662 q -0.204611,0.2575272 -0.55386,0.2575272 -0.197555,0 -0.36336,-0.070555 Q 13.56464,4.8398548 13.441168,4.7093273 13.317696,4.5787999 13.24714,4.4024114 13.18011,4.2260228 13.18011,4.0178844 q 0,-0.1940273 0.06703,-0.3668881 0.06703,-0.1763885 0.186972,-0.306916 0.119944,-0.1305275 0.28575,-0.2046106 0.165805,-0.077611 0.366888,-0.077611 0.338666,0 0.560915,0.2363606 z"
         style="font-weight:bold;-inkscape-font-specification:'Futura Bold';fill:#1c0a00"
         id="path80183" />
      <path
         d="m 16.258034,3.1183031 0.430388,0.9278035 0.437443,-0.9278035 h 0.71261 L 16.89656,4.9280491 H 16.4697 l -0.931331,-1.809746 z"
         style="font-weight:bold;-inkscape-font-specification:'Futura Bold';fill:#1c0a00"
         id="path80185" />
      <path
         d="m 19.293797,3.7603572 q -0.03175,-0.1340553 -0.130528,-0.215194 -0.09878,-0.081139 -0.239888,-0.081139 -0.148167,0 -0.243416,0.077611 -0.09172,0.077611 -0.116417,0.2187217 z m -0.747888,0.3704159 q 0,0.4127491 0.388055,0.4127491 0.208138,0 0.313972,-0.169333 h 0.617359 q -0.186972,0.6208875 -0.934859,0.6208875 -0.229305,0 -0.419804,-0.067028 -0.1905,-0.070555 -0.328083,-0.1975551 -0.134055,-0.1269998 -0.208138,-0.3033883 -0.07408,-0.1763885 -0.07408,-0.3951102 0,-0.2257773 0.07056,-0.4056936 0.07055,-0.183444 0.201083,-0.3104437 0.130527,-0.1269997 0.313971,-0.1940274 0.186972,-0.070555 0.419805,-0.070555 0.229305,0 0.412749,0.070555 0.183444,0.067028 0.310444,0.1975551 Q 19.755942,3.449913 19.82297,3.6404126 19.89,3.8273844 19.89,4.063745 v 0.067028 z"
         style="font-weight:bold;-inkscape-font-specification:'Futura Bold';fill:#1c0a00"
         id="path80187" />
      <path
         d="M 20.891046,2 V 4.9280491 H 20.25252 V 2 Z"
         style="font-weight:bold;-inkscape-font-specification:'Futura Bold';fill:#1c0a00"
         id="path80189" />
    </g>
    <g
       aria-label="Trig"
       id="text83512"
       style="font-weight:500;font-size:2.82223px;line-height:1.25;font-family:Futura;-inkscape-font-specification:'Futura Medium';fill:#603601;stroke-width:0.264583">
      <path
         d="M 13.784099,8.3017913 V 10.127697 H 13.463015 V 8.3017913 H 12.97381 V 8.0000001 h 1.298115 v 0.3017912 z"
         id="path101547" />
      <path
         d="m 14.401461,8.785484 h 0.31006 v 0.1198897 q 0.08544,-0.089573 0.151584,-0.1226457 0.06752,-0.034451 0.159853,-0.034451 0.122646,0 0.256316,0.079926 L 15.137336,9.11208 q -0.08819,-0.06339 -0.172256,-0.06339 -0.253559,0 -0.253559,0.3830957 v 0.6959113 h -0.31006 z"
         id="path101549" />
      <path
         d="m 15.811887,8.785484 v 1.342213 H 15.501828 V 8.785484 Z M 15.454974,8.227377 q 0,-0.081304 0.05926,-0.1405603 0.05926,-0.059256 0.141939,-0.059256 0.08406,0 0.143316,0.059256 0.05926,0.057878 0.05926,0.1419384 0,0.08406 -0.05926,0.1433163 -0.05788,0.059256 -0.141938,0.059256 -0.08406,0 -0.143317,-0.059256 -0.05926,-0.059256 -0.05926,-0.1446944 z"
         id="path101551" />
      <path
         d="m 17.50619,10.096002 q 0,0.09508 -0.0069,0.166743 -0.0055,0.07304 -0.01654,0.128158 -0.03307,0.151585 -0.129536,0.26045 -0.181901,0.209462 -0.500229,0.209462 -0.268718,0 -0.442351,-0.144694 -0.179146,-0.148829 -0.206707,-0.412035 h 0.311438 q 0.01791,0.09922 0.05926,0.152963 0.09646,0.125402 0.28112,0.125402 0.340377,0 0.340377,-0.417547 V 9.9774904 q -0.184658,0.1887916 -0.425815,0.1887916 -0.274231,0 -0.449242,-0.1984379 -0.176389,-0.2011941 -0.176389,-0.5029853 0,-0.293523 0.163987,-0.4988512 0.176389,-0.2177307 0.465778,-0.2177307 0.25356,0 0.421681,0.1887918 V 8.785484 H 17.50619 Z M 17.208533,9.4593466 q 0,-0.195682 -0.104731,-0.3128155 -0.106109,-0.1198897 -0.271474,-0.1198897 -0.17639,0 -0.278365,0.130914 -0.09233,0.1171336 -0.09233,0.3031692 0,0.1832796 0.09233,0.3004132 0.100597,0.1281579 0.278365,0.1281579 0.177767,0 0.28112,-0.1295359 0.09508,-0.1171336 0.09508,-0.3004132 z"
         id="path101553" />
    </g>
    <text
       xml:space="preserve"
       style="font-weight:500;font-size:2.82223px;line-height:1.25;font-family:Futura;-inkscape-font-specification:'Futura Medium';display:inline;fill:#603601;stroke-width:0.264583"
       x="34.520641"
       y="47.665787"
       id="text83512-3"><tspan
         sodipodi:role="line"
         id="tspan83510-4"
         style="fill:#603601;stroke-width:0.264583"
         x="34.520641"
         y="47.665787">Trig</tspan></text>
    <g
       aria-label="Shape"
       id="text83512-3-9"
       style="font-weight:500;font-size:2.82223px;line-height:1.25;font-family:Futura;-inkscape-font-specification:'Futura Medium';display:inline;fill:#603601;stroke-width:0.264583">
      <path
         d="m 12.617586,43.516767 -0.26045,0.154341 q -0.07304,-0.12678 -0.139182,-0.165365 -0.0689,-0.0441 -0.177768,-0.0441 -0.13367,0 -0.221864,0.07579 -0.0882,0.07441 -0.0882,0.187414 0,0.155719 0.231511,0.250803 l 0.212218,0.08682 q 0.259072,0.104731 0.378962,0.256316 0.11989,0.150206 0.11989,0.369315 0,0.293523 -0.195682,0.485071 -0.19706,0.192926 -0.489205,0.192926 -0.276987,0 -0.45751,-0.163987 -0.177768,-0.163987 -0.221865,-0.461644 l 0.325218,-0.07166 q 0.02205,0.187413 0.07717,0.259071 0.09922,0.137805 0.289389,0.137805 0.150207,0 0.249426,-0.100597 0.09922,-0.100597 0.09922,-0.254938 0,-0.06201 -0.01792,-0.113 -0.01654,-0.05237 -0.05374,-0.09509 -0.03583,-0.0441 -0.09371,-0.0813 -0.05788,-0.03858 -0.137805,-0.07304 l -0.205328,-0.08544 q -0.436839,-0.184657 -0.436839,-0.540192 0,-0.23978 0.183279,-0.401011 0.18328,-0.162609 0.456132,-0.162609 0.367938,0 0.574644,0.358291 z"
         id="path91583" />
      <path
         d="m 13.003438,43.000002 h 0.310059 v 1.096921 q 0.165365,-0.148828 0.365181,-0.148828 0.227377,0 0.363803,0.14745 0.115756,0.128158 0.115756,0.409279 v 0.822691 h -0.31006 v -0.793753 q 0,-0.16123 -0.05788,-0.232889 -0.0565,-0.07304 -0.18328,-0.07304 -0.162609,0 -0.228755,0.100597 -0.06477,0.101975 -0.06477,0.350023 v 0.649058 h -0.310059 z"
         id="path91585" />
      <path
         d="m 15.541791,43.985302 h 0.311438 v 1.342213 h -0.311438 v -0.140561 q -0.191548,0.179146 -0.412035,0.179146 -0.278364,0 -0.460266,-0.201194 -0.180523,-0.205329 -0.180523,-0.512632 0,-0.301791 0.180523,-0.502985 0.180524,-0.201194 0.451998,-0.201194 0.234267,0 0.420303,0.192925 z m -0.735874,0.666972 q 0,0.192926 0.103353,0.314194 0.106109,0.122645 0.26734,0.122645 0.172255,0 0.278364,-0.118511 0.10611,-0.122646 0.10611,-0.311438 0,-0.188792 -0.10611,-0.311437 -0.106109,-0.11989 -0.275608,-0.11989 -0.159853,0 -0.26734,0.121268 -0.106109,0.122646 -0.106109,0.303169 z"
         id="path91587" />
      <path
         d="m 16.554652,46.057877 h -0.310059 v -2.072575 h 0.310059 v 0.146072 q 0.18328,-0.183279 0.416169,-0.183279 0.276986,0 0.456132,0.20395 0.181901,0.202572 0.181901,0.511253 0,0.301792 -0.180523,0.502986 -0.179146,0.199816 -0.451998,0.199816 -0.235645,0 -0.421681,-0.188792 z m 0.737253,-1.393201 q 0,-0.192925 -0.104732,-0.314193 -0.106109,-0.122646 -0.26734,-0.122646 -0.170877,0 -0.276986,0.118512 -0.106109,0.118511 -0.106109,0.311437 0,0.188792 0.106109,0.311438 0.104731,0.119889 0.275608,0.119889 0.161231,0 0.265962,-0.121267 0.107488,-0.121268 0.107488,-0.30317 z"
         id="path91589" />
      <path
         d="m 19.159151,44.729444 h -0.961873 q 0.0124,0.165365 0.107487,0.263206 0.09509,0.09646 0.243914,0.09646 0.115755,0 0.191548,-0.05512 0.07441,-0.05512 0.169499,-0.203951 l 0.261828,0.146073 q -0.06063,0.103353 -0.128158,0.177767 -0.06752,0.07304 -0.144695,0.121268 -0.07717,0.04685 -0.166743,0.0689 -0.08957,0.02205 -0.194304,0.02205 -0.300413,0 -0.482314,-0.192926 -0.181902,-0.194304 -0.181902,-0.515388 0,-0.318327 0.17639,-0.515388 0.177767,-0.194303 0.47129,-0.194303 0.296279,0 0.468534,0.188791 0.170877,0.187414 0.170877,0.519522 z m -0.318327,-0.253559 q -0.06477,-0.248048 -0.312816,-0.248048 -0.0565,0 -0.106109,0.01792 -0.04961,0.01654 -0.09095,0.04961 -0.03996,0.03169 -0.0689,0.07717 -0.02894,0.04548 -0.0441,0.103353 z"
         id="path91591" />
    </g>
    <g
       aria-label="Duration"
       id="text83512-3-4"
       style="font-weight:500;font-size:2.82223px;line-height:1.25;font-family:Futura;-inkscape-font-specification:'Futura Medium';display:inline;fill:#603601;stroke-width:0.264583"
       transform="translate(0,3.533405)">
      <path
         d="m 9.945562,21.594292 v -2.127697 h 0.446486 q 0.321083,0 0.507119,0.06339 0.199816,0.06201 0.362425,0.21084 0.329352,0.300413 0.329352,0.789618 0,0.490583 -0.343132,0.793752 -0.172256,0.151585 -0.361047,0.210841 -0.17639,0.05926 -0.50023,0.05926 z M 10.266646,21.2925 h 0.144694 q 0.216353,0 0.359669,-0.04547 0.143317,-0.04823 0.259072,-0.152963 0.237023,-0.216352 0.237023,-0.563619 0,-0.350022 -0.234267,-0.567753 -0.21084,-0.194304 -0.621497,-0.194304 h -0.144694 z"
         id="path88902" />
      <path
         d="m 12.246892,20.252079 v 0.770325 q 0,0.333486 0.263206,0.333486 0.263206,0 0.263206,-0.333486 v -0.770325 h 0.31006 v 0.777215 q 0,0.161231 -0.03996,0.278365 -0.03859,0.104731 -0.13367,0.188792 -0.157097,0.136426 -0.399633,0.136426 -0.241157,0 -0.398254,-0.136426 -0.09646,-0.08406 -0.136426,-0.188792 -0.03858,-0.09371 -0.03858,-0.278365 v -0.777215 z"
         id="path88904" />
      <path
         d="m 13.474728,20.252079 h 0.310059 v 0.119889 q 0.08544,-0.08957 0.151585,-0.122645 0.06752,-0.03445 0.159853,-0.03445 0.122645,0 0.256316,0.07993 l -0.141939,0.283877 q -0.08819,-0.06339 -0.172255,-0.06339 -0.25356,0 -0.25356,0.383095 v 0.695912 h -0.310059 z"
         id="path88906" />
      <path
         d="m 15.501828,20.252079 h 0.311437 v 1.342213 h -0.311437 v -0.140561 q -0.191548,0.179146 -0.412035,0.179146 -0.278364,0 -0.460266,-0.201194 -0.180524,-0.205329 -0.180524,-0.512632 0,-0.301791 0.180524,-0.502985 0.180523,-0.201194 0.451998,-0.201194 0.234267,0 0.420303,0.192925 z m -0.735875,0.666972 q 0,0.192926 0.103353,0.314194 0.10611,0.122645 0.26734,0.122645 0.172256,0 0.278365,-0.118511 0.106109,-0.122646 0.106109,-0.311438 0,-0.188791 -0.106109,-0.311437 -0.106109,-0.11989 -0.275608,-0.11989 -0.159853,0 -0.267341,0.121268 -0.106109,0.122646 -0.106109,0.303169 z"
         id="path88908" />
      <path
         d="m 16.522957,20.541468 v 1.052824 h -0.31006 v -1.052824 h -0.132292 v -0.289389 h 0.132292 v -0.491961 h 0.31006 v 0.491961 h 0.241157 v 0.289389 z"
         id="path88910" />
      <path
         d="m 17.285014,20.252079 v 1.342213 h -0.310059 v -1.342213 z m -0.356913,-0.558107 q 0,-0.08131 0.05926,-0.140561 0.05926,-0.05926 0.141938,-0.05926 0.08406,0 0.143317,0.05926 0.05926,0.05788 0.05926,0.141939 0,0.08406 -0.05926,0.143316 -0.05788,0.05926 -0.141939,0.05926 -0.08406,0 -0.143316,-0.05926 -0.05926,-0.05926 -0.05926,-0.144694 z"
         id="path88912" />
      <path
         d="m 17.617122,20.913539 q 0,-0.290767 0.208084,-0.494717 0.208085,-0.20395 0.50712,-0.20395 0.300413,0 0.509875,0.205328 0.206707,0.205328 0.206707,0.504363 0,0.301791 -0.208085,0.505742 -0.209462,0.202572 -0.514009,0.202572 -0.301792,0 -0.505742,-0.206706 -0.20395,-0.203951 -0.20395,-0.512632 z m 0.31695,0.0055 q 0,0.201194 0.107487,0.318328 0.110243,0.118511 0.290767,0.118511 0.181901,0 0.290767,-0.117133 0.108865,-0.117134 0.108865,-0.312816 0,-0.195682 -0.108865,-0.312815 -0.110244,-0.118512 -0.290767,-0.118512 -0.177768,0 -0.288011,0.118512 -0.110243,0.118511 -0.110243,0.305925 z"
         id="path88914" />
      <path
         d="m 19.37826,20.252079 h 0.311438 v 0.124024 q 0.162609,-0.161231 0.366559,-0.161231 0.234267,0 0.365181,0.14745 0.112999,0.125402 0.112999,0.409279 v 0.822691 H 20.223 v -0.749655 q 0,-0.198438 -0.05512,-0.274231 -0.05374,-0.07717 -0.195682,-0.07717 -0.154341,0 -0.219109,0.101975 -0.06339,0.100597 -0.06339,0.351401 v 0.64768 H 19.37826 Z"
         id="path88916" />
    </g>
    <g
       aria-label="In2"
       id="text115964-9-0"
       style="font-weight:500;font-size:2.82223px;line-height:1.25;font-family:Futura;-inkscape-font-specification:'Futura Medium';display:inline;fill:#603601;stroke-width:0.264583"
       transform="translate(15.244244,-176.49999)">
      <path
         d="m 5.7495259,239.53582 v 2.12769 H 5.4284421 v -2.12769 z"
         id="path126335" />
      <path
         d="m 6.2015237,240.3213 h 0.3114375 v 0.12402 q 0.162609,-0.16123 0.3665592,-0.16123 0.2342671,0 0.3651811,0.14745 0.1129995,0.12541 0.1129995,0.40928 v 0.82269 H 7.0462635 v -0.74965 q 0,-0.19844 -0.055122,-0.27423 -0.053744,-0.0772 -0.195682,-0.0772 -0.1543407,0 -0.2191087,0.10197 -0.06339,0.1006 -0.06339,0.3514 v 0.64768 H 6.2015237 Z"
         id="path126337" />
      <path
         d="m 8.2616965,241.36172 h 0.7923742 v 0.30179 H 7.6250411 l 0.7386305,-0.89435 q 0.1088653,-0.13367 0.1819016,-0.23151 0.074414,-0.0978 0.1129994,-0.16398 0.078548,-0.12954 0.078548,-0.23289 0,-0.14883 -0.1047312,-0.24943 -0.1047312,-0.1006 -0.2590719,-0.1006 -0.3224618,0 -0.3693153,0.38172 H 7.6842969 q 0.07717,-0.67248 0.6793747,-0.67248 0.2907669,0 0.4878269,0.18465 0.198438,0.18466 0.198438,0.45751 0,0.17364 -0.092329,0.34038 -0.046853,0.0868 -0.1378042,0.20671 -0.089573,0.11851 -0.2273769,0.28112 z"
         id="path126339" />
    </g>
    <g
       aria-label="In1"
       id="text115964-9-8"
       style="font-weight:500;font-size:2.82223px;line-height:1.25;font-family:Futura;-inkscape-font-specification:'Futura Medium';display:inline;fill:#603601;stroke-width:0.264583"
       transform="translate(-0.22377861,-140.49997)">
      <path
         d="m 7.1863317,203.49997 v 2.1277 H 6.8652479 v -2.1277 z"
         id="path126203" />
      <path
         d="m 7.6383294,204.28546 h 0.3114375 v 0.12402 q 0.162609,-0.16123 0.3665592,-0.16123 0.2342672,0 0.3651812,0.14745 0.1129994,0.1254 0.1129994,0.40928 v 0.82269 H 8.4830692 v -0.74965 q 0,-0.19844 -0.055122,-0.27423 -0.053744,-0.0772 -0.195682,-0.0772 -0.1543407,0 -0.2191086,0.10198 -0.06339,0.1006 -0.06339,0.3514 v 0.64768 H 7.6383294 Z"
         id="path126205" />
      <path
         d="M 9.75638,203.80039 H 9.3884428 l 0.1763893,-0.30042 h 0.5126319 v 2.1277 H 9.75638 Z"
         id="path126207" />
    </g>
    <g
       aria-label="Out"
       id="text83512-3-1"
       style="font-weight:500;font-size:2.82223px;line-height:1.25;font-family:Futura;-inkscape-font-specification:'Futura Medium';display:inline;fill:#fdf2dd;stroke-width:0.264583"
       transform="translate(0,-168.49998)">
      <path
         d="m 5.9241982,286.59414 q 0,-0.44924 0.329352,-0.77171 0.327974,-0.32246 0.7882401,-0.32246 0.4547539,0 0.7799718,0.32522 0.3265959,0.32522 0.3265959,0.78135 0,0.45889 -0.327974,0.77859 -0.329352,0.32109 -0.7951302,0.32109 -0.4120346,0 -0.7400086,-0.28526 -0.361047,-0.31557 -0.361047,-0.82682 z m 0.3238399,0.004 q 0,0.35278 0.2370232,0.58016 0.2356452,0.22738 0.5443266,0.22738 0.3348642,0 0.5649972,-0.23152 0.2301331,-0.23426 0.2301331,-0.57051 0,-0.34037 -0.227377,-0.5705 -0.2259989,-0.23152 -0.559485,-0.23152 -0.3321082,0 -0.5608632,0.23152 -0.2287549,0.22875 -0.2287549,0.56499 z"
         id="path101410" />
      <path
         d="m 8.8056842,286.32542 v 0.77033 q 0,0.33348 0.263206,0.33348 0.263206,0 0.263206,-0.33348 v -0.77033 h 0.3100595 v 0.77722 q 0,0.16123 -0.039963,0.27836 -0.038585,0.10473 -0.1336701,0.18879 -0.1570968,0.13643 -0.3996322,0.13643 -0.2411574,0 -0.3982542,-0.13643 -0.096463,-0.0841 -0.1364261,-0.18879 -0.038585,-0.0937 -0.038585,-0.27836 v -0.77722 z"
         id="path101412" />
      <path
         d="m 10.353225,286.61481 v 1.05282 h -0.310059 v -1.05282 H 9.9108739 v -0.28939 h 0.1322921 v -0.49196 h 0.310059 v 0.49196 h 0.241158 v 0.28939 z"
         id="path101414" />
    </g>
    <g
       aria-label="EoC"
       id="text83512-3-7"
       style="font-weight:500;font-size:2.82223px;line-height:1.25;font-family:Futura;-inkscape-font-specification:'Futura Medium';display:inline;fill:#fdf2dd;stroke-width:0.264583"
       transform="translate(0,-168.49998)">
      <path
         d="m 21.225281,285.8431 h -0.853008 v 0.51125 h 0.828203 v 0.3018 h -0.828203 v 0.71107 h 0.853008 v 0.30179 h -1.174092 v -2.1277 h 1.174092 z"
         id="path101417" />
      <path
         d="m 21.527072,286.98825 q 0,-0.29076 0.208084,-0.49471 0.208085,-0.20395 0.50712,-0.20395 0.300413,0 0.509875,0.20532 0.206707,0.20533 0.206707,0.50437 0,0.30179 -0.208085,0.50574 -0.209462,0.20257 -0.514009,0.20257 -0.301791,0 -0.505742,-0.2067 -0.20395,-0.20396 -0.20395,-0.51264 z m 0.31695,0.006 q 0,0.20119 0.107487,0.31832 0.110243,0.11852 0.290767,0.11852 0.181901,0 0.290767,-0.11714 0.108865,-0.11713 0.108865,-0.31281 0,-0.19569 -0.108865,-0.31282 -0.110244,-0.11851 -0.290767,-0.11851 -0.177768,0 -0.288011,0.11851 -0.110243,0.11851 -0.110243,0.30593 z"
         id="path101419" />
      <path
         d="m 24.919812,285.65569 v 0.38034 q -0.278365,-0.23289 -0.576022,-0.23289 -0.327974,0 -0.552595,0.23564 -0.225999,0.23427 -0.225999,0.57327 0,0.33486 0.225999,0.565 0.225999,0.23013 0.553973,0.23013 0.169499,0 0.288011,-0.0551 0.06615,-0.0276 0.136426,-0.0744 0.07166,-0.0469 0.150207,-0.113 v 0.38723 q -0.275609,0.15572 -0.578778,0.15572 -0.456132,0 -0.778594,-0.31833 -0.321084,-0.32108 -0.321084,-0.77446 0,-0.40652 0.268719,-0.72485 0.33073,-0.38998 0.855764,-0.38998 0.286632,0 0.553973,0.15572 z"
         id="path101421" />
    </g>
  </g>
</svg>
