<?xml version="1.0" encoding="UTF-8" standalone="no"?>
<!-- Created with Inkscape (http://www.inkscape.org/) -->

<svg
   width="20.32mm"
   height="128.5mm"
   viewBox="0 0 20.320001 128.50002"
   version="1.1"
   id="svg8"
   inkscape:version="1.1.2 (b8e25be8, 2022-02-05)"
   sodipodi:docname="Travel.svg"
   xmlns:inkscape="http://www.inkscape.org/namespaces/inkscape"
   xmlns:sodipodi="http://sodipodi.sourceforge.net/DTD/sodipodi-0.dtd"
   xmlns="http://www.w3.org/2000/svg"
   xmlns:svg="http://www.w3.org/2000/svg"
   xmlns:rdf="http://www.w3.org/1999/02/22-rdf-syntax-ns#"
   xmlns:cc="http://creativecommons.org/ns#"
   xmlns:dc="http://purl.org/dc/elements/1.1/">
  <defs
     id="defs2">
    <rect
       x="-20.954651"
       y="233.72495"
       width="84.62455"
       height="149.1004"
       id="rect38922" />
  </defs>
  <sodipodi:namedview
     id="base"
     pagecolor="#ffffff"
     bordercolor="#666666"
     borderopacity="1.0"
     inkscape:pageopacity="0.0"
     inkscape:pageshadow="2"
     inkscape:zoom="1.3027167"
     inkscape:cx="58.723436"
     inkscape:cy="386.5"
     inkscape:document-units="mm"
     inkscape:current-layer="layer1"
     showgrid="false"
     units="mm"
     inkscape:snap-bbox="true"
     inkscape:snap-page="true"
     inkscape:bbox-nodes="false"
     inkscape:snap-bbox-edge-midpoints="false"
     inkscape:window-width="1280"
     inkscape:window-height="674"
     inkscape:window-x="0"
     inkscape:window-y="25"
     inkscape:window-maximized="0"
     inkscape:snap-bbox-midpoints="true"
     inkscape:snap-nodes="true"
     inkscape:pagecheckerboard="1"
     showguides="true"
     inkscape:guide-bbox="true"
     width="30.48mm"
     fit-margin-top="0"
     fit-margin-left="0"
     fit-margin-right="0"
     fit-margin-bottom="0" />
  <metadata
     id="metadata5">
    <rdf:RDF>
      <cc:Work
         rdf:about="">
        <dc:format>image/svg+xml</dc:format>
        <dc:type
           rdf:resource="http://purl.org/dc/dcmitype/StillImage" />
      </cc:Work>
    </rdf:RDF>
  </metadata>
  <g
     inkscape:label="Layer 1"
     inkscape:groupmode="layer"
     id="layer1"
     transform="translate(-5.0799999,-168.49997)"
     style="display:inline">
    <rect
       style="display:inline;opacity:1;vector-effect:none;fill:#fdf2dd;fill-opacity:1;fill-rule:evenodd;stroke:none;stroke-width:0.530198;stroke-linecap:butt;stroke-linejoin:miter;stroke-miterlimit:4;stroke-dasharray:none;stroke-dashoffset:0;stroke-opacity:1;paint-order:normal"
       id="rect420"
       width="20.32"
       height="128.5"
       x="5.0799999"
       y="168.49997" />
    <rect
       style="font-variation-settings:normal;fill:#603601;fill-opacity:1;stroke:none;stroke-width:0.849993;stroke-linecap:butt;stroke-linejoin:miter;stroke-miterlimit:4;stroke-dasharray:none;stroke-dashoffset:0;stroke-opacity:1;stop-color:#000000"
       id="rect643-9-3"
       width="20.24"
       x="5.1199999"
       y="274.49997"
       height="14" />
    <rect
       style="font-variation-settings:normal;display:inline;fill:#d2b48c;fill-opacity:1;stroke:none;stroke-width:2.43068;stroke-linecap:butt;stroke-linejoin:miter;stroke-miterlimit:4;stroke-dasharray:none;stroke-dashoffset:0;stroke-opacity:1;stop-color:#000000"
       id="rect643-9-3-8-9"
       width="20.32"
       height="114.03891"
       x="5.0799999"
       y="174.49998" />
    <g
       id="g4831"
       transform="matrix(0.01816436,7.0347027e-4,-6.8602665e-4,0.01862623,12.390605,289.59875)"
       style="fill:#1c0a00;fill-opacity:1">
      <path
         d="M 14.257,275.602 C -17.052,220.391 4.253,133.798 69.023,69.01 142.576,-4.533 244.279,-22.066 296.205,29.85 c 0.061,0.068 0.112,0.145 0.195,0.214 C 286.008,60.299 252.914,124.631 153.714,159.412 62.842,191.29 27.788,241.972 14.257,275.602 Z M 310.81,48.75 c -7.871,18.361 -21.57,42.356 -45.173,65.957 -23.725,23.735 -57.445,47.046 -105.208,63.8 C 63.49,212.5 36.405,268.149 28.848,295.116 c 0.357,0.36 0.664,0.733 1.011,1.083 51.921,51.918 153.628,34.386 227.176,-39.169 65.444,-65.445 86.491,-153.161 53.775,-208.28 z"
         id="path4829"
         style="fill:#1c0a00;fill-opacity:1" />
    </g>
    <g
       aria-label="Travel"
       id="text75165"
       style="font-weight:500;font-size:3.52777px;line-height:1.25;font-family:Futura;-inkscape-font-specification:'Futura Medium';display:inline;fill:#1c0a00;stroke-width:0.264583"
       transform="translate(2.2111816e-7,168.49998)">
      <path
         d="M 10.848367,2.8537203 V 4.9280491 H 10.156924 V 2.8537203 H 9.5889531 V 2.2681105 h 1.8273849 v 0.5856098 z"
         style="font-weight:bold;-inkscape-font-specification:'Futura Bold';fill:#1c0a00"
         id="path80179" />
      <path
         d="m 11.588978,3.1183031 h 0.638527 v 0.2963326 q 0.102305,-0.1622774 0.250471,-0.2469439 0.148167,-0.088194 0.345722,-0.088194 0.02469,0 0.05292,0 0.03175,0 0.07056,0.00706 V 3.696862 q -0.127,-0.0635 -0.275166,-0.0635 -0.22225,0 -0.335138,0.1340552 -0.109361,0.1305275 -0.109361,0.384527 v 0.7761094 h -0.638527 z"
         style="font-weight:bold;-inkscape-font-specification:'Futura Bold';fill:#1c0a00"
         id="path80181" />
      <path
         d="m 13.843334,4.0178844 q 0,0.088194 0.03175,0.1658052 0.03175,0.074083 0.08467,0.1305275 0.05644,0.056444 0.130527,0.088194 0.07761,0.03175 0.165806,0.03175 0.08467,0 0.158749,-0.03175 0.07761,-0.03175 0.130528,-0.088194 0.05644,-0.056444 0.08819,-0.1305275 0.03528,-0.074083 0.03528,-0.1587496 0,-0.084666 -0.03528,-0.1587497 -0.03175,-0.077611 -0.08819,-0.1340553 -0.05292,-0.056444 -0.130528,-0.088194 -0.07408,-0.03175 -0.158749,-0.03175 -0.0882,0 -0.165806,0.03175 -0.07408,0.03175 -0.130527,0.088194 -0.05292,0.056444 -0.08467,0.1305275 -0.03175,0.070555 -0.03175,0.1552219 z m 0.804331,-0.8995813 h 0.642054 v 1.809746 H 14.647665 V 4.7269662 q -0.204611,0.2575272 -0.55386,0.2575272 -0.197555,0 -0.36336,-0.070555 Q 13.56464,4.8398548 13.441168,4.7093273 13.317696,4.5787999 13.24714,4.4024114 13.18011,4.2260228 13.18011,4.0178844 q 0,-0.1940273 0.06703,-0.3668881 0.06703,-0.1763885 0.186972,-0.306916 0.119944,-0.1305275 0.28575,-0.2046106 0.165805,-0.077611 0.366888,-0.077611 0.338666,0 0.560915,0.2363606 z"
         style="font-weight:bold;-inkscape-font-specification:'Futura Bold';fill:#1c0a00"
         id="path80183" />
      <path
         d="m 16.258034,3.1183031 0.430388,0.9278035 0.437443,-0.9278035 h 0.71261 L 16.89656,4.9280491 H 16.4697 l -0.931331,-1.809746 z"
         style="font-weight:bold;-inkscape-font-specification:'Futura Bold';fill:#1c0a00"
         id="path80185" />
      <path
         d="m 19.293797,3.7603572 q -0.03175,-0.1340553 -0.130528,-0.215194 -0.09878,-0.081139 -0.239888,-0.081139 -0.148167,0 -0.243416,0.077611 -0.09172,0.077611 -0.116417,0.2187217 z m -0.747888,0.3704159 q 0,0.4127491 0.388055,0.4127491 0.208138,0 0.313972,-0.169333 h 0.617359 q -0.186972,0.6208875 -0.934859,0.6208875 -0.229305,0 -0.419804,-0.067028 -0.1905,-0.070555 -0.328083,-0.1975551 -0.134055,-0.1269998 -0.208138,-0.3033883 -0.07408,-0.1763885 -0.07408,-0.3951102 0,-0.2257773 0.07056,-0.4056936 0.07055,-0.183444 0.201083,-0.3104437 0.130527,-0.1269997 0.313971,-0.1940274 0.186972,-0.070555 0.419805,-0.070555 0.229305,0 0.412749,0.070555 0.183444,0.067028 0.310444,0.1975551 Q 19.755942,3.449913 19.82297,3.6404126 19.89,3.8273844 19.89,4.063745 v 0.067028 z"
         style="font-weight:bold;-inkscape-font-specification:'Futura Bold';fill:#1c0a00"
         id="path80187" />
      <path
         d="M 20.891046,2 V 4.9280491 H 20.25252 V 2 Z"
         style="font-weight:bold;-inkscape-font-specification:'Futura Bold';fill:#1c0a00"
         id="path80189" />
    </g>
  </g>
</svg>
